/* XPM */
static char *_d04288607ce4916d0254e63e8297ed7BCuZ808Lwwc2CPyy[] = {
/* columns rows colors chars-per-pixel */
"64 65 119 2 ",
"   c None",
".  c #BDA673",
"X  c #BFA974",
"o  c #C3AB76",
"O  c #C6AF78",
"+  c #C6B07E",
"@  c #CBB37A",
"#  c #D4BB7F",
"$  c #CDB98A",
"%  c #D6BC82",
"&  c #D9BF82",
"*  c #DCC184",
"=  c #DEC48A",
"-  c #E0C587",
";  c #E1C689",
":  c #E5C98B",
">  c #EACE8E",
",  c #EDD08F",
"<  c #E4CB95",
"1  c #EACF94",
"2  c #E9CF98",
"3  c #EED191",
"4  c #E7D09E",
"5  c #E9D19B",
"6  c #F3D594",
"7  c #F4D799",
"8  c #F4D89C",
"9  c #DCCBA6",
"0  c #E7D0A3",
"q  c #E9D4A3",
"w  c #ECD6A9",
"e  c #EDD9AE",
"r  c #F5DBA4",
"t  c #F6DFAF",
"y  c #F6DEAF",
"u  c #F6DDAD",
"i  c #F3DBAA",
"p  c #EDDAB1",
"a  c #F1DDB3",
"s  c #F4DDB1",
"d  c #F7DFB0",
"f  c #F6DFB1",
"g  c #F6DFB2",
"h  c #F7DFB2",
"j  c #F6DFB3",
"k  c #F7DFB3",
"l  c #F1DEB6",
"z  c #F7DEB4",
"x  c #F1DEB8",
"c  c #F7E0B0",
"v  c #F7E0B1",
"b  c #F7E0B2",
"n  c #F7E0B3",
"m  c #F6E0B4",
"M  c #F7E0B4",
"N  c #F7E2B7",
"B  c #F8E1B4",
"V  c #F8E2B6",
"C  c #F4E1BA",
"Z  c #F5E2BA",
"A  c #F5E2BB",
"S  c #F4E2BE",
"D  c #F4E3BF",
"F  c #F6E4BF",
"G  c #F8E3B9",
"H  c #F8E4BD",
"J  c #F8E4BF",
"K  c #F9E6BF",
"L  c #F0E0C2",
"P  c #F4E3C1",
"I  c #F5E5C0",
"U  c #F7E4C2",
"Y  c #F7E5C2",
"T  c #F7E6C5",
"R  c #F9E6C1",
"E  c #F9E7C2",
"W  c #F8E7C3",
"Q  c #F8E6C4",
"!  c #F9E7C4",
"~  c #F8E7C6",
"^  c #FAE8C6",
"/  c #F3E4C8",
"(  c #F7E7C8",
")  c #F7E8CD",
"_  c #F7E9CE",
"`  c #F9E9C9",
"'  c #FAE8C8",
"]  c #FAE9C8",
"[  c #FAE9C9",
"{  c #F9E9CA",
"}  c #F8E9CB",
"|  c #F9E9CB",
" . c #FAE9CA",
".. c #FAE9CB",
"X. c #FBEACB",
"o. c #F9EACD",
"O. c #FAEACC",
"+. c #FAEACD",
"@. c #F8E9CF",
"#. c #FAEBCE",
"$. c #FAEACF",
"%. c #FBEACF",
"&. c #FAEBCF",
"*. c #FBEBCF",
"=. c #FBECCF",
"-. c #F9EAD0",
";. c #F9EBD1",
":. c #FAEBD0",
">. c #FBEBD0",
",. c #FAECD0",
"<. c #FBECD0",
"1. c #FBECD1",
"2. c #FAECD2",
"3. c #FBECD2",
"4. c #FBEDD2",
"5. c #FAECD3",
"6. c #FBEDD3",
"7. c #FBEDD4",
"8. c #FBEED4",
/* pixels */
"                                                        X.6.6.7.7.7.`                                                           ",
"                                                      ;.7.7.6.7.7.7.7.$.                                                        ",
"                                                    ;.6.7.7.7.7.7.7.7.7.6.                                                      ",
"                                                  $.7.7.7.7.7.7.7.7.7.7.6.$.                                                    ",
"                                                $.6.7.7.7.7.7.7.7.7.7.7.6.7.$.                                                  ",
"                                                6.6.7.7.7.7.7.7.7.7.7.7.6.7.7.Z                                                 ",
"                                              w 7.7.7.7.7.7.7.7.7.7.7.7.7.7.7.6.                                                ",
"                                            * C 7.7.7.7.7.7.7.7.7.7.7.7.7.7.7.7.R                                               ",
"                                            * X.7.7.7.7.7.7.7.7.7.7.7.7.7.7.7.7.6.  u u u g u u                                 ",
"                                            * 7.7.7.7.7.7.7.7.7.7.7.7.7.7.7.7.7.6.u n B M M z z g                               ",
"                                          * * 7.7.7.7.7.7.7.7.7.7.7.7.7.7.7.7.7.7.n M M M M M M z n u                           ",
"                                          & = 7.7.7.7.7.7.7.7.7.7.7.7.7.7.7.7.7.7.X.g M M M M M M n g u                         ",
"                                        * & = 7.7.7.7.7.7.7.7.7.7.7.7.7.7.7.7.7.7.7.u n n n M M M M M g                         ",
"                                        & & < 7.7.7.7.7.7.;.7.7.7.7.7.7.7.7.7.7.7.7.5 M M M M M M M M B g                       ",
"                                        & & q 7.7.7.7.7._ $ $.7.7.7.7.7.7.7.7.7.7.7.= n M M M M M M M M z u                     ",
"                                      * & & p 7.7.7.7.7.L . / 7.7.7.7.7.7.7.7.7.7.7.w i M M M M M M M M B g                     ",
"                                      & & & I 7.7.7.7.7.;.9 ;.7.7.7.7.7.7.7.7.7.7.7.! < M M M M M M M M M M u                   ",
"                                    < & & & ;.7.7.7.7.7.6.6.7.7.7.7.7.7.7.7.7.7.7.7.6.= g M M M M M M M M M z                   ",
"                                  $.w & & & J 6.6.6.7.6.6.7.7.7.7.7.7.7.7.7.7.7.7.7.7.= i n M M M M M M M M M g                 ",
"                              J 6.7.q * & * 6 r F 7.7.6.7.7.7.7.7.7.7.7.7.7.7.7.7.7.7.= 2 n M M M M M M M M M M                 ",
"                            I 7.7.7.4 & & & , 6 6 8 G 6.6.6.8.8.7.7.7.7.7.7.7.7.7.7.7.q * g z M M M M M M g M M i               ",
"                          I ;.7.7.7.< & & & : 6 6 6 6 8 V X.=.8.7.7.7.7.7.7.7.7.7.7.7.F & i M M M M M M g $ M M M               ",
"                          6.7.7.7.7.= * & * ; 6 6 6 6 6 6 8 c W $.6.7.7.7.7.7.7.7.7.7.6.* 2 g B M M M M i + M M M               ",
"                        $.7.7.7.7.7.* & & * * 6 6 6 6 6 6 6 6 8 u H $.7.7.7.7.7.7.7.7.6.= * g g M M M M z 0 M M M u             ",
"                      X.7.7.7.7.7.;.& & * * * 6 6 6 6 6 6 6 6 6 6 6 r H X.6.7.7.7.7.7.7.< * i g M M M M M M M M M M             ",
"                      6.7.7.7.7.7.$.& & # * * 3 6 6 6 6 6 6 6 6 6 6 6 7 8 B X.7.7.7.7.7.q # 5 g M M M M M M M M M M             ",
"                    =.7.7.7.7.7.6.T & & & % * 6 6 6 6 6 6 6 6 6 6 6 6 6 6 6 7 t X.7.8.8.Z # - B M M M M M M M M M M g           ",
"                    7.7.7.7.7.7.6.S * & & & * 3 6 6 6 6 6 6 6 6 6 6 6 6 6 6 6 6 6 r X.8.=.* * i M M M M M M M M M M n           ",
"                  $.7.7.7.7.7.7.7.x & & & & * , 6 6 6 6 6 6 6 6 6 6 6 6 6 6 6 6 6 6 6 r W * & 5 M z M M M M M M M M n           ",
"                  7.7.7.7.7.7.7.7.p & & & & * : 6 6 6 6 6 6 6 6 6 6 6 6 6 6 6 6 6 6 6 6 6 * & = g B M M M M M M M M M u         ",
"                X.7.7.7.7.7.7.7.7.w * & & & % * 6 6 6 6 6 6 6 6 6 6 6 6 6 6 6 6 6 6 6 6 6 * & & i M M M M M M M M M M n         ",
"                6.7.7.7.7.7.7.7.7.0 & & & & * * 6 6 6 6 6 6 6 6 6 6 6 6 6 6 6 6 6 6 6 6 6 * & & 5 M M M M M M M M M M M         ",
"              R 7.7.7.7.7.7.7.7.6.5 & & & & & & 6 6 6 6 6 6 6 6 6 6 6 3 6 6 6 6 6 6 6 6 6 * & & * r n M n n M M M M M M         ",
"              6.7.7.7.7.7.7.7.7.6.> & & & & & * 6 6 6 6 6 6 6 6 6 6 # @ 6 6 6 6 6 6 6 6 6 * & & * 3 8 r n M M M M M M M i       ",
"              7.7.7.7.7.7.7.7.7.6.; & & & & & & 6 6 6 6 6 6 6 6 6 6 o . 6 6 6 6 6 6 6 6 6 * * & * : 6 6 6 8 u M M M M M n       ",
"            ! 7.7.7.7.7.7.7.7.7.7.= & & & & & & 6 6 6 6 6 6 6 6 6 6 O o 6 6 6 6 6 6 6 6 6 * & & * * 6 6 6 , 6 8 r n g M M       ",
"            6.7.7.7.7.7.7.7.7.7.6.& & & & & & & , 6 6 6 6 6 6 6 6 6 : ; 6 6 6 6 6 6 6 6 6 * & & & & 3 6 6 * > 6 6 6 r u g       ",
"            7.7.7.7.7.7.7.7.7.7.` * & & # # & & : 6 6 6 6 6 6 6 6 6 6 6 6 6 6 6 6 6 6 6 6 * & & & & > 6 6 3 6 6 6 6 6 6 8       ",
"          ! 7.7.7.7.7.7.7.7.7.7./ & & & & @ & & - 6 6 6 6 6 6 6 6 6 6 6 6 6 6 6 6 6 6 6 6 * & & & & * 6 6 6 6 6 6 6 6 6 6 6     ",
"          $.7.7.7.7.7.7.7.7.7.7.S & & & & # & & & 6 6 6 6 6 6 6 6 6 6 6 6 6 6 6 6 6 6 6 6 * & & & & * 6 6 6 6 6 6 6 6 6 6 6     ",
"          7.7.7.7.7.7.7.7.7.7.7.p * & & & & & & & 6 6 6 6 6 6 6 6 6 6 6 6 6 6 6 6 6 6 6 6 & # & & & & 3 6 6 6 6 6 6 6 6 6 6     ",
"          7.7.7.7.7.7.7.7.7.7.7.e * & & & & & & & 6 6 6 6 6 6 6 6 6 6 6 6 6 6 6 6 6 6 6 6 * * & & & & > 6 6 6 6 6 6 6 6 6 6     ",
"        ! 7.7.7.7.7.6.6.9 7.6.I 1 & & & & & & & & 6 6 6 6 6 6 6 6 6 6 6 6 6 6 6 6 6 6 6 6 * & & & & & * 6 6 6 6 6 6 6 6 6 6     ",
"        X.7.7.7.7.6.6._ . P t 6 , & & & & & & & & 3 6 6 6 6 6 6 6 6 6 6 6 6 6 6 6 6 6 6 6 * & & & & & * 6 6 6 6 6 6 6 6 6 6 6   ",
"        7.7.7.7.6.6.7.=.* 8 6 6 3 * & & & # * * & , 6 6 6 6 6 6 6 6 6 6 6 6 6 6 6 6 6 6 6 * & & & & & & 6 6 6 6 6 6 6 6 6 6 6   ",
"        7.7.7.7.8.8.X.t 5 6 6 6 6 * & & & & * # & : 6 6 6 6 6 6 6 6 6 6 6 6 6 6 6 6 6 6 6 * & & & & & & : 6 6 6 6 6 6 6 6 6 6   ",
"        7.7.7.7.8.G r 6 6 6 6 6 6 ; & & & & & # & - 6 6 6 6 6 6 6 6 6 6 6 6 6 6 6 6 6 6 6 * * & & & & & * 6 6 6 6 6 6 6 6 6 6   ",
"      T 7.6.6.6.u 8 6 6 6 6 6 6 6 > & & & * # O & & 6 6 6 6 6 6 3 6 6 6 6 6 6 6 6 6 6 6 6 * & & & & & & * 6 6 6 6 6 6 6 6 6 6   ",
"      $.7.7.^ 7 6 6 6 6 6 6 6 6 6 , # - # * # # * # 6 6 6 6 6 3 o : 6 6 6 6 6 6 6 6 6 6 6 * & & & & & & & , 6 6 6 6 6 6 6 6 6   ",
"      6.$.B 6 6 6 6 6 6 6 6 6 6 6 6 * # * # * * * * 6 6 6 6 6 , . - 6 6 6 6 6 6 6 6 6 6 6 & & & & & & & & ; 6 6 6 6 6 6 6 6 6   ",
"      ! r 6 6 6 6 6 6 6 6 6 6 6 6 6 - * * * # # * * - 6 6 6 6 6 # 3 6 6 6 6 6 6 6 6 6 6 6 & & & * # & & & * 6 6 6 6 6 6 6 6 6 6 ",
"      7 6 6 6 6 6 6 6 6 6 6 6 6 6 6 ; # # * * * # # * 3 6 6 6 6 6 6 6 6 6 6 6 6 6 6 6 6 6 * & & & * * # & * 6 6 6 6 6 6 6 6 6 6 ",
"      6 6 6 6 6 6 6 6 6 6 6 6 6 6 6 > - & & & & * & & - 6 6 6 6 6 6 6 6 6 6 6 6 6 6 6 6 6 * & & & & & @ O * , 6 6 6 6 6 6 6 6 6 ",
"    6 6 6 6 6 6 6 3 6 6 6 6 6 6 6 6 , # # & & & & & & & 3 6 6 6 6 6 6 6 6 6 6 6 6 6 6 6 6 & & & & & * X . & * 6 6 6 6 6 6 6 6 6 ",
"    6 6 6 6 6 6 ; @ 6 6 6 6 6 6 6 6 6 # - # & & & & & & - 6 6 6 6 6 6 6 6 6 6 6 6 6 6 6 6 & & & & & & o X & * 6 6 6 6 6 6 6 6 6 ",
"    6 6 6 6 6 6 1 % 6 6 6 6 6 6 6 6 6 - # * & & & & & & & 3 6 6 6 6 6 6 6 6 6 6 6 6 6 6 6 & & & & & & # # & & > 6 6 6 6 6 6 6 6 ",
"    6 6 6 6 6 6 6 6 6 6 6 6 6 6 6 6 6 ; & & & & & & & & & - 6 6 6 6 6 6 6 6 6 6 6 6 6 6 6 & & & & & & & & & & & : 6 6 6 6 6 6 6 ",
"    6 6 6 6 6 6 6 6 6 6 6 6 6 6 6 6 6 : & & * # & & & & & & > 6 6 6 6 6 6 6 6 6 6 6 6 6 6 & & & & & & & & & & & * - , 6 6 6 6 6 ",
"    6 6 6 6 6 6 6 6 6 6 6 6 6 6 3 > > - & & & & & & & & & & : 6 6 6 6 6 6 6 6 6 6 6 6 > > & & & & & & & & & & & & & * , 6 6 6 6 ",
"    6 6 6 6 6 6 6 6 6 6 6 > : : - - & & & & & & & & & & & & & > 6 6 6 6 6 6 6 6 3 > : - & & & & & & & & & & & & & & * * > 6 6 6 ",
"    6 6 6 6 6 6 6 3 > : - * * & & & & & & & & & & & & & & & & - 6 6 6 6 6 6 > : - - & & & & & & & & & & & & & & & & & & * ; 6 6 ",
"    6 6 6 6 : ; * * & & & & & & & & & & & & & & # & & & & & & & > 6 6 6 > - * & & & & & & & & & & & & & & & & & & & & & & * - , ",
"    3 ; - & * * & & * & & & & & * * * & & * * * & & & & & * & & - > : & - & & & * * & * & * & * & & & & & * * & & & & & & * * * ",
"                                                                                                                                ",
"                                                                                                                                "
};
