/* XPM */
static char *_78b1c0a8aea4112d5e5ebce182bd108lo87OZorOsvtClkK[] = {
/* columns rows colors chars-per-pixel */
"64 64 175 2 ",
"   c None",
".  c #876016",
"X  c #886017",
"o  c #8D6518",
"O  c #916717",
"+  c #906718",
"@  c #936A1C",
"#  c #9B6F1A",
"$  c #9F711A",
"%  c #A5761B",
"&  c #A7781C",
"*  c #AB7B1D",
"=  c #B17F1D",
"-  c #896623",
";  c #8C6924",
":  c #8C6C2E",
">  c #936E25",
",  c #986F24",
"<  c #9A7225",
"1  c #96752F",
"2  c #9B742C",
"3  c #9F782A",
"4  c #987731",
"5  c #A37522",
"6  c #A57825",
"7  c #AB7C24",
"8  c #A1772A",
"9  c #A47A2C",
"0  c #AA7D2C",
"q  c #B27F22",
"w  c #A47E32",
"e  c #AA7F32",
"r  c #B5811E",
"t  c #BB871F",
"y  c #BE891F",
"u  c #AF822C",
"i  c #B58324",
"p  c #BA8624",
"a  c #BE8A24",
"s  c #B48529",
"d  c #B9862D",
"f  c #B6892D",
"g  c #BB8A2B",
"h  c #A58034",
"j  c #AA8235",
"k  c #A7833A",
"l  c #AD8539",
"z  c #AC893C",
"x  c #B28331",
"c  c #B88630",
"v  c #B28936",
"b  c #BD8B31",
"n  c #B38D3D",
"m  c #BE8E39",
"M  c #BF9336",
"N  c #BC933C",
"B  c #C28B1F",
"V  c #C48C21",
"C  c #CA8E23",
"Z  c #C38D2B",
"A  c #C79123",
"S  c #CB9222",
"D  c #C4912B",
"F  c #CC932B",
"G  c #CD992C",
"H  c #D49624",
"J  c #D89725",
"K  c #D69824",
"L  c #DC9B26",
"P  c #D3972C",
"I  c #D6992C",
"U  c #DD9C2A",
"Y  c #C68F36",
"T  c #C49234",
"R  c #CB9334",
"E  c #C3963C",
"W  c #CB943A",
"Q  c #C6993B",
"!  c #C99B3A",
"~  c #D19735",
"^  c #D59A36",
"/  c #D59A3A",
"(  c #DA9E3C",
")  c #E29E27",
"_  c #E49F28",
"`  c #DDA133",
"'  c #DDA13D",
"]  c #E5A029",
"[  c #E5A333",
"{  c #E6A63B",
"}  c #E8A73E",
"|  c #E7A83F",
" . c #AB8343",
".. c #AE8D44",
"X. c #B58E41",
"o. c #BC9543",
"O. c #C19541",
"+. c #C49B42",
"@. c #CA9E41",
"#. c #C79D4A",
"$. c #CA9F49",
"%. c #D29C40",
"&. c #CDA245",
"*. c #CDA24A",
"=. c #D3A143",
"-. c #DDA341",
";. c #D3A44A",
":. c #DBA648",
">. c #D3A94D",
",. c #DCAA4D",
"<. c #DAB053",
"1. c #DFB75B",
"2. c #E4A642",
"3. c #E7A840",
"4. c #E6A843",
"5. c #E7A843",
"6. c #E7A842",
"7. c #E7A844",
"8. c #E7A944",
"9. c #E7A842",
"0. c #E8A841",
"q. c #E8A843",
"w. c #E8A943",
"e. c #E8A842",
"r. c #E8A844",
"t. c #E8A944",
"y. c #E9A944",
"u. c #E8A945",
"i. c #E9A945",
"p. c #E9AA44",
"a. c #E8AA45",
"s. c #E9AA45",
"d. c #E8AA44",
"f. c #EAAA44",
"g. c #E8AB47",
"h. c #E8AC47",
"j. c #E8A944",
"k. c #E1AC4A",
"l. c #E5AC4A",
"z. c #E9AD49",
"x. c #EAAE4B",
"c. c #EAAF4C",
"v. c #E9AE4B",
"b. c #E7B04F",
"n. c #EAB04D",
"m. c #EBB04D",
"M. c #EBB14F",
"N. c #EAB351",
"B. c #ECB553",
"V. c #ECB554",
"C. c #E3B85B",
"Z. c #E1BA5F",
"A. c #E1BB5F",
"S. c #E0B85C",
"D. c #E7BC5F",
"F. c #EBB859",
"G. c #EDB959",
"H. c #EFBC5D",
"J. c #EEBD5E",
"K. c #EFBE5F",
"L. c #E3BC61",
"P. c #EFBF60",
"I. c #E8C064",
"U. c #EBC469",
"Y. c #ECC569",
"T. c #ECC66B",
"R. c #F2C76A",
"E. c #F0C669",
"W. c #F2C86A",
"Q. c #F2C86B",
"!. c #F3C86B",
"~. c #F1C96D",
"^. c #F3C96C",
"/. c #F0C96E",
"(. c #F2CA6F",
/* pixels */
"        j 7 & * & * & & & % & & & & & * * & & & & % & & * * & & & * % & & % & % $ $ % % * & * * & & * & * & & & & 7 j k         ",
"    j 7 7 & & & * * * r * r * r 7 * * * * * * r * r & r * * * * * * * i r * * & % & * * * * * * * * * * * * * * & * & * 7  .    ",
"e 6 * * & * * i g b T M M M M M M T M M T M M M M M M M M M M M T M M M M M M M M M M T M M M M M M M M M b f i * * * * * 7     ",
"6 * * * * i M &.<.1.1.L.A.A.A.1.A.A.A.L.A.A.A.A.A.A.A.1.A.A.A.A.L.1.I.1.1.I.1.1.A.A.A.A.L.1.L.L.A.A.A.A.A.S.<.*.T i * * * * 7   ",
"7 * * * f &.1.T.~.E.W.W./.W.W.W.E.!.!.W.W.!.!.!.~.~.W.W.W.W.W.W.W.W.W.W./.~.W.W.E.!.!.W.W.!.!.!.~.~.W.W.W.W.~.~.L.&.s * * * 7   ",
"7 * * f &.L.E.J.V.M.M.M.b.m.n.m.c.c.z.m.c.x.z.x.n.n.m.m.m.m.c.c.z.M.z.m.n.n.m.m.c.c.z.m.c.x.x.x.m.m.m.M.M.m.B.H.W.T.>.p * * * 7 ",
"& * i Q D.K.M.a.a.a.a.w.a.8.9.9.a.r.a.e.a.a.a.a.d.d.w.w.9.w.a.w.a.a.w.a.w.d.9.9.a.r.a.e.a.a.a.r.d.w.w.w.w.a.w.a.M.J.U.@.7 * * 7 ",
"* * b <.H.m.w.w.a.w.w.a.w.d.d.9.e.a.r.a.w.a.a.a.d.d.w.w.9.9.w.a.w.a.a.w.a.d.d.9.e.a.r.a.w.a.a.a.w.w.w.w.w.w.a.e.w.z.G.S.M * * 7 ",
"* i Q F.x.a.a.a.w.a.a.f.a.a.f.a.a.f.a.i.i.z.a.f.a.f.a.z.a.z.i.f.a.a.a.a.a.f.i.i.i.a.f.a.z.a.f.a.i.i.i.f.a.f.a.a.a.e.z.G.=.i * 7 ",
"* s =.N.f.a.f.a.a.a.r.r.a.f.a.f.f.a.f.i.f.a.z.i.f.a.f.i.f.i.i.a.a.a.a.f.f.a.i.i.i.z.a.f.i.i.a.f.i.i.i.a.f.a.f.f.a.a.a.x.,.s & 7 ",
"* g -.h.a.r.a.f.a.r.2.' 2.2.r.f.i.z.a.f.a.f.a.i.i.i.i.i.a.f.a.f.f.a.f.a.f.f.f.i.z.i.f.a.f.i.f.a.i.z.a.f.a.f.f.a.a.a.r.a.k.p * 7 ",
"* g ( r.a.f.z.i.a.e./ d d ( r.a.i.i.f.a.f.a.f.i.z.i.f.a.f.a.f.a.a.f.a.f.r.r.i.i.a.i.i.f.a.f.a.f.f.a.a.a.a.i.a.f.a.e.a.e.2.s * 7 ",
"* p ^ 8.f.i.i.i.a.2.R < 5 Y 2.r.i.z.a.f.a.f.a.z.a.f.a.f.a.f.i.z.f.i.i.z.a.2.%.2.a.a.i.i.i.i.z.a.a.f.a.a.w.a.a.a.f.f.a.w.' i * i ",
"* p ^ 9.a.f.i.i.f.2./ q q / 2.a.i.i.f.a.f.a.f.i.f.a.f.a.f.a.i.i.i.i.i.i.e.( Z W 2.a.f.a.i.i.i.i.f.a.a.2.2.2.a.a.f.f.w.a.' p * 7 ",
"* p ^ a.f.a.f.a.a.a.2.( ( 2.e.a.a.f.a.z.a.f.i.i.a.f.i.i.a.f.i.i.i.f.a.f.a.( b R ' r.f.f.z.a.f.i.f.a.a.e.2.2.a.a.f.f.a.9.' i 7 7 ",
"* p ^ w.a.f.a.f.a.f.a.r.7.r.a.a.f.a.f.i.i.i.f.a.f.a.z.i.f.a.z.i.z.a.f.a.e.2.( ( 2.r.f.a.a.f.a.f.a.a.a.r.a.a.a.a.a.h.8.8.[ i 7 7 ",
"* a ^ a.a.f.a.f.i.z.a.f.a.f.i.i.i.z.a.f.a.f.i.i.a.f.a.f.a.f.a.f.z.i.i.i.a.a.r.a.a.z.i.f.a.f.a.f.f.a.f.a.i.i.i.f.a.f.f.e.( q % 5 ",
"7 p ^ w.f.a.f.a.i.i.f.a.i.i.f.a.f.a.f.a.f.a.z.i.f.a.f.a.i.i.f.a.a.i.i.i.f.a.a.z.a.i.i.a.f.a.f.a.a.f.i.f.i.i.z.a.f.a.f.%.Y O X - ",
"* p ^ w.r.r.a.a.i.i.a.f.i.f.a.f.a.f.i.z.a.f.a.f.a.f.f.f.i.i.i.f.f.a.a.f.a.f.i.i.f.a.a.f.i.i.i.z.a.z.i.i.f.i.f.a.i.a.2.Y 2 ; - : ",
"* p ^ w.2.2.e.a.f.a.f.a.z.a.f.a.f.a.i.i.f.a.f.a.a.w.e.f.i.i.z.a.a.f.f.a.f.a.i.i.a.f.f.a.z.i.i.i.f.i.i.i.a.f.a.a.a.7./ 0 3 k z  .",
"* p ^ e.2.' 2.y.a.f.a.f.a.f.a.a.a.a.a.a.a.a.e.} } { } y.f.f.f.f.f.a.f.i.f.a.f.i.f.a.f.i.a.f.i.i.a.f.i.i.i.z.r.r.a.%.x e o.N b N ",
"* p ^ r.2.%.2.e.f.a.f.a.f.a.w.a.a.e.e.8.} } { [ [ [ [ [ } } } } a.f.i.i.a.f.a.f.a.f.i.i.f.a.i.i.a.a.f.f.f.a.r.2.( c 3 o.:.g i u ",
"* p ^ r.r.e.e.r.a.f.f.w.a.w.r.e.} { { [ [ ] _ _ _ ] _ _ ] [ } } } w.a.f.f.a.i.i.a.f.i.z.a.f.a.a.a.7.-.%.( / W W c 8 n :.' s % 6 ",
"7 p ^ e.a.a.r.r.w.w.w.w.} { { [ [ _ ] ] _ _ _ _ _ _ _ _ _ _ ] ] [ { } a.w.a.z.i.f.a.f.a.f.a.f.e.7.-.%.W m v x e 2 > E 9.' i * u ",
"= p ^ e.r.e.e.} } { [ [ [ ] ] _ _ _ _ _ _ _ _ ] ] ] ] ] ] _ _ _ _ ] [ [ } 2.w.w.i.y.i.i.i.i.f.a.8.7.2.:.;.;.$.#.X.4 e 2.' V * 7 ",
"* p ^ e.e.} { [ [ ] [ _ _ ) U ) _ _ _ _ ] ] ] ] ] ] ] ] ] ] _ _ _ _ _ ] ] [ [ } 2.0.y.y.f.i.a.f.8.a.i.x.c.c.c.c.,.n 8 W ( q 7 7 ",
"* p P [ [ _ [ _ _ _ _ _ L J I U _ _ _ _ ] ] ] ] ] ] ] ] ] ] ] ] ] ] _ _ _ _ _ [ [ { } 0.y.e.r.a.a.r.e.e.e.r.w.a.i.;.k x ~ q * 7 ",
"* q H _ _ _ _ _ _ _ ) J F F ^ ) _ _ ] ] ] ] ] ] ] ] ] ] ] ] ] ] ] ] ] ] _ _ _ _ ) _ [ [ { } e.w.a.a.a.a.a.r.e.a.i.v.$.e d q * 0 ",
"* = C ) ) ) ) ) _ ) H Z d ~ U ] _ _ ] ] ] ] ] ] ] ] ] ] ] ] ] ] _ ] ] ] ] ] _ ) J J ) ) ] [ [ { { w.a.r.r.a.r.a.a.a.l.o.0 $ % 0 ",
"& * i V V V p V p p i s R ) _ _ _ ] ] ] ] ] ] ] ] ] ] ] ] ] ] ] ] ] ] ] ] ] ) H q = H ) ] ] ] [ [ { { e.7.7.2.w.w.a.8.,.l , O , ",
"# , 8 0 w k k l w ; e ! ` ] ) _ ] ] ] ] ] ] ] ] ] ] _ ] ] ] ] ] ] ] ] ] ] _ _ C 7 * C ) ) ] _ _ ] ] ] [ [ { [ { { { { 8.;. .4 : ",
"2 e o.#.$.;.>.>.+.2 Y ` ] _ ] ] ] ] ] ] ] ] ] ] ] ] ] ] ] ] ] ] ] ] ] ] ] _ _ L V V J ) ] ] _ _ _ _ _ _ _ _ _ [ ] ] ] [ { @.o...",
"X.! ' [ [ [ ] ) A h S ] ] ] ] ] ] ] ] ] ] ] ] ] ] ] ] ] ] ] ] ] ] ] ] ] ] ] ] _ _ _ _ _ ] ] ] ] ] ] _ ] _ _ ] _ _ _ _ _ L B = Y ",
"M g S _ ] ] ] ) B u G ] ] ] ] ] ] ] ) ] ] ] ] ] ] ] ] ] ] ] ] ] ] ] ] ] ] ] ] ] ] ] _ _ ] ] ] ] ] ] ] ] ] ] ] _ _ _ _ _ J = & q ",
"i r S ) ] U ] U y u K ] ] ] ] ] ) ) K ) ) ] ] ] ] ] ] ] ] ] ] ] ] ] ] ] ] ] ] ] ] ] ] ] ] ] ] ] ] ] ] ] ] ] ] ] ] ] _ _ J r * 7 ",
"* r S ] ] ] ] U p f K ) ] ) ] ] ] K S S ) ] ] ] ] ] ] ] ] ] ] ] ] ] ] ] ] ] ] ] ] ] ] ] ] ] ] ] ] ] ] ] ] ] ] ] ] _ ] _ J r * 7 ",
"* r S ] ] ] ) J s b L ] ) ] ] ] ] K K S ) ] ] ] ] ] ] ] ] ] ] ] ] ] ] ] ] ] ] ] ] ] ] ] ] ] ] ] ] ] ] ] ] ] ] ] ] ] _ ) J r * 7 ",
"* r S ] ] ] _ J u a L ] ] ] ] ] ] ] ) ) ] ] ] ] ] ] ] ] ] ] ] ] ] ] ] ] ] ] ] ] ] ] ] ] ] ] ] ] ] ] ] ] ] ] ] ] ] ] ] _ J r * 7 ",
"* r H ) ] ] ) H 7 G _ ] ] ] ] ] ] ] ) ) ] ] ] ] ] ] ] ] ] ] ] ] ] _ ] ] ] ] ] ] ] ] ] ] ] ] ] ] ] ] ] ] ] ] ] ] ] ] _ _ J r * 7 ",
"* i S ) _ _ ) F 7 G _ ] ] ] ] ] ] ] ] ] ] ] ] ] ] ] ] ] ] ] ] ] ] ] ] ] ] ] ] ] ] ] ] ] ] ] ] ] ] ] ] _ ] ] ] ] ] ] _ _ J = * 7 ",
"* r H ) _ _ J q r A L ] ] ] ] ] ] ] ] ] ] ] ] ] ] ] ] ] ] ] ] ] ] ] ] ] ] ] ] ] ] ] ] ] ] ] ] ] _ _ ) ) ) _ ] ] ] ] ] ) L = = * ",
"= r C ) ) C q e z D G ] ] ] ) ] ] ] ] ] ] ] ] ] ] ] ] ] ] ] ] ] ] ] ] ] ] ] ] ] _ ] ] ] ] ] ] ] _ ) J y = H ) ] ] ] ] ) J r * 7 ",
"* r H ) C 7 v %.! +.G K ) ) ) ] ) ) ) ) ] ] ] ] ] ] ] ] ] ] ] ] ] ] ] ] ] ] ] ] ] ] ] ] ] ] ] ] _ _ C & $ B _ ] ] ] ] ) J r * 7 ",
"* r V V q v ! ( ` G M A S K S K K ) ) ) ] ] ] ] ] ] ] ] ] ] ] ] ] ] ] ] ] ] ] ] ] ] ] ] ] ] ] ] _ _ ) B = H _ ] ] ] ] ) J = * 7 ",
"% % & u z +.~ K S S G A B S S S S S K K ) ) ) ) ) ] ] ] ] ] ] ] ] ] ] ] ] ] ] ] ] ] ] ] ] ] ] ] _ _ _ ) ) ) ) _ ] ] ] ) J r * 7 ",
"o @ 3 v ! G S A S S S S S S S S S S S S S K K K ) ] ) ] ] ] ] ] ] ] ] ] ] ] ] ] ] ] ] ] ] ] ] ] _ _ _ _ ) ] _ _ ] ] ] ) J r * 7 ",
"1 h n ! G S S S S S S S S S S S S S S S S S S K K K K ) ) ] ) ] ] _ ] _ ] ] ] ] ] ] ] ] ] ] ] ] ] ] _ _ ] ] ] ] ] ] ] ) J r * 7 ",
"o.N ! P S S S S S S S S S B S S S S S S S S S S S S S K K K ) ) _ _ _ _ ] ] ] ] ] ] ] ] ] ] ] ] ] [ _ _ ] ] ] ] ] ] _ _ J = * 7 ",
"f f a S S S S S S S S S S S S S S S S S S S S S S S S S S S K K S y S K ) ] ] ] ] ] ] ] ] ] ] ] ] _ ] _ ) ) ) ) ) ) ) ) K r * * ",
"r r y S S S S G S S S S S G S S S S S S S S S S S S S S S S S S y r r S L ) ) ) ) ] ] ] ] ] ) ) _ _ _ _ ) L ) L L K K K S r * * ",
"r r A S S S S S S S S S S S S S S S S S S S S S S S S S S S S S t O O y K K L ) ) ) ) ) ) ) L L J J ) J H H H S S S S S S * * * ",
"r r y S S S S K S S S S S S S S S S S S S S S K S S S S S S S S y r r y S S S K K L L K K K K K H H H B S S S S S S S S S r * 7 ",
"$ r y S S S S S S S S S S S S S S S S S S S S S S S S G S S S S B B B S S S S S S S S K S S S S B S S S S S S S S S S S B = & * ",
"r r y S S S S S S S S S S S y S S S S S S S S S S S S S S S S S S S S S S S S S S S S S S S S S S S S S S S S S S S S S S = * 7 ",
"$ r t A S S S S S S S S y y t t S S S S S S S S S S S S S S S K S S S S S S S S S S S S S S S S S S B B B S S S S S S S S * * 7 ",
"r r t A S K S S K S S S S r r r B S S S S S S S S S S S S S S S S S S S S S S S S S S S S S S S H S B r r B S S S S S S B r * 7 ",
"r r y B S S S S S S S S S S t r B B S S S S S S S S S S S S S S S S S S S S S S S S S S S S S S S S y * * y S S S S S S y r % * ",
"r r t B S S S S S S S S S S A A S S S S S S S S S S S S S S S S S S S S S S S S S S S S S S S S S S S y y B S S S S S A r r & 7 ",
"r r r t S S S S S S S S S S S S S S S S S S S S S S S S S S S S S S S S S S S B S S S S S S S S S S S S S S S C S S S B r r r 7 ",
"r o r t B B S S S S S S S S A S S S S S S S S S S S S S S S S S S S S S S S y y y S S S S S S S S S S S S S S S S S B r & & & 7 ",
"r r r r r r r B S S S S S S S S S S S S S S S B S S S S S S S S S S S S S S y r r y B S S S S S S S S S C S S S A V r * & & * h ",
"r + r + r r r t B S B B A S S B B B B S S S B B S S S S B y S B S S y y y S S y # r y S B S S B S B B S A C S B y r * * & r 7   ",
"o r r h r r r r t t r r r r t t r r r r y y r r r r y y r r r r y t r r r r t t $ O % r y y r t y r y y y t t r * * * * * * 0   ",
"  r O r O r r r r r r r r r r r r r r r r r r r r r r r r r r r r r r r r r r r $ . O $ r r r & r r & r * = * * * * * * 7 j     "
};
