/* XPM */
static char *_55152b6121b4063803b77cfba3213a19kvJ2ecrv56GJBNv[] = {
/* columns rows colors chars-per-pixel */
"64 64 210 2 ",
"   c None",
".  c #4F5B31",
"X  c #545E33",
"o  c #556035",
"O  c #5C6332",
"+  c #636632",
"@  c #656932",
"#  c #6B6B31",
"$  c #656E38",
"%  c #65673D",
"&  c #66733E",
"*  c #6B743D",
"=  c #6E783E",
"-  c #6C7035",
";  c #727432",
":  c #747B3D",
">  c #7A7D3B",
",  c #7A7A36",
"<  c #67682E",
"1  c #5F5C44",
"2  c #6F5B4B",
"3  c #6E6940",
"4  c #6D7941",
"5  c #6B7546",
"6  c #727F44",
"7  c #767B4A",
"8  c #6C7D51",
"9  c #7F7050",
"0  c #81774A",
"q  c #7A803E",
"w  c #7C8543",
"e  c #798549",
"r  c #7B8C58",
"t  c #85893E",
"y  c #898B3F",
"u  c #84853F",
"i  c #858B43",
"p  c #828C4B",
"a  c #808347",
"s  c #948C4C",
"d  c #889046",
"f  c #86914B",
"g  c #8C934B",
"h  c #929444",
"j  c #9C964E",
"k  c #959A4B",
"l  c #9B9D48",
"z  c #858C53",
"x  c #9B8B58",
"c  c #8B9654",
"v  c #8B9C5D",
"b  c #889357",
"n  c #949C54",
"m  c #9B9D53",
"M  c #999656",
"N  c #A7965A",
"B  c #B39C5D",
"V  c #BB9E5C",
"C  c #9CA24D",
"Z  c #8EA45E",
"A  c #96A153",
"S  c #9CA452",
"D  c #93A65E",
"F  c #99A65D",
"G  c #94A95E",
"H  c #9BAC5C",
"J  c #9EB15E",
"K  c #A0A24C",
"L  c #A6AA4F",
"P  c #A4A554",
"I  c #ACA752",
"U  c #A4AB54",
"Y  c #ABAE54",
"T  c #A7A75A",
"R  c #ACA35D",
"E  c #A2AE5B",
"W  c #AAAD5B",
"Q  c #B7A75A",
"!  c #A4B25C",
"~  c #ABB55B",
"^  c #AEB95E",
"/  c #AFB356",
"(  c #B3B552",
")  c #B6B955",
"_  c #BBBD56",
"`  c #B2B759",
"'  c #B4BD5E",
"]  c #B9BE5C",
"[  c #8E9964",
"{  c #AB996E",
"}  c #B79F61",
"|  c #B99F62",
" . c #B29A66",
".. c #92A662",
"X. c #95AA61",
"o. c #9AAE63",
"O. c #9BA466",
"+. c #9DB265",
"@. c #9CB368",
"#. c #9FBA6D",
"$. c #AAA966",
"%. c #B7A364",
"&. c #B2AC69",
"*. c #BBA667",
"=. c #A2B664",
"-. c #A9B762",
";. c #A6B964",
":. c #ACBB62",
">. c #A2B569",
",. c #A4BB6B",
"<. c #AABD69",
"1. c #B2BD61",
"2. c #BBBF64",
"3. c #B2B46B",
"4. c #B4BF6C",
"5. c #B9B765",
"6. c #B7BF74",
"7. c #C09E5B",
"8. c #C4A865",
"9. c #C5B16F",
"0. c #CAB667",
"q. c #D8BA6D",
"w. c #DDBF73",
"e. c #D7BB70",
"r. c #C7AB71",
"t. c #B6C05F",
"y. c #BCC25D",
"u. c #AEC067",
"i. c #A7C06E",
"p. c #ADC36C",
"a. c #B3C164",
"s. c #BBC462",
"d. c #BEC965",
"f. c #B2C46B",
"g. c #B6CA6E",
"h. c #BCCD6C",
"j. c #BEC66B",
"k. c #ADC572",
"l. c #ADC872",
"z. c #B4C472",
"x. c #B3CA72",
"c. c #BACD71",
"v. c #BCC678",
"b. c #B3CE78",
"n. c #BEC879",
"m. c #BBC676",
"M. c #BDD274",
"N. c #B9D279",
"B. c #C3C356",
"V. c #C3C55B",
"C. c #C8C65C",
"Z. c #C5C95D",
"A. c #CBCC5B",
"S. c #CFD25F",
"D. c #D2D25E",
"F. c #C1C762",
"G. c #C4CC63",
"H. c #CACE62",
"J. c #C3C36A",
"K. c #C2CE6B",
"L. c #CACB69",
"P. c #D1CD61",
"I. c #D4C06F",
"U. c #C5D066",
"Y. c #CDD365",
"T. c #C4D16A",
"R. c #CBD469",
"E. c #CBD86F",
"W. c #D2D665",
"Q. c #D5D965",
"!. c #DDDD62",
"~. c #D9DA65",
"^. c #DDDE65",
"/. c #DADA62",
"(. c #D3DA6B",
"). c #DBDD69",
"_. c #D4D764",
"`. c #C2C77C",
"'. c #C3C97B",
"]. c #C9CD7E",
"[. c #C5CE70",
"{. c #DFC375",
"}. c #DDC479",
"|. c #D4C171",
" X c #C5D572",
".X c #C9D771",
"XX c #C9D971",
"oX c #C4D876",
"OX c #D2D974",
"+X c #E6C06E",
"@X c #E8C26E",
"#X c #E0DF62",
"$X c #E2C272",
"%X c #EAC573",
"&X c #E2C779",
"*X c #ECCC7D",
"=X c #DDE165",
"-X c #DBE16D",
";X c #DDE371",
":X c #E2E266",
">X c #E5E666",
",X c #E4E56A",
"<X c #E6E96A",
"1X c #EBEC6B",
"2X c #EEF16B",
"3X c #F0F16D",
"4X c #F0F26A",
"5X c #CACE80",
"6X c #DBD083",
"7X c #E7CD84",
/* pixels */
"                                                                                                                                ",
"                                                                                                                                ",
"                                                                                                                                ",
"                                                                                                                                ",
"                                                                                                                                ",
"                                        Q W Y y.).2X2X4X2X<X>X>X>X1X3X3X3X3X3X3X<XP.Q                                           ",
"                                    C.C.V.' ! t.#X:X:X:X#XD.D.D.D./.:X:X>X>X<X:X#X/._.P.0.                                      ",
"                                  P.A.A.] E H ~ H.#X!.^./.A.A.C.A.A./.!.!.#X#X/./././.^.:X_.                                    ",
"                                /.!.A.B.~ F G H y.#X#X#XD.A.Z.Z.C.A.D.#XD.=X!.D.A.D.D.!.:X,X-X                                  ",
"                              /.=X/.D.' H D G ! Z.D.A.D.#XA.Z.V.C.A.:XD.Q.!.D.D.A.A.D./.).,X<X,X                                ",
"                            :X^.!./.D.V.~ ~ ^ Z.Q.B.l K ) B.C.C.V.A./.!.Q.!.D.A.Z.V.C.W.=X:XY.B.P                               ",
"                            =X!.~./.A.C.V.B.C.D.A.C q , y C ( V.C.A.Q.!.!.!.Q.Z.Z.C.C.A.A.) K d u         3 Y ) ) _ _           ",
"                            =X^./.~.D.V.V.B.V.S.C.t > q > > i C ) A.^.^.Q.Q.W.C.) ) / L k t > q > 3       j D.A.B.C.A.A.        ",
"                            =X/._.~.H.C.V.V.V.S.Y.K q = : : : : d S ( y.W.Q.D.y.l d i q : = : q :         Y C.V.y.V.V.A.        ",
"                            =XQ._.Q.Y.Z.V.V.V.Z.Q.W.Y w = = = * = = : d Z.!.S.y.d & * = = * = d k         ] V.V._ B.B.A.        ",
"                            =XQ.Q.Q.D.V.V.y.V.Z.W.Q.W.' f = & & * 5 : S Y.Q.S.Z.Y w & & & w g t.;X        y.V.V.) y.V.Z.        ",
"                            ~.Q.Q.Q.Y.Z.y.V.y.G.W.W.Q.=XG.C w e e e S Y.Q.Q.G.Z.y.U p w f E Y.-X;X        F.y.y.' y.y.V.        ",
"        I I P I I j         L.Y.Y.G.G.Z.y.V.y.V.Y.Q.W.W.Q.U.] U U y.W.Q.Q.Q.Z.V.y.V.y.d.(.-X-XOXOX        Z.y.y.` y.y.y.        ",
"      S.A.A.B.A.A.A.I       W ' ! H J t.V.y.y.V.S.R.W.Q.Y.Z.) Y U y.W.(.W.W.F.y.y.B.V.H.(.-X-X(.L.        d.y.s.~ ] y.y.        ",
"    s A.C.B._ B.B.A.y.0 0 N ! H H G G ~ y.y.y.y.Y.R.Q.R.Y.y.l , ; t y.W.(.R.V.y.y.y.y.] y.Y.).Y.5.      s y.1.] ~ ' t.y.        ",
"    h B.C.V.y.y.V.V.y.U W ~ U =.H G o.' y.y.y.y.U.Q.R.W.G.K , # < # h Y.Q.Y.Z.y.y.y./ y ; C (.L.B       S s.t.' ! ' ' t.        ",
"    j V.y.V.) y.V.C.C.      7 1.d.^ s.F.y.y.y.y.A.R.R.Y.] t @ # # @ ; y.R.Y.d.y.y.y.g ; < > ] J.x       W ' 1.' ! ^ ' t.        ",
"    N y.y.y.) y.y.y.Z.        F.Q.R.R.U.y.y.s.y.G.R.R.U.U > + + @ @ @ ` Y.T.y.y.y./ u + + # U 2.9       1.1.1.^ E ^ t.^         ",
"    m y.y.y.` ) y.y.V.m       (.Q.R.R.G.t.t.y.t.Z.R.R.U.S - O O + O O Y Y.Y.d.t.y.P : O + # S 5.2       4.:.1.-.H ~ :.^         ",
"    P y.y.y.~ ' y.y.y.Y       (.R.R.R.U.y.' t.' F.R.Y.G.A $ O O O O O ~ Y.U.y.t.s.C * O O @ A T.$.$.3.$.u.^ u.! H ;.-.~ e       ",
"    P t.y.t.~ ` t.y.y.a.      R.R.R.R.U.y.2.' y.d.Y.Y.K.A & X O O o O ^ Y.U.y.t.s.S - X X $ F OX5X].5Xn.;.^ ;.^ G =.-.! z       ",
"    T ' 1.' ~ ^ t.' 1.d.      K.T.R.R.U.s.' ] 1.d.T.R.T.J & X . X X : d.R.G.a.t.t.U * . . 4 -..Xz.6.z.z.;.;.;.+.G ! ;.J z       ",
"    E ^ ' ' ! -.' ' ' s.      :.K.R.R.U.s.' 1.] y.T.R.R.a.e o . . o S U.R.G.t.' t.:.w . . f K.f.X.X.o.o.G H o.X.D +.=.! b       ",
"    ~ ^ 1.1.E ! ' ' ' t.c     ..s.E.R.K.s.' 1.1.' G.R.T.K.E 4 o O g d.R.T.d.t.a.t.t.! f f a.E.u.X.G X.X.H G G G o.=.=.J b       ",
"    -.-.1.-.H ! :.-.:.t.F     8 :.R.K.K.s.~ ^ ~ a.h.T.T.R.d.J A J :.T.R.R.s.t.^ ' ' h.K.h..XE.p.+.+.+.=.+.+.+.+.@.=.=.H v       ",
"    -.~ ^ -.H ! ^ :.:.:.-.O.[ O.f.[.[.K.j.1.~ ! ~ d.T.T.T.T.a.1.t.s.T.T.T.d.a.^ t.:.d.XXXXXXE.u.@.=.=.+.@.,.@.@.@.=.>.G v       ",
"    ;.! -.-.H J :.-.:.:.4.`.5Xn.].].].].].`.4.-.=.a.T.T.T.K.' ' 1.a.T.h.T.a.t.^ ^ ' h.XXXXXXc.=.G G X.X.X.o.o.o.o.+.X.X.v       ",
"    +.! -.=.G G -.-.;.-.<.v.v.v.v.v.v.v.m.m.<.;.+.^ T.T.T.h.a.a.:.s.T.h.T.a.u.^ 1.1.h.XX.XXXh.@.X.X.X.X.X.o.X.o.X.o.o.X.        ",
"    J J ;.=.G D H o.+.H o.+.+.+.>.o.o.o.o.o.X.X.G +.h.h.T.d.a.^ :.a.h.T.T.a.a.:.:.1.T.XX XXXf.                                  ",
"    H +.;.=.o.X.X.X.X.X.X...D X...F F G ..F G X.G J h.T.h.h.u.^ :.a.c.T.h.t.^ :.:.a.c. X XXXh.                                  ",
"    +.H =.=.=.+.+.+.o.+.o.=.+.+.+.+.+.+.o.+.+.+.X.J g.T.T.h.a.^ :.s.T.h.h.u.:.:.-.a.h. XXXoX                                    ",
"    o.X.@.=.=.@.+.>.=.=.@.=.=.@.@.=.@.=.>.@.=.=.X.+.h.h.U.h.a.u.-.a.h.T.h.u.^ -.-.s. X Xc.c.=.                                  ",
"    G G +.+.+.+.+.o.@.+.+.o.+.o.o.o.o.X.o.X.X.X.X.+.h.h.h.h.a.;.:.a.h.c.d.:.-.:.-.a.c.f.=.=.n                                   ",
"    X.G X.X.X.X.X.X.X.X.X.X.X.G Z Z Z Z Z Z Z Z G ;.h.h.c.h.u.:.-.a.h.h.g.:.-.:.-.f.g.=.D G F n                                 ",
"                                v X.o.+.G G G G J ;.d.c.c.g.a.:.;.u.h.h.g.:.-.;.-.f.g.+.D G H ~ ! k                             ",
"                                  >.g.f.p.-.H ! ! :.g.h.c.c.u.;.;.u.h.h.f.;.^ ;.^ g.g.i.@.G c c T W                             ",
"                                    h.h.g.:.H =.;.;.u.h.c.g.u.;.;.u.g.g.f.;.=.;.=.g.M.M. X>.                                    ",
"                                    c.g.:.E G G o.;.p.g.g.g.f.;.=.u.g.h.u.=.=.;.=.g.M.M.oXk.                                    ",
"                                    u.1.! E G F G +.p.g.g.g.p.;.=.u.g.c.u.;.;.,.=.g.M.M.oX                                      ",
"                                    ~ ^ ~ ! H G G +.p.c.c.g.p.;.=.u.g.g.u.@.=.=.,.f.g.l.M.                                      ",
"                                    ~ :.:.:.=.;.=.=.:.g.x.p.;.o.+.u.g.g.<.=.=.=.@.+.G H <.                                      ",
"                                    ,.h.c.p.;.=.=.=.,.g.p.@.X.G J u.l.g.<.=.=.=.J D G H ! A                                     ",
"                                      c.x.p.;.>.=.+.<.p.J H S H J <.l.l.+.=.+.;.X.G G H E ~ S %                                 ",
"                                      N.g.p.<.+.+.@.,.p.:.=.! ~ / :.z.l.>.>.>.@.,.<.<.p.=.n n m                                 ",
"                                      b.g.p.+.H G +.,.p.x.l.p.;.^ :.f.p.>.o.@.@.,.b.b.N.,.5                                     ",
"                                      z.p.;.H F G X.#.p.x.l.p.@.@.,.x.k.@.@.@.@.k.l.b.N...                                      ",
"                                      F -.! H H G G @.i.z.l.l.@.@.,.l.p.@.+.@.X.,.b.b.x.&. . .                                  ",
"                                    a P ` U E H G X.@.,.l.l.k.+.+.,.l.i.@.@.@.@.k.b.b.3.Q 7.8.r.{                               ",
"                                    g g z D <.+.o.o.@.#.l.l.l.@.>.<.l.,.@.@.@.#.k.k.$.} V V V 8.r.                              ",
"                                            r ..@.@.>.,.z.g.J.e.&X7X6Xz.@.@.#.<.3.&.B B V V V V }                               ",
"                                                M |.e.|.0.*.0.@X@X%X7X7XO.b $.$.%.| } } } } V V B                               ",
"                                                  &X$X$Xq.8.q.$X@X@X%X7X{ 2         x x N N  .x                                 ",
"                                                  *X{.{.w.q.w.$X$X+X$X%X .                                                      ",
"                                                  9.}.}.&X&X&X}.}.&X&X{.                                                        ",
"                                                            *.9.9.9.8.                                                          ",
"                                                                                                                                ",
"                                                                                                                                ",
"                                                                                                                                ",
"                                                                                                                                "
};
