/* XPM */
static char *fe12730e13b74ac0ed9e95172c2804c8Ka3OfftHEn6ae09c[] = {
/* columns rows colors chars-per-pixel */
"64 64 202 2 ",
"   c None",
".  c #050303",
"X  c #0B0301",
"o  c #0B0907",
"O  c #060609",
"+  c #050A09",
"@  c #0B0B0B",
"#  c #120500",
"$  c #1A0101",
"%  c #140A04",
"&  c #1D0903",
"*  c #130D0B",
"=  c #0D110D",
"-  c #15140F",
";  c #1B150E",
":  c #0B1413",
">  c #131411",
",  c #151815",
"<  c #1A1A15",
"1  c #141E19",
"2  c #1B1C19",
"3  c #191512",
"4  c #260D03",
"5  c #2A0E04",
"6  c #2E1305",
"7  c #2B160D",
"8  c #27170B",
"9  c #331204",
"0  c #381603",
"q  c #35150B",
"w  c #3C1D0E",
"e  c #381A08",
"r  c #271D12",
"t  c #2C1D13",
"y  c #351A10",
"u  c #24251C",
"i  c #2D231B",
"p  c #232317",
"a  c #34291A",
"s  c #3B2D1D",
"d  c #352315",
"f  c #3F301C",
"g  c #2E2B22",
"h  c #262620",
"j  c #332E23",
"k  c #363125",
"l  c #3A3425",
"z  c #3C3A29",
"x  c #3F3827",
"c  c #451C0C",
"v  c #481D0A",
"b  c #481707",
"n  c #521D06",
"m  c #531F0C",
"M  c #4B250F",
"N  c #54240B",
"B  c #5A230D",
"V  c #5A2A0D",
"C  c #4C2B14",
"Z  c #462612",
"A  c #5B2C12",
"S  c #592D16",
"D  c #49331F",
"F  c #573416",
"G  c #622E12",
"H  c #653416",
"J  c #6C3514",
"K  c #61351A",
"L  c #6C3C1C",
"P  c #723414",
"I  c #753D1A",
"U  c #7B3D19",
"Y  c #753A18",
"T  c #433624",
"R  c #473926",
"E  c #4C3B26",
"W  c #433D2B",
"Q  c #493E2A",
"!  c #5C3C27",
"~  c #553A24",
"^  c #653E26",
"/  c #723F23",
"(  c #7F421A",
")  c #77401A",
"_  c #41402E",
"`  c #494129",
"'  c #5A4127",
"]  c #54422C",
"[  c #5D4A2E",
"{  c #554227",
"}  c #434130",
"|  c #574A32",
" . c #5A4B32",
".. c #584730",
"X. c #61452C",
"o. c #6C462A",
"O. c #664B2E",
"+. c #694B2C",
"@. c #6A4326",
"#. c #724324",
"$. c #7C4724",
"%. c #7E4A25",
"&. c #744A2B",
"*. c #7B4D2D",
"=. c #7D522E",
"-. c #74502F",
";. c #6E4B34",
":. c #604930",
">. c #754E34",
",. c #6C5333",
"<. c #6F5738",
"1. c #735333",
"2. c #7C5532",
"3. c #7B5A35",
"4. c #775038",
"5. c #775D39",
"6. c #7B5C39",
"7. c #795638",
"8. c #7D613B",
"9. c #843F15",
"0. c #874216",
"q. c #82441D",
"w. c #8D4A1D",
"e. c #88471B",
"r. c #844923",
"t. c #8B4C23",
"y. c #814422",
"u. c #895225",
"i. c #83522D",
"p. c #8B532A",
"a. c #8E582B",
"s. c #945525",
"d. c #9A5626",
"f. c #94552B",
"g. c #9B5B2B",
"h. c #985929",
"j. c #855530",
"k. c #8A5731",
"l. c #855A37",
"z. c #8D5A33",
"x. c #845B3B",
"c. c #84583A",
"v. c #945D35",
"b. c #9D5D30",
"n. c #945F38",
"m. c #A15C2C",
"M. c #A05C31",
"N. c #9F612F",
"B. c #8C6137",
"V. c #82633A",
"C. c #8C633A",
"Z. c #976137",
"A. c #9B6236",
"S. c #94643A",
"D. c #9D653A",
"F. c #95683C",
"G. c #9C6A3C",
"H. c #A5612E",
"J. c #A26535",
"K. c #A96634",
"L. c #A66837",
"P. c #AA6936",
"I. c #A26739",
"U. c #A46A3B",
"Y. c #AC6E3C",
"T. c #AE703E",
"R. c #B0713F",
"E. c #B1713F",
"W. c #B1723E",
"Q. c #B1713F",
"!. c #816541",
"~. c #9E6D49",
"^. c #98725B",
"/. c #A76F40",
"(. c #AE7141",
"). c #B17240",
"_. c #B27341",
"`. c #B37442",
"'. c #B57543",
"]. c #B67543",
"[. c #B77644",
"{. c #B37341",
"}. c #B87745",
"|. c #B97846",
" X c #B97845",
".X c #A67B5C",
"XX c #A87956",
"oX c #AA7F64",
"OX c #A67D63",
"+X c #A98064",
"@X c #A48B7C",
"#X c #B69177",
"$X c #BA9578",
"%X c #C69D7E",
"&X c #C69B7A",
"*X c #9E8C84",
"=X c #A49085",
"-X c #AA9385",
";X c #C8AB96",
":X c #C7B1A3",
">X c #D7C5BA",
",X c #E3D2C4",
/* pixels */
"Z.D.F.D.D.D.S.F.D.D.D.D.D.D.D.S.S.D.D.D.D.S.D.F.D.D.D.D.D.D.D.D.D.D.D.D.D.D.D.S.D.F.D.D.S.D.S.D.D.F.D.D.D.S.D.D.D.D.D.D.D.D.D.S.",
"D.P.U.Y.Y.Y.P.Y.U.Y.P.Y.U.Y.U.Y.Y.Y.P.Y.U.Y.P.Y.Y.P.Y.U.U.Y.U.Y.U.U.U.Y.U.Y.U.Y.P.Y.Y.U.Y.P.Y.Y.Y.P.Y.Y.P.Y.Y.P.Y.U.Y.P.U.Y.U.Y.",
"J.Y.Y.Y.Y.Y.Y.Y.Y.Y.Y.Y.Y.Y.Y.Y.T.Y.Y.T.Y.Y.Y.Y.Y.Y.Y.Y.Y.Y.T.P.P.T.P.T.Y.Y.P.T.Y.Y.Y.Y.Y.Y.Y.Y.Y.(.Y.Y.Y.T.T.Y.Y.Y.Y.T.).Y.Y.Y.",
"J.Y.Y.).R.Y.).T.T.T.T.).T.(.Y.).T.T.T.Y.Y.Y.Y.T.Y.Y.Y.Y.T.T.T.Y.T.T.T.T.Y.T.Y.T.Y.T.Y.T.Y.Y.Y.Y.Y.Y.Y.Y.T.T.T.T.(.Y.(.Y.Y.Y.).Y.",
"J./.Y.).Y.).T.T.T.T.T.T.T.T.T.T.T.T.T.T.T.Y.T.Y.Y.(.R.R.Y.R.T.R.R.R.R.R.R.R.R.R.).).).).R.T.R.R.Y.T.Y.T.T.T.T.T.T.T.T.T.).Y.Y.Y.",
"J.Y.Y.).).Y.T.T.T.T.T.T.T.T.T.T.T.T.T.T.Y.Y.R.R.R.R.R.R.{.{.`.'.'.'.'.[.[.[.[.[. X X|. X X'.`.R.T.Y.T.Y.T.T.T.T.).T.T.T.Y.).).T.",
"J.Y.(.Y.Y.).T.T.T.T.T.T.T.T.T.T.T.T.T.T.T.Y.Y.Y.Y.R.T.R.R.R.R.R.R.).'.).{.'.'.'.}.'.'.'.'.`.T.T.T.Y.T.T.T.T.T.T.Y.T.T.T.T.T.Y.Y.",
"J./.Y.Y.Y.Y.T.T.).T.T.T.T.T.T.T.T.T.T.).P.T.T.Y.Y.Y.Y.Y.P.R.T.Y.Y.T.R.P.T.Y.T.T.P.R.R.T.T.T.Y.T.T.T.Y.T.T.T.T.T.T.T.T.Y.).T.T.T.",
"b.U.I.P.Y.(.Y.T.Y.Y.Y.Y.(.Y.).Y.T.T.T.T.T.T.T.T.T.T.T.T.T.T.T.T.T.Y.T.Y.Y.T.Y.T.Y.T.Y.T.T.Y.Y.Y.R.T.T.T.T.T.T.T.T.T.T.T.T.).Y.Y.",
"n.n.D.I.D.J.I.P.P.Y.Y.(.Y.Y.T.Y.Y.T.T.T.T.T.T.T.T.T.T.T.T.T.T.T.T.Y.Y.T.T.T.T.Y.T.Y.R.P.T.T.T.T.Y.T.T.T.T.T.T.T.T.T.T.T.T.T.).Y.",
".X~.n.v.v.v.n.n.n.D.J.J.I.U.Y.P.Y.Y.T.T.T.T.T.T.T.T.T.T.T.T.T.T.T.T.T.T.T.T.T.T.T.(.T.Y.T.T.T.T.R.T.T.T.T.T.T.T.T.).Y.T.).Y.T.Y.",
"oX/.S.v.v.v.v.v.n.b.n.D.D.J.U.U.Y.Y.Y.T.T.T.T.T.T.T.T.T.T.T.T.T.T.T.T.T.T.T.T.T.T.P.b.i.l.G.T.T.T.T.T.T.T.T.T.T.T.T.T.T.Y.).Y.Y.",
"~.F.D.b.D.b.D.D.I.I.U.I.U.U.Y.U.Y.Y.Y.T.T.T.T.T.T.T.T.T.T.T.T.T.T.T.T.T.T.T.T.T.T.P.y.! O.S.T.T.T.T.T.T.(.T.T.T.T.T.).T.).T.).Y.",
"b.J.Y./.Y.Y.Y.Y.Y.Y.Y.Y.Y.Y.Y.Y.T.Y.Y.T.T.T.T.T.(.Y.T.T.T.T.T.T.T.T.T.R.T.T.T.T.T.H./ ! 3.G.T.T.T.T.Y.Y.Y.Y.T.T.T.T.Y.T.Y.T.Y.Y.",
"I.Y.Y.(.(.Y.).Y.Y.Y.Y.T.T.T.Y.T.(.Y.T.T.T.T.T.T.T.T.T.T.T.T.T.T.T.Y.T.Y.Y.Y.T.T.P.K.*.3.G.Y.T.Y.Y.Y.Y.P.G.U.Y.T.Y.).T.T.).Y.).Y.",
"J.Y.Y.Y.Y.).Y.T.T.T.).T.T.T.T.T.T.T.T.T.T.T.T.T.T.T.T.T.T.T.Y.T.Y.T.Y.T.Y.T.P.R.T.P.J.U.U.T.Y.T.Y.Y.K.p.*.x.Y.Y.Y.Y.Y.).Y.).Y.Y.",
"I.Y.(.Y.R.T.T.T.Y.T.T.T.T.Y.Y.(.Y.T.Y.).Y.).Y.Y.T.T.T.T.T.T.T.Y.T.T.T.T.T.R.T.R.R.R.W.W.W.W.W.W.R.Y.s.H T 6.(.(.Y.Y.T.T.T.T.T.Y.",
"A.Y.Y.T.T.T.T.T.(.Y.T.Y.P.P.D.Y.Y.T.).Y.R.Y.Y.U.I.I.T.T.T.T.T.P.L.U.T.R.R.).).R.T.T.(.W. XW.+XW.W.m.H q l !.(.).T.T.T.T.T.T.(.Y.",
"J.Y.Y.T.T.T.T.T.(.Y.(.P.b.%.O.x.Y.(.Y.Y.Y.Y.J.p.o.,.F.Y.Y.T.U.g.%.-.B.U.T.T.T.P.a.=.B.Y.W.W.W.W.M.P q * j 5.G.U.Y.(.Y.T.T.T.Y.Y.",
"J.Y.(.Y.T.).Y.Y.Y.P.M.t.H c r Q V.Y.(.Y.Y.H.r.C 8 i  .F.Y.Y.L.r.v t T 1.I.Y.P.u.A d f 3.P.W.U.N.) q # . - d E X.C.Y.T.T.R.T.(.Y.",
"J.Y.Y.T.T.T.Y.Y.b.t.L K b $ . < ] F.U.Y.H.u.K 6 X O u <.U.P.g.J 5 o 3 ..F.Y.d.G & X = x 3.U.P.w.N & . . . X ; a 5./.T.T.Y.T.T.Y.",
"D.Y.T.T.T.T.P.M.U v 7 T S 9 X O 2 [ F.T.J.a.%.A 4 X @ z V.L.a.L Z 7 g 1.U.P.d.N % . + k 8.G.P.N.K 5 X O < f D X.C.Y.Y.T.R.T.T.Y.",
"J.Y.T.T.T.T.P.h.N $ * W j.J 5 X + u ,.G.T.P.L.a.A & . 1 ..Z.i.-.p.@.o.S.Y.Y.H.P 4 . : _ B.Y.Y.P.s.N $ @ j 5.D.I.Y./.T.T.T.T.T.Y.",
"J.Y.T.T.T.T.P.s.N X @ W C.g.J 5 o : _ C.U.T.T.P.e.M X + a +.=.C.U.I.I.Y.Y.Y.P.9.0 . 1 ..F.Y.W.W.h.B $ @ k V.T.T.T.T.T.T.T.T.T.Y.",
"I.Y.T.Y.T.T.P.s.N # = _ C.P.h.A 7 i [ S.Y.(.T.Y.K.U 9 . > z 1.I.(.Y.T.T.Y.Y.K.9.0 X 1  .G.T.T.W.h.B $ @ k V.Y.(.T.T.Y.T.T.T.T.T.",
"J.T.Y.T.T.P.P.d.n X = _ B.J.f.#.! 4.F.Y.).).R.R.P.d.V # O u <.U.).Y.T.T.T.T.Y.0.0 X 1  .F.T.Y.Y.h.B $ @ k V.Y.Y.T.T.(.Y.T.T.T.Y.",
"D.T.T.Y.T.T.T.h.N # o _ 3.i.#.*.S.U.(.).).).{.).W.P.q.9 . , | U.(.(.Y.T.T.Y.P.9.0 X 1  .G.T.T.Y.h.B $ @ k V.(.Y.Y.(.Y.Y.Y.(.T.Y.",
"J.U.T.T.T.T.T.s.n # @ a ! o.l.S./.(.Y.(.R.R.Y.T.T.Y.d.N o + k 8.Y.Y.Y.Y.T.Y.Y.0.0 X 1  .G.T.T.T.h.B $ @ k 8.U./.Y.Y.Y.U.Y.P.U.Y.",
"J.T.T.T.T.Y.P.s.n # + u [ l.G.Y.Y.Y.Y.Y.T.Y.Y.Y.P.T.H.J 4 . 2 | G.Y.Y.Y.Y.Y.P.9.0 . 1  .D.T.T.T.h.B $ @ j 6.I.J.I.D.D.b.n.n.b.S.",
"D.Y.Y.T.T.T.P.s.n X @ k 6.U.Y.Y.Y.Y.Y.Y.T.T.Y.Y.R.P.M.I e X + j V.Y.Y.).T.T.P.0.0 X 1  .D.T.T.T.g.B $ o j 6.D.D.n.n.v.v.v.v.v.v.",
"J.Y.T.T.T.T.P.s.n X o _ C.T.T.T.(.Y.T.).T.).(.(.T.P.f.$.F 4 . <  .G.(.Y.).Y.P.0.0 X 1 [ G.T.(.T.h.B $ @ j 8.Y.I.P.I.I.D.b.n.n.b.",
"J.T.T.T.T.T.P.u.b X * _ C.T.T.T.Y.U.Y.Y.T.P.P.U.Y.N.i.i.u.N X + g 5.U.Y.Y.).P.0.0 . 1 [ F.U.T.P.f.B $ @ j V.Y.Y.(.Y./.Y.Y.Y.I.I.",
"J.Y.Y.Y.T.T.H.( 4 . o x V.U.Y.Y.K.z.n.Y.P.b.%.&.i.i.i.B.H.U 4 . : W B.U.U.(.U.0.0 X : ` 2.B.G.J.e.c X + k 8.U.Y.U.T.Y.T.T.T.Y.Y.",
"Z.U.Y.Y.U.P.h.J & . o p { 2.S.Z.i.&.l.I.P.t.M r s ' 3.G.P.d.N X O , Q *.C.U.P.w.e X + u E +.S.N.J 6 . O 2 O.B.b.F.T.T.T.T.T.T.Y.",
"b.S.A.J.D.A.f.I C d ; o ; a E +.&.=.S.Y.K.Y 5 . - W 8.T.T.K.q.6 . . 2 Q x.U.P.d.N # O < R 3.J.H.y.b & X + p ' =.C.Y.T.T.T.T.T.T.",
"v.v.v.v.v.Z.A.v.Z.u.) Z 8 r s [ B.I.P.Y.K.r.S 7 i [ G.T.P.Y.g.J 6 - l 1.G.P.T.K.U y t E 6.G.T.Y.J.t.G q ; i ] 5.G.T.T.T.T.T.T.Y.",
"v.v.Z.A.D.D.J.U.P.L.D.a./ @.2.S.U.T.T.T.Y.J.h.$.o.l.T.T.T.Y.P.g.) { 6.G.(.`.T.W.M.*.2.S./.W.{.R.T.Y.M.%.^ ;.S.U.Y.T.T.T.T.T.T.T.",
"n.J.I.P.U.T.Y.Y.T.T.Y.Y.U.I.U.T.T.T.T.T.T.T.Y.Y.J.U.T.T.T.Y.T.Y.J.D.U.T.(.`.`.].{.).(.'. X|.[.[.{.W._.P.J.I.Y.Y.T.T.T.T.T.T.T.Y.",
"J.Y.Y.Y.T.T.T.T.T.T.P.T.Y.Y.Y.T.T.T.T.T.T.T.T.Y.T.Y.T.T.T.T.T.Y.T.T.Y.T.T.Y.T.T.R.R.W.{.'.{.{.{.{.T.T.T./.Y.Y.Y.T.T.T.T.T.T.T.Y.",
"J.Y.T.T.T.T.T.T.T.T.T.T.T.T.T.T.T.T.T.T.T.T.T.T.T.T.T.T.T.T.T.T.T.T.Y.T.Y.T.T.T.T.Y.T.Y.T.T.T.T.T.T.T.T.Y.(.Y.).T.(.T.T.T.T.T.Y.",
"J.Y.Y.(.Y.R.T.T.Y.R.Y.T.T.T.T.T.T.T.T.T.T.T.Y.T.Y.).Y.).Y.R.(.Y.T.T.T.T.T.T.Y.Y.Y.T.Y.T.Y.Y.T.Y.T.Y.T.Y.Y.T.R.Y.T.T.T.T.T.T.T.Y.",
"D.Y.Y.(.R.Y.T.T.(.Y.R.T.T.T.(.Y.T.T.T.T.T.T.T.T.Y.(.).Y.).Y.Y.Y.T.T.T.T.T.Y.).T.).Y.T.T.(.Y.Y.T.T.T.T.Y.R.T.T.(.T.T.T.T.T.T.T.Y.",
"J.Y.Y.Y.Y.Y.Y.Y.Y.Y.Y.(.Y.Y.Y.Y.Y.T.T.Y.Y.T.Y.T.Y.Y.Y.Y.Y.(.Y.(.(.Y.T.T.(.Y.Y.Y.Y.Y.Y.T.Y.Y.Y.Y.Y.Y.Y.Y.Y.Y./.Y.Y.T.T.T.T.P.T.T.",
"D.P.Y.Y.Y.Y.Y.Y.Y.Y.Y./.Y.Y.Y.Y.Y.U.Y.Y.Y.U.Y.Y.Y.Y.Y.P.Y.Y.Y.Y.Y.Y.U.Y.Y.Y.Y./.Y.Y.Y.Y.Y.Y.Y./.Y.Y.Y.Y.Y.Y.Y.Y.U.T.U.Y.T.Y.U.Y.",
"S.D.D.I.D.D.J.D.D.I.D.I.I.D.I.D.I.D.D.I.D.D.J.D.I.D.J.n.J.J.D.D.D.D.J.D.I.D.I.I.D.I.D.J.D.I.D.I.D.J.D.I.D.I.D.I.I.D.I.D.D.D.G.J.",
"oXoX+X+X+X+X+X+X+X+X+X+X+X+X+X+X+X+X+X+X+X+X+X+X+X+XXX~.n.n.v.v.v.v.v.v.z.~.OX+XoXoX+X+X+X+X+X+X+X+X+X+X+X+X+X+X+X+X+X+X+X+X+X+X",
"                                                  >X;XXXI.D.v.v.v.v.v.z.j.^.:X                                                  ",
"                                                    ,X&XY.J.v.v.v.v.v.k.c.@X                                                    ",
"                                                      ;XY.D.v.v.v.n.n.z.x.-X                                                    ",
"                                                      &XY.J.v.v.n.v.n.k.x.-X                                                    ",
"                                                      %XU.n.z.v.z.v.v.k.x.-X                                                    ",
"                                                      %XY.v.k.v.v.z.k.c.x.-X                                                    ",
"                                                      %XY.v.j.z.v.z.i.j.c.-X                                                    ",
"                                                      %XU.v.j.k.v.k.i.i.x.-X                                                    ",
"                                                      %XU.v.i.j.v.z.*.*.c.-X                                                    ",
"                                                      %XU.v.*.j.z.c.i./ 7.=X                                                    ",
"                                                      &XI.z.*.i.k.j.i./ 4.=X                                                    ",
"                                                      $XD.n.*.*.j.j.*.>.4.*X                                                    ",
"                                                      $Xn.z.*.*.i.i./ / 4.*X                                                    ",
"                                                      #Xn.k.*.*.i.*.4.&.;.*X                                                    ",
"                                                      #Xv.j.*.*.&.*.&.&.;.*X                                                    ",
"                                                      #Xz.j.*.*.*.*.*.&.;.*X                                                    ",
"                                                      #Xz.j.*.*.*.*.*.&.;.*X                                                    ",
"                                                      #Xv.j.*.*.*.&.*.;.;.*X                                                    "
};
