/* XPM */
static char *result[] = {
/* columns rows colors chars-per-pixel */
"64 64 197 2 ",
"   c #000004",
".  c #000009",
"X  c #19000F",
"o  c #000114",
"O  c #00001D",
"+  c #0C0B16",
"@  c #160A15",
"#  c #17071A",
"$  c #00111A",
"%  c #0E121C",
"&  c #14101B",
"*  c #1D111B",
"=  c #251F0B",
"-  c #230D1C",
";  c #29071B",
":  c #3D0F1C",
">  c #2A1515",
",  c #26111C",
"<  c #29121D",
"1  c #231516",
"2  c #331616",
"3  c #361B16",
"4  c #391F17",
"5  c #33121D",
"6  c #39111E",
"7  c #321A1D",
"8  c #391F18",
"9  c #28200B",
"0  c #3E2217",
"q  c #3E2219",
"w  c #3F291D",
"e  c #000024",
"r  c #0D0025",
"t  c #130023",
"y  c #1C0224",
"u  c #250325",
"i  c #2A0D24",
"p  c #260D24",
"a  c #320B24",
"s  c #2D1423",
"d  c #341725",
"f  c #361925",
"g  c #3B1D25",
"h  c #3A1825",
"j  c #3E2127",
"k  c #4A0C1C",
"l  c #5C0419",
"z  c #57071A",
"x  c #46141E",
"c  c #65071A",
"v  c #6B061B",
"b  c #6B091C",
"n  c #660B1D",
"m  c #72071D",
"M  c #78071E",
"N  c #422517",
"B  c #432518",
"V  c #452B1C",
"C  c #4A2B1A",
"Z  c #462A17",
"A  c #512E1A",
"S  c #4C3519",
"D  c #4F3919",
"F  c #4B3717",
"G  c #51321D",
"H  c #523B19",
"J  c #5B3B1A",
"K  c #58371E",
"L  c #663A1B",
"P  c #4E1A26",
"I  c #5D1022",
"U  c #7E0F27",
"Y  c #601022",
"T  c #432326",
"R  c #4E2926",
"E  c #442A2B",
"W  c #442B20",
"Q  c #583728",
"!  c #4D2C35",
"~  c #4F313A",
"^  c #502E26",
"/  c #613F29",
"(  c #65431D",
")  c #6B451D",
"_  c #6B491D",
"`  c #66481D",
"'  c #74431D",
"]  c #754E1F",
"[  c #7B551B",
"{  c #694524",
"}  c #6A4627",
"|  c #754226",
" . c #724A24",
".. c #7D4525",
"X. c #785120",
"o. c #6C4631",
"O. c #754E34",
"+. c #7F5536",
"@. c #990005",
"#. c #B10000",
"$. c #B5090D",
"%. c #840521",
"&. c #8D0723",
"*. c #890C25",
"=. c #9C0B2A",
"-. c #950B27",
";. c #8D1423",
":. c #951722",
">. c #A40C2C",
",. c #AE0D2E",
"<. c #A9072F",
"1. c #B20D2F",
"2. c #A7152C",
"3. c #B50D30",
"4. c #BA0D31",
"5. c #B10631",
"6. c #B81C35",
"7. c #A41B33",
"8. c #FB1818",
"9. c #C71C32",
"0. c #CD262F",
"q. c #C0262D",
"w. c #D42234",
"e. c #CE2032",
"r. c #F33636",
"t. c #FF3A3A",
"y. c #FB3838",
"u. c #82491A",
"i. c #8A4E1C",
"p. c #81581A",
"a. c #895B1B",
"s. c #A55D1E",
"d. c #844D24",
"f. c #855B22",
"g. c #895E23",
"h. c #84582E",
"j. c #915523",
"k. c #935629",
"l. c #9A5B29",
"z. c #975929",
"x. c #815737",
"c. c #A65F27",
"v. c #8D6223",
"b. c #926524",
"n. c #976735",
"m. c #976837",
"M. c #8F6537",
"N. c #AE6425",
"B. c #AC6629",
"V. c #AB6626",
"C. c #B26828",
"Z. c #BB7129",
"A. c #A06D38",
"S. c #C4762B",
"D. c #CC7B2B",
"F. c #C97829",
"G. c #D47B24",
"H. c #DB7E23",
"J. c #D17E2C",
"K. c #B37E43",
"L. c #AC7843",
"P. c #CD6F75",
"I. c #BF853E",
"U. c #DE8228",
"Y. c #D88029",
"T. c #C1873F",
"R. c #E48324",
"E. c #EA8624",
"W. c #ED8824",
"Q. c #F08A25",
"!. c #BA8345",
"~. c #C68C43",
"^. c #C88E44",
"/. c #CD9248",
"(. c #D2944D",
"). c #D9984F",
"_. c #DD9C51",
"`. c #E09E52",
"'. c #EFA856",
"]. c #E4A051",
"[. c #F1AA57",
"{. c #F5AC59",
"}. c #F8AF59",
"|. c #FEB45C",
" X c #FFB95F",
".X c #FFBC61",
"XX c #FFC062",
"oX c #DA7F86",
"OX c #DE858C",
"+X c #FA9898",
"@X c #E1848B",
"#X c #DBA1A2",
"$X c #F9B8B9",
"%X c #EEA8A9",
"&X c #FFC2C2",
"*X c #FFC9C9",
"=X c None",
/* pixels */
"=X=X=X=X=X=X=X=X=X=X=X=X=X=X=X=X=X=X=X=X=X=X=X=X=X=X=X=X=X=X=X=X=X=X=X=X=X=X=X=X=X=X=X=X=X=X=X=X=X=X=X=X=X=X=X=X=X=X=X=X=X=X=X=X",
"=X=X=X=X=X=X=X=X=X0 B N N N N N N N N N N N N N N N V q =X=X=X=X=X=X=X=X0 Z N N N x N N N N N N N N N N N B 0 =X=X=X=X=X=X=X=X=X",
"=X=X=X=X=X=X=X=X=X=XN q q N N N 0 N x B N N N N q N N =X=X=X=X=X=X=X=X=X=XN q N N B B B N N N 0 N N q N N N =X=X=X=X=X=X=X=X=X=X",
"=X=X=X=X=X=X=X=X=X=XN 0 4 8 8 8 3 0 0 4 8 8 8 4 4 8 N =X=X=X=X=X=X=X=X=X=XN 0 8 8 4 4 4 q 3 3 q 3 8 q 8 0 B =X=X=X=X=X=X=X=X=X=X",
"=X=X=X=X=X=X=X=X=X=XZ N B N Z Z Z Z C B Z C B N B N Z N =X=X=X=X=X=X=X=XN Z N N V B Z B B Z Z Z C Z N N N Z =X=X=X=X=X=X=X=X=X=X",
"=X=X=X=X=X0 q N 2 ( g.f.f.g.G.H.G.H.F.Z.Z.Z.Z.g.f.f.g.) 2 N 0 0 0 q N 2 ) f.f.f.g.Z.S.Z.S.F.H.G.G.G.v.[ f.f.` 2 N 0 q =X=X=X=X=X",
"=X=X=X=X=X0 N N 2 _ b.v.g.b.H.W.E.E.U.D.D.D.F.b.v.v.v._ 2 B N N q N N 3  .b.g.v.b.S.D.J.F.H.E.E.E.R.b.v.v.b.{ 2 N N 0 =X=X=X=X=X",
"=X=X=X=X=XN N N 2 _ b.v.z.b.H.R.R.R.G.S.S.D.S.b.g.g.v.) 2 N q 0 0 0 N 2 ` v.g.f.b.S.S.S.S.G.R.R.R.H.b.z.v.b._ 2 N N N =X=X=X=X=X",
"=X=X=X=X=X2 3 2 ; ( p.p.[ a.R.Q.W.W.U.D.D.J.D.b.v.v.b._ 2 0 0 0 0 q 0 2 _ b.v.v.b.D.Y.Y.D.U.W.W.Q.R.p.[ p.p.J ; 2 3 2 =X=X=X=X=X",
"=X=X=X=X=X( ( { J b.~.T.T.I.C.N.N.C.B.z.l.l.l. .}  .X.J Z C Z Z Z Z C N J  . . . .l.z.k.z.B.C.N.N.N.I.~.T.^.b.J ( ) ( =X=X=X=X=X",
"=XB q q C g.b.b.[ /. X|. X|.E e e e e e e e e u u p y j H D H H H H D H j y u u u e e e e e e e e E |. X|..X/.p.b.v.v.C N N V =X",
"=XN 0 0 N g.v.v.[ ^. X|.|.{.Q i j P g g g g g g f f d w H D S H D D F H W f g f f g j j P g g E a Q [.|.|. X^.u.v.v.f.B 8 q N =X",
"=XB N q N f.v.v.[ ^..X|.|.{.Q y j d d d d d d d f d d V H F H S D D D H V s d d d d d d d d d g y Q {.|.}..X^.[ b.g.f.B 8 N N =X",
"=XN q 8 Z g.v.v.p.~.|.}.|.'.Q y g d d d d d d d d f d j H F F H D D F H W d f d d d d d d d d g y Q [.|.}..X~.p.b.v.g.B 4 N N =X",
"=XN N 2 C ].[.'.{.K.R } } / s - s , , < < < < d d d d f f g g g j j 7 f f d d d d d d d d d d f d h / o.o.Q K.{.'.{.].S 3 N B =X",
"=XN N 4 G {. X|..X!.  # O o , < , , , , , 1 , d d d d d d d d d s d d d d d d d d d d f d d d d d d y r i O K..X|..X{.G 2 N N =X",
"=XN N 2 G '.|.}. X!.o j 7 7 , , , , < , , , < d d d d d d d d d d d d d d f d d d f d d f d d d d d g g E O !..X}.|.[.C 4 N N =X",
"=XN N 2 G |. X|.XX!.. 7 - 1 , , < , , , , , < d d d h d d f d d d d f d d d d d d d d d d d d d d d d d j o !..X.X.X}.^ 2 N N =X",
"=XN N 4 S !./.^.(.M.o 2 , , , , , , < , , , , s 7 s s d d d d d d d d d d d d d d d f d d d d f d d d d j e M.(.^./.!.C 4 N N =X",
"=XN q q q 9 9 9 9 > , , , , , , , , , , , , , , , , , s d d d f d f d f d d d s d d d d d d d d f d d d f f 7 9 = = = N q q N =X",
"=XN q 0 q H H H H V * , < , , , < , , , , , , < , , , s f d d d f d f d f j d j h d d f d f d d d d d f f d W J H H H 0 0 0 N =X",
"=XN 0 0 q S H H H w - , , , , , , , , < , , , , , , , s d d d d d d d d f s s d d d d d d d d d d d d d f i V H H H S 0 0 0 N =X",
"=XN 0 0 q D H D H w - , , , , , , , , , , , , , * , * s f d f f d s s f s u ; u i d d d d d d d d f d d f a E H H H S N q q N =X",
"=XB 0 0 q D D D H V s d d d < , < , , , , , 5 =.>.>.2.*.z n l b =.7.7.@.P.%X%X%X#X! i f d d f d d d d d f d W S D H S N 0 q B =X",
"=XB q q 0 S D D D V d f d d , , , , , < < * 6 ,.4.3.4.-.c v c m 3.4.6.#.@X*X&X&X$X~ u f f d d d d d d d f s V H D D S q 0 0 B =X",
"=XB 0 q q S H H H V s f d d < , , , , , < - 6 ,.3.1.4.-.c v c m ,.3.6.@.oX&X$X$X%X! - f d d d f d f d d f s V H D H F 0 0 0 B =X",
"=XN 0 0 0 F F F F j d d d d < , , , , , , 1 6 >.5.<.5.&.l v c v 1.4.6.#.OX*X&X*X$X~ p f f d d d d d d d d d w F S F F 0 q 0 B =X",
"=XN 0 0 q ( ` ( _ Q i f d d < , , , < , < * 6 9.w.w.w.2.v M M M =.=.7.@.P.+X+X+X+X! p f d d d d d d f d f i Q _ { ` ( 0 0 q N =X",
"=XN N 4 B g.v.v.b.{ u f f d < , , , , < < & x r.t.t.t.0.%.&.&.&.c c c k 4.8.8.8.8.T s f d d d d f d d d f u { b.v.v.g.Z 0 0 N =X",
"=XB 0 0 N f.v.g.b.{ p f d d < , < , , , < & x r.y.y.t.0.%.&.&.&.v c v z q.t.t.t.r.P p f d d f d d d d d g u { v.f.v.f.N 0 0 N =X",
"=XB q 8 Z f.v.g.b.{ u f d d , , , , , , < & x r.t.y.t.0.%.&.&.&.v c v z q.t.t.t.r.P s h d d d d d d f d f u { b.v.v.f.N q q N =X",
"=XB q q B g.v.g.v.` u f d d , , , , , , 5 & x r.y.y.t.0.%.&.&.&.v c c z q.t.t.t.r.P s d d f d d f d d d f u { v.f.v.g.N 0 q B =X",
"=XN N 0 B f.v.v.v.{ u f d d , , < , , , , * 6 6.9.9.9.,.&.&.&.&.&.%.&.%.&.:.:.:.;.h f d d d d d d d f d h u { b.g.v.f.B q 0 N =X",
"=XN 0 4 B f.v.g.b.{ u f d d < , , , , , , , 6 >.5.1.5.=.&.&.&.&.&.&.&.&.M l l l l d d f d d f d d d d d d u { v.g.v.f.Z q 0 N =X",
"=XN q 4 Z f.g.g.v.{ d g g g < , < < , , < , 6 ,.1.1.1.>.&.&.&.&.&.&.&.&.M v v v b f d d d d d d d d g g g d } v.g.v.f.B 8 8 N =X",
"=XV N 0 C g.b.v.b.{ e t e r , , - < , , , * 6 1.4.4.4.>.%.&.&.&.&.&.&.-.%.v v v n f d d f d d d d d r e t e { b.v.b.f.Z B N V =X",
"=Xq 0 0 Z ] X.X.[  .| | | | f p < < < , < , 5 *.-.-.-.-.-.=.=.-.%.%.%.%.v z z z z f d d f d d d d g | | | |  .[  .[  .N 4 N N =X",
"=X=X=X=X=X2 4 8 o j.J.F.D.S.R p g h d , , , , $ $ & $ U 4.3.4.1.b c c v k & 1 1 * d f d d d d h i R S.D.D.Y.j.o N 3 4 =X=X=X=X=X",
"=X=X=X=X=XN 0 Z @ k.D.F.D.S.R p g d < , , , , < , 5 $ *.4.1.3.,.m c b b k * < < , d d d d d f g p R S.D.S.D.h.@ N N N =X=X=X=X=X",
"=X=X=X=X=X0 0 Z @ k.D.F.D.Z.R s g d d , , , , , , 7 $ U 4.1.3.,.m c b m k * < , s d d d d f f g i R Z.D.S.Y.k.@ N N 0 =X=X=X=X=X",
"=X=X=X=X=X0 N B @ j.J.D.D.S.T e p u p , , , , , , 5 $ *.3.3.3.3.m c c v k * < , s d d d f s y p e P S.D.D.J.j.@ Z B N =X=X=X=X=X",
"=X=X=X=X=X=X=X=X=XL ' ' ) ' B.C.C.C.d.e f d s , , < * x I I I I x : : x 5 , , , , d d g r ..Z.B.C.B.' ) ' ' L =X=X=X=X=X=X=X=X=X",
"=X=X=X=X=X=X=X=X=X=X> > # 0 S.J.D.Y.k.e g d f , , , , * $ $ $ $ * 1 * * , , , , , d d g e l.Y.D.D.S.0 @ > < =X=X=X=X=X=X=X=X=X=X",
"=X=X=X=X=X=X=X=X=X=XC B 0 A Z.F.S.D.k.r T g g , , , , < < 5 < 5 < < , , < , < , , g h T r k.D.S.D.Z.A 0 Z Z =X=X=X=X=X=X=X=X=X=X",
"=X=X=X=X=X=X=X=X=XN B N 8 S S.Y.D.Y.z.r y e e , , , , , , , , , - , , < , , , , , e e y e k.Y.D.Y.Z.S 8 N B N =X=X=X=X=X=X=X=X=X",
"=X=X=X=X=X=X=X=X=X=XN N 2 Z V.C.B.C.k.L ....| 7 < s < < , , , , , , , , , , < - 2 | ..d.| k.C.N.C.V.C 3 N 0 =X=X=X=X=X=X=X=X=X=X",
"=X=X=X=X=X=X=X=X=X=X=X=X=X=X> , 2 o s.Q.E.E.H.R p f d s , , , < , , , , , , < # V H.Q.R.Q.s.o 2 > > =X=X=X=X=X=X=X=X=X=X=X=X=X=X",
"=X=X=X=X=X=X=X=X=X=X=X=X=X=XN N C + s.W.R.E.H.R s h h s , , , , , , < , < < 2 # T H.R.R.W.s.+ Z N B =X=X=X=X=X=X=X=X=X=X=X=X=X=X",
"=X=X=X=X=X=X=X=X=X=X=X=X=X=X0 N N o s.W.R.W.H.R d g j d 1 - < , , , , , < 7 7 , C H.E.R.W.s.o N q 0 =X=X=X=X=X=X=X=X=X=X=X=X=X=X",
"=X=X=X=X=X=X=X=X=X=X=X=X=X=X8 N C o s.Q.R.W.H.a O e e # < , , , , , , < O o o o ; H.W.R.Q.N.o B N q =X=X=X=X=X=X=X=X=X=X=X=X=X=X",
"=X=X=X=X=X=X=X=X=X=X=X=X=X=X=X=X=X=X' i.u.u.d.(.).)._.m.O g s d d s g O m.`.)._./.d.u.u.i.' =X=X=X=X=X=X=X=X=X=X=X=X=X=X=X=X=X=X",
"=X=X=X=X=X=X=X=X=X=X=X=X=X=X=X=X=X=X=X@ 1 o V |..X.XXXK.O T d d d f j O !..X|..X}.V . * * =X=X=X=X=X=X=X=X=X=X=X=X=X=X=X=X=X=X=X",
"=X=X=X=X=X=X=X=X=X=X=X=X=X=X=X=X=X=X=XC Z 4 K '.|.}.|.K.e E j j j j E O K..X{.|.{.K 4 Z C =X=X=X=X=X=X=X=X=X=X=X=X=X=X=X=X=X=X=X",
"=X=X=X=X=X=X=X=X=X=X=X=X=X=X=X=X=X=X0 B N 3 Q |..X|..XK.o # O e O e # o !.XX|..X}.Q 3 B B 0 =X=X=X=X=X=X=X=X=X=X=X=X=X=X=X=X=X=X",
"=X=X=X=X=X=X=X=X=X=X=X=X=X=X=X=X=X=X=XN N 3 G (._.).`.L.O.x.+.+.+.x.x.O.K.].)._.(.K 2 N 0 =X=X=X=X=X=X=X=X=X=X=X=X=X=X=X=X=X=X=X",
"=X=X=X=X=X=X=X=X=X=X=X=X=X=X=X=X=X=X=X=X=X=X=XX X >   K..X|.|.|.|.|.}..XA.  2 X X =X=X=X=X=X=X=X=X=X=X=X=X=X=X=X=X=X=X=X=X=X=X=X",
"=X=X=X=X=X=X=X=X=X=X=X=X=X=X=X=X=X=X=X=X=X=X=XN N G   !. X|.|.|.|.|.|..XK.  C N N =X=X=X=X=X=X=X=X=X=X=X=X=X=X=X=X=X=X=X=X=X=X=X",
"=X=X=X=X=X=X=X=X=X=X=X=X=X=X=X=X=X=X=X=X=X=X=XN N G   A.|.|.|.|.}.|.}..XK.  C B N =X=X=X=X=X=X=X=X=X=X=X=X=X=X=X=X=X=X=X=X=X=X=X",
"=X=X=X=X=X=X=X=X=X=X=X=X=X=X=X=X=X=X=X=X=X=X=Xq N C   !. X X|. X.X|.|..X!.  S B 0 =X=X=X=X=X=X=X=X=X=X=X=X=X=X=X=X=X=X=X=X=X=X=X",
"=X=X=X=X=X=X=X=X=X=X=X=X=X=X=X=X=X=X=X=X=X=X=X=X=X=X=Xh.A.n.m.m.n.n.n.A.h.=X=X=X=X=X=X=X=X=X=X=X=X=X=X=X=X=X=X=X=X=X=X=X=X=X=X=X",
"=X=X=X=X=X=X=X=X=X=X=X=X=X=X=X=X=X=X=X=X=X=X=X=X=X=X=X=X. . . . . . . . =X=X=X=X=X=X=X=X=X=X=X=X=X=X=X=X=X=X=X=X=X=X=X=X=X=X=X=X",
"=X=X=X=X=X=X=X=X=X=X=X=X=X=X=X=X=X=X=X=X=X=X=X=X=X=X=XC C C C C C C C C C =X=X=X=X=X=X=X=X=X=X=X=X=X=X=X=X=X=X=X=X=X=X=X=X=X=X=X",
"=X=X=X=X=X=X=X=X=X=X=X=X=X=X=X=X=X=X=X=X=X=X=X=X=X=X=X0 N 4 0 q N q 0 N 0 =X=X=X=X=X=X=X=X=X=X=X=X=X=X=X=X=X=X=X=X=X=X=X=X=X=X=X",
"=X=X=X=X=X=X=X=X=X=X=X=X=X=X=X=X=X=X=X=X=X=X=X=X=X=X=X=X0 0 N 0 N q 0 0 =X=X=X=X=X=X=X=X=X=X=X=X=X=X=X=X=X=X=X=X=X=X=X=X=X=X=X=X"
};
