/* XPM */
static char *result[] = {
/* columns rows colors chars-per-pixel */
"64 64 225 2 ",
"   c #000005",
".  c #000009",
"X  c #0B000C",
"o  c #1B000E",
"O  c #000014",
"+  c #00001C",
"@  c #0B0618",
"#  c #1A0D15",
"$  c #190215",
"%  c #1B111C",
"&  c #1A1017",
"*  c #251F0B",
"=  c #281F0C",
"-  c #230311",
";  c #240D1C",
":  c #2C0814",
">  c #2B1415",
",  c #2E1816",
"<  c #25111C",
"1  c #2B131C",
"2  c #2E1B1B",
"3  c #261416",
"4  c #321615",
"5  c #361B16",
"6  c #3A1F17",
"7  c #391C18",
"8  c #33191D",
"9  c #36001F",
"0  c #3E2217",
"q  c #3F2218",
"w  c #27200A",
"e  c #000024",
"r  c #0C0023",
"t  c #1C0324",
"y  c #150225",
"u  c #250325",
"i  c #2C0E25",
"p  c #280524",
"a  c #350023",
"s  c #2D1625",
"d  c #2D1826",
"f  c #241725",
"g  c #331625",
"h  c #3A1624",
"j  c #351925",
"k  c #3A1C25",
"l  c #3E1F28",
"z  c #3E2225",
"x  c #540001",
"c  c #5B0000",
"v  c #4A0D1C",
"b  c #460D1D",
"n  c #540219",
"m  c #5A021B",
"M  c #5C0C1D",
"N  c #540419",
"B  c #5E101F",
"V  c #64061A",
"C  c #6A071B",
"Z  c #64091C",
"A  c #6B091C",
"S  c #660010",
"D  c #75071E",
"F  c #79061E",
"G  c #740B1D",
"H  c #790A1F",
"J  c #600000",
"K  c #412517",
"L  c #422518",
"P  c #462A18",
"I  c #4A2A19",
"U  c #432A17",
"Y  c #4B341A",
"T  c #4F3919",
"R  c #4A3717",
"E  c #54351B",
"W  c #513B19",
"Q  c #5D3C1B",
"!  c #5D351A",
"~  c #502C19",
"^  c #663D1C",
"/  c #793F12",
"(  c #470521",
")  c #431423",
"_  c #4C1322",
"`  c #421C24",
"'  c #4A1923",
"]  c #5A1222",
"[  c #560F20",
"{  c #670E20",
"}  c #7E0220",
"|  c #7D0A21",
" . c #6D1322",
".. c #691725",
"X. c #7B1623",
"o. c #432326",
"O. c #412820",
"+. c #492A25",
"@. c #452728",
"#. c #4E3224",
"$. c #5C3B22",
"%. c #593929",
"&. c #502023",
"*. c #613F24",
"=. c #663829",
"-. c #713B25",
";. c #6B2E21",
":. c #65431C",
">. c #69481D",
",. c #76471C",
"<. c #75521D",
"1. c #7B541B",
"2. c #6A4625",
"3. c #6E4924",
"4. c #66442A",
"5. c #754427",
"6. c #7B4425",
"7. c #734A28",
"8. c #7B5421",
"9. c #7B5423",
"0. c #7D5436",
"q. c #6E4831",
"w. c #850621",
"e. c #8C0723",
"r. c #8C0924",
"t. c #830922",
"y. c #910624",
"u. c #930925",
"i. c #9E0A29",
"p. c #980A27",
"a. c #9C1924",
"s. c #AD052F",
"d. c #A20B2B",
"f. c #AC0C2D",
"g. c #A7052D",
"h. c #B4012D",
"j. c #B20C2F",
"k. c #B61C2B",
"l. c #AE0530",
"z. c #B50D30",
"x. c #B90E31",
"c. c #B41232",
"v. c #A01A24",
"b. c #BC232B",
"n. c #D41B21",
"m. c #CB252E",
"M. c #C8272D",
"N. c #DA2634",
"B. c #D72B31",
"V. c #FE2222",
"C. c #E52E34",
"Z. c #F33436",
"A. c #FA3737",
"S. c #FD3738",
"D. c #FF3A39",
"F. c #F2353A",
"G. c #F31F26",
"H. c #854B1D",
"J. c #81581B",
"K. c #98611D",
"L. c #855C22",
"P. c #895F23",
"I. c #895425",
"U. c #9B5C29",
"Y. c #9A5B24",
"T. c #865C34",
"R. c #894E25",
"E. c #A25C26",
"W. c #8D6123",
"Q. c #916424",
"!. c #9C6529",
"~. c #956534",
"^. c #996937",
"/. c #AD6425",
"(. c #AD6A26",
"). c #A96727",
"_. c #B46C29",
"`. c #B76A24",
"'. c #BD7229",
"]. c #B57125",
"[. c #A77539",
"{. c #B57B3A",
"}. c #B76F1F",
"|. c #C4762B",
" X c #CD7B2B",
".X c #C67325",
"XX c #DA7D23",
"oX c #D27E2C",
"OX c #D67B23",
"+X c #C26F21",
"@X c #863E46",
"#X c #944F55",
"$X c #A77342",
"%X c #F35F62",
"&X c #FE6D6C",
"*X c #D45356",
"=X c #BD823C",
"-X c #D6802B",
";X c #C1873F",
":X c #E38224",
">X c #EA8724",
",X c #ED8924",
"<X c #F18A25",
"1X c #BD8344",
"2X c #C48B43",
"3X c #C58A49",
"4X c #CC914A",
"5X c #DA9A4E",
"6X c #D4954A",
"7X c #DC9C51",
"8X c #E39F53",
"9X c #E9A454",
"0X c #EAA555",
"qX c #F3AB56",
"wX c #F6AE59",
"eX c #F9AF5A",
"rX c #FEB45C",
"tX c #FFB95F",
"yX c #F6B05A",
"uX c #FFBD61",
"iX c #D49497",
"pX c #F3AAAC",
"aX c #FCBABA",
"sX c #FFC3C3",
"dX c None",
/* pixels */
"dXdXdXdXdXdXdXdXdXdXdXdXdXdXdXdXdXdXdXdXdXdXdXdXdXdXdXdXdXdXdXdXdXdXdXdXdXdXdXdXdXdXdXdXdXdXdXdXdXdXdXdXdXdXdXdXdXdXdXdXdXdXdXdX",
"dXdXdXdXdXdXdXdXdXdX0 L L L L L K K L L L L K K L L L 0 dXdXdXdXdXdXdXdXdXL L L K K L L L L L L L L L L L L 0 dXdXdXdXdXdXdXdXdX",
"dXdXdXdXdXdXdXdXdXdX0 K 0 0 K L K K K K K K K 0 0 0 L 0 dXdXdXdXdXdXdXdXdX0 0 K 0 K K K K 0 K 0 K U K 0 K L 0 dXdXdXdXdXdXdXdXdX",
"dXdXdXdXdXdXdXdXdXdX0 0 0 0 6 7 5 6 6 7 7 0 7 0 0 0 0 0 dXdXdXdXdXdXdXdXdX0 7 0 0 7 7 7 7 0 5 0 7 5 7 0 7 K 0 dXdXdXdXdXdXdXdXdX",
"dXdXdXdXdXdXdXdXdXdXL L K L L I I I I L I P P P L L L K dXdXdXdXdXdXdXdXdXL U L L L P L L I I I I I U U K U K dXdXdXdXdXdXdXdXdX",
"dXdXdXdXdXdX0 0 K 0 8.L.L.9.(.XXOXXXOX'.'.'.'.!.8.L.L.9.L 0 0 0 0 0 K 5 E L.L.L.L.(.|.'.'..XOXOXOXOXQ.1.L.P.7.4 K 0 0 dXdXdXdXdX",
"dXdXdXdXdXdXL K K 0 J.Q.W.L.].<X>X>X>X X X X-X).W.W.W.L.L 0 L L L 0 K 7 E W.W.W.P.|. X X XOX>X>X>X>X).L.P.Q.,.4 L L 0 dXdXdXdXdX",
"dXdXdXdXdXdXL L K 0 L.W.Q.L.].>X:X:XXX X|.|. X).L.L.W.L.K 0 0 0 0 0 K 7 E P.P.P.L.'.|.|.|.oX:X:X:X:X!.P.Q.Q.<.5 K K K dXdXdXdXdX",
"dXdXdXdXdXdX7 5 4 4 <.J.J.<.}.,X<X<X>XoXoXoXoX(.W.Q.Q.J.0 0 0 0 0 0 0 5 E Q.W.Q.W.|.-XoX X-X<X<X,X,XK.1.1.J.:.: 5 5 5 dXdXdXdXdX",
"dXdXdXdXdXE :.:.2.:.{.2X;X2X{././././.U.U.U.U.I.2.3.7.2.U P P P P P P U Y 3.3.3.2.I.U.U.U.E././././.=X;X;X;X[.Q :.:.:.dXdXdXdXdX",
"dX0 P L 7 ^ W.W.P.W.qXuXtXtX2X+ e e e e e e e y u u t s T W T T T T T W Y u u u u e e e e e e e + e 0XuXrXuX6XJ.Q.Q.W.I q L P dX",
"dX0 0 L 5 Q W.W.P.P.0XrXyXrX3X+ +.k l k h l l k j k j z T T T T T T T W Y j h j h k k l k l l ` z h 9XrXeXtX6X1.W.W.L.P 6 0 L dX",
"dX0 L q 5 Q W.P.W.L.qXrXrXtX3X+ o.g g g g g g j g j g k T T T T T T T W R s g g j j g g g g j j d p 9XtXrXrX6X1.Q.P.L.P 6 0 L dX",
"dX0 L L 5 Q W.W.W.W.9XrXwXrX3X+ z g g g j g j j j g j 8 T T T T T T T T Y g j j g g g g j j g j g i 8XrXeXeX6XJ.Q.Q.P.P 6 K L dX",
"dX0 q P . ~.wXqXqX0XT.%.4.4.#.# 1 1 i M V Z Z Z Z Z Z M h k k 7 z z j k ) V Z Z { Z Z { V [ g j g g =.q.q.%.$XwX0XwX9XE 5 L L dX",
"dX0 L P   ^.tXrXrXrX%.O @ O @ i 1 ; 1 V C C C C C C C Z g g j g g g s d ) C C C V C C C C M d j g g t r i + $XuXrXrXeX$., L L dX",
"dX0 K P . ^.rXrXrXwX4.+ 0 s 1 1 1 < 1 V C C C C C C C V h j j j g g j g ) A C C C C C C D M g j j j h k @.e [.uXeXrXwX$.4 K K dX",
"dX0 K P . ^.uXuXtXtX4.O 2 < ; % % % ; M V V V V V V C M s d d d g d d s h m V V V M V M V v s d d d g g z + $XuXuXuXeX$.4 K K dX",
"dX0 L U - 9.4X3X4X3X#.@ 1 < 1 v b b v t.r.r.r.| D F D G _ _ v [ _ _ _ _ B r.r.r.e.r.r.r.e.| _ _ _ _ h g z e T.4X3X4X2XE 5 K K dX",
"dX0 L 0 0 0 * = w = 1 < 1 % v D C C D j.x.x.x.d.e.e.y.r.C C C C C C C V t.x.x.x.z.z.x.x.x.i.V C C C ) d j j 2 * = * = 6 0 0 L dX",
"dX0 q 0 0 P W $.W W 8 ; 1 % v C C C { f.z.z.z.i.e.e.e.w.C C C C C C C V | c.c.c.c.z.z.z.x.i.V C C C h g j g O.Q W W W L 0 0 L dX",
"dX0 U 0 6 P T T T T 8 < 1 % v C C C C f.z.z.z.i.e.e.e.r.C V C C C C C V H h.j.j.z.z.z.f.x.i.V V C V ) g g g O.W W W T 0 0 0 L dX",
"dXq U q q P T T T T 8 ; 1 % v C C V } f.z.z.z.d.r.e.e.r.A C C C C C C V F h.h.h.h.l.z.z.x.d.V { C V ) d j g o.W W T T K 0 0 L dX",
"dX0 q 0 0 U W T T T j s h f ] e.e.w.y.C.Z.Z.A.m.g.f.j.d.r.t.t.r.G V  .c #XpXpXpXpX%XG.F.Z.N.} w.r.w.' d j i L W T T T L 0 0 L dX",
"dXq L 0 6 P W T T T k g h f ..e.e.e.u.A.D.D.D.N.s.x.x.j.y.r.y.y.G V  .c #XsXsXsXsX&XV.D.D.C.w.y.y.r.' d j j z W T T T 0 0 0 U dX",
"dX0 q 0 6 P W W W T k g j f { e.r.e.u.Z.A.A.D.N.s.j.j.f.e.e.e.e.F V  .c #XaXaXaXsX&XV.A.D.B.w.r.r.r._ d j d U W W W W 0 0 0 U dX",
"dX0 U q 0 U R R R R k g h f { y.r.e.u.A.D.A.D.N.s.c.x.j.y.e.e.y.F V  .c #XsXsXsXsX&XV.D.D.C.t.e.y.y._ d j g q T Y R P 0 0 q L dX",
"dX0 L 0 7 Y >.>.:.>.z s j s ] w.t.} r.Z.D.A.D.N.s.x.j.f.r.e.e.y.F V A J #XiXiXiXiX*Xn.B.B.b.| t.t.} ) d h i #.>.2.>.>.q 0 q L dX",
"dX0 q K 5 Q W.W.W.W.+.i j d _ V C V G Z.D.S.D.N.s.c.j.j.e.e.e.e.H V C A S x x x x x [ n n m C V V C h g j u 4.Q.W.Q.P.P 0 q L dX",
"dX0 L U 5 Q W.P.W.W.+.i j d [ C C V G Z.D.D.D.N.h.j.j.j.e.e.e.y.H V C C V ........A C G A C C C { C h g j p $.W.P.P.L.P 6 0 L dX",
"dX0 L 0 5 Q W.P.L.W.+.i h d _ C C V G Z.D.S.D.N.s.c.j.f.y.e.e.y.D V C C C C A C C C C C C C C C C C ) g k u *.W.P.W.P.P 0 q L dX",
"dX0 L 0 5 Q W.W.W.L.+.s j d [ C C V G F.S.S.D.N.s.c.x.j.e.e.e.e.H V C V C C C C Z C C C C C V C C V ) d h p *.Q.P.W.L.P 6 0 L dX",
"dX0 L K 5 Q W.P.P.W.+.i h d [ C C V G Z.D.A.D.m.e.p.u.p.f.f.f.j.u.w.e.w.t.V C C C C C C C V C C C C h j j p *.W.W.W.L.I 0 0 K dX",
"dX6 L 6 5 Q W.P.W.P.+.i j g _ C C V D Z.D.A.D.m.} y.e.u.j.x.j.j.i.e.e.y.w.C C C C Z C C A C C C V C ) d h u *.W.P.W.P.P 7 0 L dX",
"dXK K K 5 Q Q.P.L.P.+.j l j _ C C V G Z.A.A.A.m.w.y.e.u.j.j.j.x.i.e.e.e.t.C C C C A C C C C Z C C C ` k k g 2.W.P.W.L.P 0 L L dX",
"dX6 P K 7 ^ Q.P.W.W.z e y e ( A A V G A.D.D.D.m.} w.w.e.j.x.j.x.p.e.e.e.t.C V C C C V C C C A A C C p e y e $.Q.W.W.W.I 0 L L dX",
"dXK 0 K 5 Q <.<.8.9.5.5.5.5.;.m B M { M.B.B.B.M.k.k.k.k.d.f.f.d.p.e.e.e.r.V C C C Z C C C Z ] [ M M -.5.5.5.7.1.8.8.8.P 7 0 0 dX",
"dXdXdXdXdXdX7 7 5 4 _. X XoXU.e k d j N m m : m.A.A.D.F.r.e.e.e.e.e.e.y.w.C C C C C C C C M s j s s '.oX XoXE.O 7 5 5 dXdXdXdXdX",
"dXdXdXdXdXdXK K 0 0 '. X|.oXU.e k j h C A G n M.D.A.D.Z.y.e.y.e.e.e.e.y.t.A C C C C C Z C M d h g g _. X|. XU.& L K L dXdXdXdXdX",
"dXdXdXdXdXdXK 0 0 7 _. X|.oXU.e l j h Z C A n M.D.A.A.Z.y.e.r.r.e.e.e.y.t.V C C C C C C C M j j h g _. X|. XY.# L 6 0 dXdXdXdXdX",
"dXdXdXdXdXdXL 0 K 0 _.oX|.oXU.e s t p C C D n M.D.A.D.Z.y.e.r.e.e.r.e.e.w.C C C Z C C C C M y u u t '.oX XoXU.# I K 0 dXdXdXdXdX",
"dXdXdXdXdXdXdXdXdXdX:.,.,.^ I._.)._.).' ) _ g X.a.a.a.a.f.f.f.f.f.f.f.f.i.V C C C _ ) ' a -._._._./.,.^ ,.,.^ dXdXdXdXdXdXdXdXdX",
"dXdXdXdXdXdXdXdXdXdX3 1 4 O R.-X XoX|.+.f j f ( m m n C j.x.j.x.z.z.z.x.f.Z C C C ) s k e 5.oX X X X! O , 3 > dXdXdXdXdXdXdXdXdX",
"dXdXdXdXdXdXdXdXdXdXL L I > H.oX|.|.'.+.g z k ] A C V | f.j.j.j.j.j.j.z.d.V C C C ' j o.u 5. X|.|.|.^ 5 I L L dXdXdXdXdXdXdXdXdX",
"dXdXdXdXdXdXdXdXdXdX0 K I # I.-X XoX|.g e r e ( C C C | z.z.z.x.x.x.x.x.f.C C C C a e t e 5.oX X X X^ 8 L I 6 dXdXdXdXdXdXdXdXdX",
"dXdXdXdXdXdXdXdXdXdX0 0 L # H._./._.E.R.6.6.H.;.m B M C d.g.d.d.d.d.d.d.u.M M M m -.6.H.5.R.(./.).).^ , L 0 dXdXdXdXdXdXdXdXdXdX",
"dXdXdXdXdXdXdXdXdXdXdXdXdXdXdX> 1 # L XX,X,X,XE.e k d h V V V V V V V V M & < < + .X<X:X<X+XO 5 > > dXdXdXdXdXdXdXdXdXdXdXdXdXdX",
"dXdXdXdXdXdXdXdXdXdXdXdXdXdXdXP L 0 ~ XXXXXX>XE.e l j ) V C C C A C V A M 3 1 5 + +X>X:X>X`.# P L K dXdXdXdXdXdXdXdXdXdXdXdXdXdX",
"dXdXdXdXdXdXdXdXdXdXdXdXdXdXdXL L 5 I XX>X:X>XE.e o.k ` C C C C C C C C M 2 8 8 @ +X,X:X>X+X@ L 0 0 dXdXdXdXdXdXdXdXdXdXdXdXdXdX",
"dXdXdXdXdXdXdXdXdXdXdXdXdXdXdXP L 6 ~ -X>X>X,XY.+ r e $ C C C C C C C A m O O O O +X,X:X<X].& L L q dXdXdXdXdXdXdXdXdXdXdXdXdXdX",
"dXdXdXdXdXdXdXdXdXdXdXdXdXdXdXdXdXdXdXH.H.H.,.{.7X5X7X3X) ) ' ) ) ) ' 9 q.5X5X5X5XU.,.H.H.,.dXdXdXdXdXdXdXdXdXdXdXdXdXdXdXdXdXdX",
"dXdXdXdXdXdXdXdXdXdXdXdXdXdXdXdXdXdXdX& # 5   ;XuXuXuXqXs s j d d g k e 0.uXrXuXtXT.. , # 3 dXdXdXdXdXdXdXdXdXdXdXdXdXdXdXdXdXdX",
"dXdXdXdXdXdXdXdXdXdXdXdXdXdXdXdXdXdXdXL P I   1XuXeXrX9Xl k o.z ` z @.u 0.yXrXrXrXT.o ~ I K dXdXdXdXdXdXdXdXdXdXdXdXdXdXdXdXdXdX",
"dXdXdXdXdXdXdXdXdXdXdXdXdXdXdXdXdXdXdX0 L I   4XuXrXuXqXe e e e + e e O q.uXuXrXuX~.. I P 0 dXdXdXdXdXdXdXdXdXdXdXdXdXdXdXdXdXdX",
"dXdXdXdXdXdXdXdXdXdXdXdXdXdXdXdXdXdXdXK K P   $X8X7X7X4X0.0.T.0.0.0.T.0.~.7X7X5X5XT.X P 0 0 dXdXdXdXdXdXdXdXdXdXdXdXdXdXdXdXdXdX",
"dXdXdXdXdXdXdXdXdXdXdXdXdXdXdXdXdXdXdXdXdXdXdXo $ -   $.wXrXrXrXrXrXrXrX7X  - o o dXdXdXdXdXdXdXdXdXdXdXdXdXdXdXdXdXdXdXdXdXdXdX",
"dXdXdXdXdXdXdXdXdXdXdXdXdXdXdXdXdXdXdXdXdXdXdXL P P 4 2.yXtXrXrXrXrXrXtX7X- P L U dXdXdXdXdXdXdXdXdXdXdXdXdXdXdXdXdXdXdXdXdXdXdX",
"dXdXdXdXdXdXdXdXdXdXdXdXdXdXdXdXdXdXdXdXdXdXdXK L P : 2.wXrXyXrXrXrXrXtX7X- P 0 L dXdXdXdXdXdXdXdXdXdXdXdXdXdXdXdXdXdXdXdXdXdXdX",
"dXdXdXdXdXdXdXdXdXdXdXdXdXdXdXdXdXdXdXdXdXdXdXK I L > 2.rXrXrXtXrXrXrXuX8X- L L L dXdXdXdXdXdXdXdXdXdXdXdXdXdXdXdXdXdXdXdXdXdXdX",
"dXdXdXdXdXdXdXdXdXdXdXdXdXdXdXdXdXdXdXdXdXdXdXdXdXdXdXdX~.^.^.^.~.^.^.^.~.dXdXdXdXdXdXdXdXdXdXdXdXdXdXdXdXdXdXdXdXdXdXdXdXdXdXdX",
"dXdXdXdXdXdXdXdXdXdXdXdXdXdXdXdXdXdXdXdXdXdXdXdXdXdXdXdX. . . . . . . . . dXdXdXdXdXdXdXdXdXdXdXdXdXdXdXdXdXdXdXdXdXdXdXdXdXdXdX",
"dXdXdXdXdXdXdXdXdXdXdXdXdXdXdXdXdXdXdXdXdXdXdXdXdXdXdXdXI I I I I I I I P dXdXdXdXdXdXdXdXdXdXdXdXdXdXdXdXdXdXdXdXdXdXdXdXdXdXdX",
"dXdXdXdXdXdXdXdXdXdXdXdXdXdXdXdXdXdXdXdXdXdXdXdXdXdXdXdX0 K K 0 L 0 0 K 0 dXdXdXdXdXdXdXdXdXdXdXdXdXdXdXdXdXdXdXdXdXdXdXdXdXdXdX",
"dXdXdXdXdXdXdXdXdXdXdXdXdXdXdXdXdXdXdXdXdXdXdXdXdXdXdXdX0 0 0 0 K 0 0 0 0 dXdXdXdXdXdXdXdXdXdXdXdXdXdXdXdXdXdXdXdXdXdXdXdXdXdXdX"
};
