/* XPM */
static char *result[] = {
/* columns rows colors chars-per-pixel */
"64 64 184 2 ",
"   c #000003",
".  c #000009",
"X  c #0C000E",
"o  c #15000E",
"O  c #18000F",
"+  c #000015",
"@  c #090A17",
"#  c #00001E",
"$  c #1C0010",
"%  c #1A0E16",
"&  c #17011A",
"*  c #1E0B1C",
"=  c #1B1116",
"-  c #21000D",
";  c #251F0B",
":  c #290C14",
">  c #230D1D",
",  c #220713",
"<  c #241316",
"1  c #2A1516",
"2  c #2D1916",
"3  c #27111C",
"4  c #2A131D",
"5  c #2C1A1B",
"6  c #321516",
"7  c #361A16",
"8  c #391E17",
"9  c #331C1E",
"0  c #391B18",
"q  c #27200A",
"w  c #2B200D",
"e  c #3E2217",
"r  c #3E2218",
"t  c #010024",
"y  c #0B0021",
"u  c #140225",
"i  c #1D0325",
"p  c #240325",
"a  c #240B24",
"s  c #2B0D25",
"d  c #310F25",
"f  c #2E1422",
"g  c #241126",
"h  c #341725",
"j  c #351925",
"k  c #3B1D25",
"l  c #3D2124",
"z  c #422517",
"x  c #422A17",
"c  c #482817",
"v  c #422518",
"b  c #452B19",
"n  c #492B1A",
"m  c #4A3717",
"M  c #47301D",
"N  c #4B3519",
"B  c #4F3919",
"V  c #54351B",
"C  c #513B19",
"Z  c #5C3B1B",
"A  c #623D1C",
"S  c #6D3E1B",
"D  c #422425",
"F  c #462828",
"G  c #452A24",
"H  c #582B24",
"J  c #4E3025",
"K  c #513024",
"L  c #5B3226",
"P  c #553820",
"I  c #5E3B2D",
"U  c #5C3F31",
"Y  c #673926",
"T  c #6B3A25",
"R  c #643726",
"E  c #703F27",
"W  c #65431D",
"Q  c #68441D",
"!  c #67481D",
"~  c #694A1D",
"^  c #73431D",
"/  c #7E461B",
"(  c #724D1E",
")  c #7C481F",
"_  c #7D4316",
"`  c #76511D",
"'  c #7B541C",
"]  c #614020",
"[  c #6D4924",
"{  c #65422C",
"}  c #68452B",
"|  c #754227",
" . c #7B4425",
".. c #744B24",
"X. c #775120",
"o. c #7B5420",
"O. c #7A522C",
"+. c #7C5822",
"@. c #6C4530",
"#. c #754E34",
"$. c #7D5336",
"%. c #834A1B",
"&. c #894D1C",
"*. c #82591C",
"=. c #885E1F",
"-. c #81571B",
";. c #94531D",
":. c #A6671E",
">. c #854C23",
",. c #8A5122",
"<. c #845B22",
"1. c #895E23",
"2. c #80562E",
"3. c #915727",
"4. c #975826",
"5. c #975F2C",
"6. c #9B5B29",
"7. c #815737",
"8. c #8B5D31",
"9. c #875C35",
"0. c #A15F29",
"q. c #8D6123",
"w. c #916424",
"e. c #9D6524",
"r. c #986729",
"t. c #8E6132",
"y. c #8F613B",
"u. c #966735",
"i. c #976835",
"p. c #9A6937",
"a. c #9C6C3A",
"s. c #94673B",
"d. c #AD6425",
"f. c #AD6B25",
"g. c #A56229",
"h. c #AC6629",
"j. c #AF682A",
"k. c #A36125",
"l. c #B06425",
"z. c #B16A27",
"x. c #B26A2A",
"c. c #B86E28",
"v. c #BD7229",
"b. c #AF7B39",
"n. c #BB7E39",
"m. c #C57122",
"M. c #CA7322",
"N. c #C5762B",
"B. c #C7782B",
"V. c #CC7B2B",
"C. c #CD7825",
"Z. c #D77B23",
"A. c #D97C24",
"S. c #D17E2C",
"D. c #AE7843",
"F. c #DF8226",
"G. c #D4802C",
"H. c #D88029",
"J. c #C1873F",
"K. c #E48324",
"L. c #EB8724",
"P. c #EE8924",
"I. c #F08A24",
"U. c #BB8446",
"Y. c #C48A42",
"T. c #CA8E49",
"R. c #C28949",
"E. c #CC914B",
"W. c #D3954D",
"Q. c #D8974F",
"!. c #D9994F",
"~. c #DB9B51",
"^. c #E19F52",
"/. c #E5A251",
"(. c #ECA755",
"). c #EFA856",
"_. c #F2AB56",
"`. c #F6AD59",
"'. c #F8AF5A",
"]. c #FEB45C",
"[. c #FFB95F",
"{. c #FFBD61",
"}. c #FFC062",
"|. c None",
/* pixels */
"|.|.|.|.|.|.|.|.|.|.|.|.|.|.|.|.|.|.|.|.|.|.|.|.|.|.|.|.|.|.|.|.|.|.|.|.|.|.|.|.|.|.|.|.|.|.|.|.|.|.|.|.|.|.|.|.|.|.|.|.|.|.|.|.",
"|.|.|.|.|.|.|.|.|.|.v v z z z v z z z z z z z r z z v r |.|.|.|.|.|.|.|.|.v z z z z z z v z z z z z z z v z r |.|.|.|.|.|.|.|.|.",
"|.|.|.|.|.|.|.|.|.|.z e r r v z r x z z v r z r e e v z |.|.|.|.|.|.|.|.|.z v r v e z z v r z r z z z r r v v |.|.|.|.|.|.|.|.|.",
"|.|.|.|.|.|.|.|.|.|.r e e 0 e 0 7 e 0 0 0 e 0 e e e r r |.|.|.|.|.|.|.|.|.r 8 r 8 8 8 0 0 e 7 e e 7 r 8 r v 8 |.|.|.|.|.|.|.|.|.",
"|.|.|.|.|.|.|.|.|.|.c z x r c n n c v c c c c z z z c x |.|.|.|.|.|.|.|.|.v c z v v c c c c c n c c x z z b v |.|.|.|.|.|.|.|.|.",
"|.|.|.|.|.e e z 6 W <.<.<.<.C.A.Z.A.C.v.v.v.v.3.<.<.1.( 7 z e e r r z 7 Z <.<.<.<.j.N.c.c.N.Z.Z.Z.A.e.+.<.1.o.8 v r r |.|.|.|.|.",
"|.|.|.|.|.e v z 7 Q w.q.q.w.F.L.K.P.F.V.V.V.V.r.q.q.w.` 7 v r v r v z 7 Z q.q.q.1.N.S.V.V.S.I.L.L.L.f.+.1.w.o.8 v r z |.|.|.|.|.",
"|.|.|.|.|.z v z 7 Q q.q.q.q.A.K.K.K.A.N.N.N.N.r.<.<.q...7 z e e e r z 7 Z q.1.1.1.c.B.B.N.V.K.A.K.K.f.q.w.w.o.8 z r z |.|.|.|.|.",
"|.|.|.|.|.7 7 7 : Z *.*.' *.K.I.P.P.K.S.S.V.S.e.q.q.w.` 6 r e e e e e 6 Z w.w.w.q.N.V.V.S.S.I.I.L.P.:.` *.*.^ 1 7 6 7 |.|.|.|.|.",
"|.|.|.|.|.W W Q Z t.J.J.J.J.z.l.j.l.0.6.6.6.6...[ [ [ ] x b b b b b b x V [ [ [ [ 3.6.6.5.0.l.l.z.d.n.Y.J.J.b.A W W Q V |.|.|.|.",
"|.v v r v 1.w.w.' J.}.].].].U # t t t t t t t p p a i l C C B B C B B C M i p p p t t t t t t t t # !.[.].[.(.=.q.q.w.A 0 z v r ",
"|.z v r z <.q.q.' J.[.].].`.@.> F l k k k k k k j k k r B B B B B B B C M h k k k k k l k k D l F # Q.[.].[./.<.q.q.q.Z 7 r z e ",
"|.z v r z <.q.q.' Y.{.].].'.@.t k h h h h h h h h j h l B B B B B B B C M h h h h h h h h h h h k t !.[.].{.^.*.q.1.q.Z 7 r z e ",
"|.v r 0 z <.q.w.' Y.].'.].`.@.t l h h h h h h h h j h l B B B B B B m B b h h h h h h h h h h j k # Q.].`.{.^.1.q.q.w.Z 7 r r e ",
"|.z z 8 n ^._._.'.U.J } { { 9 > 4 4 4 4 3 4 3 h h h h j k k k k l k k l k h h h h h h h h h h h h f I @.@.R 9._._._._.8.. c z e ",
"|.z r 8 n _.[.].[.U.  & + + > 4 3 3 > 3 3 3 3 h h h h h h h f h f h f h h h h h h h h h h h h h h h p y p # $.].{.].{.p.. c v e ",
"|.z z 8 n (.].'.}.U.+ l 4 5 3 3 3 3 3 3 3 3 3 h h h h h h h h h h h h h h h h h h h h j j h h h h h k k l y $.{.'.'.].u.. c r r ",
"|.z e 8 n `.{.].}.U.. r 3 3 3 3 3 3 3 3 3 3 3 h j h j h h h h j h h h h j h h h j h h h h h h j h h h h l t 7.{.{.{.{.p.. c r r ",
"|.z v 8 x U.E.T.W.i.+ 5 3 3 3 3 3 3 3 3 3 3 3 f f f f h j h h h h h j h h h h j h h h h h h h h h h h h l u { T.T.T.T.O., z z e ",
"|.z r r e w q q q 5 3 3 3 3 3 3 3 3 3 3 3 3 3 3 3 3 3 4 j h h h h h h h h h h h h h h j h h h h h h h h f f l q ; ; ; 8 z e r e ",
"|.z e e e C Z C ] r g 4 3 3 3 3 3 3 3 3 3 3 3 3 3 3 3 f h h h h j h h h h h j h j h h j h h h j h h h h j h l Z C Z C b 8 e v e ",
"|.z e r r B B B C r = 4 3 3 3 3 3 3 3 3 3 3 3 3 3 3 3 4 j h h h j h h h h h h h h h j j h j h h h h h h j d l B B C C c e e r e ",
"|.z e e r B C B C b > 3 3 3 3 3 3 3 3 3 3 3 3 3 3 3 3 f h h h h h h j h h h h h h j h h h h h h h h h h j d l B B B C x 8 e v 8 ",
"|.v e e r B B B B b f h h f 3 3 3 3 3 3 3 3 3 3 3 3 3 3 4 4 f 3 h h h h j h h h h h h h h h h h h h h h h h l B B B B c r e v e ",
"|.v r r e B B B B b h h j h f 3 3 3 3 3 3 3 3 3 3 3 3 3 3 3 3 3 h h h h h j h h h h j h h h h h h h h h h h k C B B C x r e r r ",
"|.v r r e B B B C M f h h h 3 3 3 3 3 3 3 3 3 3 3 3 3 3 3 3 3 3 h h h h h h h h h h h h k h h h h h h h h h l C C B C x e e r r ",
"|.z r r e m N N B G h h h h 3 3 3 3 3 3 3 3 3 3 3 3 3 3 3 3 3 3 h j h h j h j h h h h h h h h h h h h h h h 9 B B m m e e e e e ",
"|.r r e r W ! ! ~ P s j h h 4 3 3 3 3 3 4 3 3 3 3 3 3 3 3 3 3 3 d d h f h h h h h h h h h h h h h h h h h f G ~ ! ! [ M 8 r x e ",
"|.z r e r <.q.q.q.[ p k h h 4 3 3 3 3 3 3 3 3 3 4 3 3 3 3 3 3 3 3 3 3 3 g h h h h h h h h h h h h j h h j s K q.q.q.w.Z 7 e z r ",
"|.z r e z <.q.q.q.[ p j h j 3 3 3 3 3 3 3 3 3 3 3 3 3 3 3 3 3 3 3 3 3 3 f j h h h h h h h h h h h h h h j s K 1.q.=.q.Z 6 e z e ",
"|.v r r z <.q.<.w.[ a j h h 4 3 3 3 3 3 3 3 3 3 3 3 3 3 3 3 3 4 3 3 3 3 f h j h h k h h h h h h h h h h j s J =.q.q.q.Z 7 r r r ",
"|.z r r z <.q.q.q.[ p k h h 4 3 3 3 3 4 3 3 3 3 3 3 3 3 3 3 3 3 3 3 3 3 f h h h h h h h h h k h h h h j j s J q.q.q.q.Z 7 e z e ",
"|.v e e v <.q.1.w.[ p j h h 3 3 3 3 3 3 3 4 3 3 3 3 3 3 3 3 3 3 3 3 3 3 3 3 3 f 4 h h h h h h h h h h h h s K 1.q.1.q.Z 7 e r e ",
"|.z e e v <.q.1.w.[ p k h h 3 3 3 3 3 3 3 3 3 3 3 3 3 3 3 f 3 3 3 3 3 3 3 3 3 3 3 f h h j h h h j h h h k s K q.1.q.q.Z 7 e e e ",
"|.z v 8 z <.q.1.q.[ d k l k 4 3 4 3 3 3 3 3 3 3 3 3 3 3 3 3 3 3 3 3 3 3 3 3 3 3 3 h h j h h h h h h k k l h K q.1.1.q.Z 8 r e e ",
"|.v z z v <.w.q.w.[ t u t t * 3 > 3 3 3 3 3 3 3 3 3 3 3 3 3 3 3 3 3 3 3 3 3 3 3 3 h h h h h h j h k u t y t G w.q.w.w.Y 7 x c e ",
"|.v r 8 z ( X.X.X...| | | | k f 4 f 4 4 3 3 3 3 3 3 3 3 3 3 3 3 3 3 3 3 3 3 3 3 3 f j h h h h h h d Y  .| | | ` ` X.X.Z 8 r e e ",
"|.|.|.|.|.0 0 e + ,.S.V.V.N.L p k j f 3 3 3 3 3 3 3 3 3 3 3 3 3 3 3 3 3 3 3 3 3 3 f j h h j h h k u j.S.B.S.x., 0 7 0 |.|.|.|.|.",
"|.|.|.|.|.e r c % ,.V.V.V.N.L i k h h 3 3 3 3 3 3 3 3 3 3 3 3 3 3 3 3 3 3 3 3 3 3 f j h h j j j k u j.V.B.V.x.6 v z z |.|.|.|.|.",
"|.|.|.|.|.e r c % ,.V.N.V.N.L a k k 5 > 3 3 3 3 3 3 3 3 3 3 3 3 3 3 3 3 3 3 3 3 f h h h h j j j k u h.S.B.V.j.5 z e z |.|.|.|.|.",
"|.|.|.|.|.r z v % ,.S.B.V.N.H t s i a 4 3 3 3 3 3 3 3 3 3 3 3 3 3 3 3 3 3 3 3 3 3 h h h j f i p a t h.S.V.S.z.2 z v z |.|.|.|.|.",
"|.|.|.|.|.|.|.|.|.A ^ ^ ^ S 0.c.h.c.,.y j h h 3 3 3 3 3 3 3 3 3 3 3 3 3 3 3 3 3 3 h h k i R x.x.j.j.>.S ^ ^ S |.|.|.|.|.|.|.|.|.",
"|.|.|.|.|.|.|.|.|.|.1 1 < 2 v.S.V.S.0.t k h h 3 3 3 3 3 3 3 3 3 3 3 3 3 3 3 3 3 3 h h k t | S.V.V.S.^ + 6 < < |.|.|.|.|.|.|.|.|.",
"|.|.|.|.|.|.|.|.|.|.n v z v c.B.N.V.6.u k k k 4 3 3 3 3 3 3 3 3 3 3 3 3 3 3 3 3 > j k l i | B.B.N.V.^ 2 n c c |.|.|.|.|.|.|.|.|.",
"|.|.|.|.|.|.|.|.|.|.v z r v v.G.V.H.0.t i t t f 3 3 3 3 3 3 3 3 3 3 3 3 3 3 3 3 3 & t u t T G.V.V.S.) < n v z |.|.|.|.|.|.|.|.|.",
"|.|.|.|.|.|.|.|.|.|.e z e z k.j.d.z.4.|  . . .k 3 f 4 3 3 3 3 3 3 3 3 3 3 3 3 4 * T >. . .>.d.j.d.j.Q < v e 8 |.|.|.|.|.|.|.|.|.",
"|.|.|.|.|.|.|.|.|.|.|.|.|.|.1 1 6 + ;.L.K.L.K.T u j j f 3 3 3 3 3 3 3 3 3 3 4 4 # M.L.K.P.m.+ 2 1 2 |.|.|.|.|.|.|.|.|.|.|.|.|.|.",
"|.|.|.|.|.|.|.|.|.|.|.|.|.|.x z c % ;.L.K.K.K.Y i k j h 3 3 3 3 3 3 3 3 4 4 4 5 # M.L.K.P.m.< v c v |.|.|.|.|.|.|.|.|.|.|.|.|.|.",
"|.|.|.|.|.|.|.|.|.|.|.|.|.|.z r v @ ;.P.K.K.A.E s l k j 3 3 3 3 3 3 3 3 4 5 9 9 # m.L.K.P.m.= v e r |.|.|.|.|.|.|.|.|.|.|.|.|.|.",
"|.|.|.|.|.|.|.|.|.|.|.|.|.|.r v c @ ;.P.K.L.L.H # # # t < 3 3 3 3 3 3 4 & + + + + M.P.K.I.M.= v v v |.|.|.|.|.|.|.|.|.|.|.|.|.|.",
"|.|.|.|.|.|.|.|.|.|.|.|.|.|.|.|.|.|.S &.%.%.%.T.~.Q.^.D.# k h h f f k # $.~.!.!.~.5._ %.&./ |.|.|.|.|.|.|.|.|.|.|.|.|.|.|.|.|.|.",
"|.|.|.|.|.|.|.|.|.|.|.|.|.|.|.|.|.|.|.% = % + (.{.].{.W.t k h h j h l t s.[.].[.{.2.. 5 % % |.|.|.|.|.|.|.|.|.|.|.|.|.|.|.|.|.|.",
"|.|.|.|.|.|.|.|.|.|.|.|.|.|.|.|.|.|.|.n v v 0 ^.].].].T.t F D l l l F t y.].].].].8.O n c v |.|.|.|.|.|.|.|.|.|.|.|.|.|.|.|.|.|.",
"|.|.|.|.|.|.|.|.|.|.|.|.|.|.|.|.|.|.|.v v v 0 _.{.].{.E.+ y # t t # y + y.[.].].[.t.X c v e |.|.|.|.|.|.|.|.|.|.|.|.|.|.|.|.|.|.",
"|.|.|.|.|.|.|.|.|.|.|.|.|.|.|.|.|.|.|.e z e 7 T.~.!.^.U.#.7.$.$.7.$.7.$.a.~.!.~.~.2.o c r z |.|.|.|.|.|.|.|.|.|.|.|.|.|.|.|.|.|.",
"|.|.|.|.|.|.|.|.|.|.|.|.|.|.|.|.|.|.|.|.|.|.|.$ $ 2   u.{.].].].].].].[.W.  : O O |.|.|.|.|.|.|.|.|.|.|.|.|.|.|.|.|.|.|.|.|.|.|.",
"|.|.|.|.|.|.|.|.|.|.|.|.|.|.|.|.|.|.|.|.|.|.|.v v N . p.].].].].].].].[.W.. n z z |.|.|.|.|.|.|.|.|.|.|.|.|.|.|.|.|.|.|.|.|.|.|.",
"|.|.|.|.|.|.|.|.|.|.|.|.|.|.|.|.|.|.|.|.|.|.|.z v n   a.].].].].].].].[.E.. b z z |.|.|.|.|.|.|.|.|.|.|.|.|.|.|.|.|.|.|.|.|.|.|.",
"|.|.|.|.|.|.|.|.|.|.|.|.|.|.|.|.|.|.|.|.|.|.|.v v n   a.[.[.].[.].].].{.Q.. n v z |.|.|.|.|.|.|.|.|.|.|.|.|.|.|.|.|.|.|.|.|.|.|.",
"|.|.|.|.|.|.|.|.|.|.|.|.|.|.|.|.|.|.|.|.|.|.|.|.|.|.|.O.p.i.i.i.u.u.p.a.8.|.|.|.|.|.|.|.|.|.|.|.|.|.|.|.|.|.|.|.|.|.|.|.|.|.|.|.",
"|.|.|.|.|.|.|.|.|.|.|.|.|.|.|.|.|.|.|.|.|.|.|.|.|.|.|.|.. . . . . . . . . |.|.|.|.|.|.|.|.|.|.|.|.|.|.|.|.|.|.|.|.|.|.|.|.|.|.|.",
"|.|.|.|.|.|.|.|.|.|.|.|.|.|.|.|.|.|.|.|.|.|.|.|.|.|.|.|.n n n n n n n n n |.|.|.|.|.|.|.|.|.|.|.|.|.|.|.|.|.|.|.|.|.|.|.|.|.|.|.",
"|.|.|.|.|.|.|.|.|.|.|.|.|.|.|.|.|.|.|.|.|.|.|.|.|.|.|.|.z v r r z r e z e |.|.|.|.|.|.|.|.|.|.|.|.|.|.|.|.|.|.|.|.|.|.|.|.|.|.|.",
"|.|.|.|.|.|.|.|.|.|.|.|.|.|.|.|.|.|.|.|.|.|.|.|.|.|.|.|.e e e e z e e e e |.|.|.|.|.|.|.|.|.|.|.|.|.|.|.|.|.|.|.|.|.|.|.|.|.|.|."
};
