/* XPM */
static char *result[] = {
/* columns rows colors chars-per-pixel */
"64 64 210 2 ",
"   c #000006",
".  c #01000A",
"X  c #0A000D",
"o  c #17000E",
"O  c #000215",
"+  c #090816",
"@  c #1B0D15",
"#  c #160B15",
"$  c #1A1218",
"%  c #3B0005",
"&  c #290B12",
"*  c #3D0016",
"=  c #281416",
"-  c #351A16",
";  c #3A1E16",
":  c #331816",
">  c #26020E",
",  c #2D260E",
"<  c #31260F",
"1  c #3E2217",
"2  c #3E2318",
"3  c #3B2815",
"4  c #1C270C",
"5  c #46000A",
"6  c #5D0000",
"7  c #52000D",
"8  c #4A0015",
"9  c #5B0014",
"0  c #550019",
"q  c #5D011A",
"w  c #550515",
"e  c #5F181A",
"r  c #610000",
"t  c #65041B",
"y  c #69061B",
"u  c #6A0B1C",
"i  c #640418",
"p  c #72061D",
"a  c #7D041F",
"s  c #750B1D",
"d  c #6C121C",
"f  c #631A1A",
"g  c #6C1A1D",
"h  c #65171B",
"j  c #731C1D",
"k  c #77161C",
"l  c #412417",
"z  c #422418",
"x  c #462A19",
"c  c #4B2B1A",
"v  c #462817",
"b  c #532D1A",
"n  c #582E1A",
"m  c #4C3619",
"M  c #4E3A19",
"N  c #453818",
"B  c #513A19",
"V  c #5C3B1B",
"C  c #56351A",
"Z  c #6D2A1D",
"A  c #69251C",
"S  c #7A251E",
"D  c #722A1D",
"F  c #7C2B1E",
"G  c #653F1C",
"H  c #76321E",
"J  c #7E0421",
"K  c #760020",
"L  c #6B1320",
"P  c #7E1820",
"I  c #583720",
"U  c #742220",
"Y  c #5E431B",
"T  c #64411D",
"R  c #74471D",
"E  c #7A541B",
"W  c #6A4626",
"Q  c #7E4620",
"!  c #7E4920",
"~  c #7B5521",
"^  c #7F5930",
"/  c #89341E",
"(  c #840421",
")  c #8C0723",
"_  c #8D0923",
"`  c #850921",
"'  c #910424",
"]  c #920925",
"[  c #990927",
"{  c #9D0A29",
"}  c #960B28",
"|  c #801921",
" . c #861723",
".. c #9A1127",
"X. c #A5032C",
"o. c #AD072F",
"O. c #A60B2C",
"+. c #AB0C2D",
"@. c #B10C2F",
"#. c #A61527",
"$. c #A7162A",
"%. c #B41C2A",
"&. c #BA1B2C",
"*. c #AF0730",
"=. c #B50D30",
"-. c #B80E31",
";. c #B00730",
":. c #BB1232",
">. c #8A3B20",
",. c #82392A",
"<. c #AF2128",
"1. c #BA242A",
"2. c #A13D2F",
"3. c #FF1F1F",
"4. c #C31831",
"5. c #CC1E32",
"6. c #E41E22",
"7. c #D82A31",
"8. c #D52A30",
"9. c #FE2222",
"0. c #FF2B2B",
"q. c #E43133",
"w. c #ED3334",
"e. c #F23435",
"r. c #FB3737",
"t. c #FE3738",
"y. c #FF3938",
"u. c #E02D33",
"i. c #825A1C",
"p. c #80571A",
"a. c #97551D",
"s. c #82491B",
"d. c #AD621E",
"f. c #A5671E",
"g. c #8C422B",
"h. c #854D20",
"j. c #94482E",
"k. c #8D5421",
"l. c #845B22",
"z. c #8A5F23",
"x. c #84592C",
"c. c #935622",
"v. c #8B5E30",
"b. c #975131",
"n. c #A35724",
"m. c #A45925",
"M. c #AB5C26",
"N. c #A55C37",
"B. c #AE5225",
"V. c #8C6123",
"C. c #8A6129",
"Z. c #916425",
"A. c #9B6624",
"S. c #996937",
"D. c #8D6032",
"F. c #AE6926",
"G. c #B46524",
"H. c #B86A26",
"J. c #BC7129",
"K. c #B7743A",
"L. c #A66B38",
"P. c #C1641F",
"I. c #C16621",
"U. c #C66D21",
"Y. c #C5762A",
"T. c #CC7B2C",
"R. c #C87526",
"E. c #D67B22",
"W. c #DB7C24",
"Q. c #D17E2C",
"!. c #D27422",
"~. c #E27F24",
"^. c #BC7841",
"/. c #C07C42",
"(. c #BC843E",
"). c #D4802D",
"_. c #DF8225",
"`. c #C1883F",
"'. c #E48224",
"]. c #EA8624",
"[. c #ED8925",
"{. c #E18528",
"}. c #F28C25",
"|. c #C38A41",
" X c #CC8D49",
".X c #CB8447",
"XX c #CE904A",
"oX c #D4954C",
"OX c #DD954E",
"+X c #D99A4E",
"@X c #D6934C",
"#X c #E29C51",
"$X c #ECA554",
"%X c #E9A452",
"&X c #F5AD59",
"*X c #FAAF5A",
"=X c #F1A956",
"-X c #FDB45C",
";X c #FFB95E",
":X c #FFBC60",
">X c #FFC062",
",X c #E48C8E",
"<X c #FF8B8B",
"1X c #E5A6A7",
"2X c #FFA4A4",
"3X c #FEBDBD",
"4X c #CD8D90",
"5X c #FFC5C5",
"6X c #FFC8C7",
"7X c None",
/* pixels */
"7X7X7X7X7X7X7X7X7X7X7X7X7X7X7X7X7X7X7X7X7X7X7X7X7X7X7X7X7X7X7X7X7X7X7X7X7X7X7X7X7X7X7X7X7X7X7X7X7X7X7X7X7X7X7X7X7X7X7X7X7X7X7X7X",
"7X7X7X7X7X7X7X7X7X7Xv z z z z z z l z z z z z z z z v 1 7X7X7X7X7X7X7X7X7Xx z z z z z z z z l l z z z z l v 2 7X7X7X7X7X7X7X7X7X",
"7X7X7X7X7X7X7X7X7X7Xz 1 1 1 2 1 l 2 2 2 2 2 2 2 2 2 l 2 7X7X7X7X7X7X7X7X7X2 1 1 1 1 1 1 1 1 1 1 1 2 2 2 1 z 1 7X7X7X7X7X7X7X7X7X",
"7X7X7X7X7X7X7X7X7X7Xz 1 1 1 1 1 ; 2 ; 2 2 2 1 ; 2 2 l ; 7X7X7X7X7X7X7X7X7X2 1 1 1 1 1 1 1 1 1 1 1 ; 1 2 1 2 1 7X7X7X7X7X7X7X7X7X",
"7X7X7X7X7X7X7X7X7X7Xv l 1 1 l l l l l l z l z z l l z 2 7X7X7X7X7X7X7X7X7Xz 2 l z z 2 z l 1 l l l l l l l x 2 7X7X7X7X7X7X7X7X7X",
"7X7X7X7X7X2 1 l : G l.l.l.l.R.E.E.E.R.J.J.J.J.z.~ l.V.R ; 1 1 1 l 1 1 - V l.l.l.l.F.J.J.J.Y.E.E.E.E.A.~ ~ V.~ ; 1 2 2 7X7X7X7X7X",
"7X7X7X7X7X1 z z : T Z.V.V.V.'.].].].{.T.T.T.T.A.z.z.Z.~ ; z 2 z 2 l z ; V V.V.V.V.J.T.T.T.Q.].].].].F.~ V.Z.~ ; z 2 v 7X7X7X7X7X",
"7X7X7X7X7Xl z l ; T Z.V.V.Z.W.'.~.{.W.Y.Y.Y.Y.Z.z.z.V.R : 1 1 1 1 2 z - V z.z.z.l.J.T.R.Y.T.'.'.'.'.F.V.V.Z.l.2 l l z 7X7X7X7X7X",
"7X7X7X7X7X: : - & V p.E p.p.'.}.[.[.{.T.T.Q.Q.A.V.z.Z.E : 1 ; 1 ; 1 1 : G V.V.V.V.T.).T.T.).}.[.[.}.f.E p.E R = - : : 7X7X7X7X7X",
"7X7X7X7X7XG G T C D.`.(.(.(.H.P.I.I.H.M.M.M.M.h.Q h.h.G l x x x x x x l n s.h.Q ! c.F.M.M.M.I.I.P.H.J.(.(.(.K.V T G T C 7X7X7X7X",
"7Xv z l v l.Z.Z.E |.>X-X;X-X,.8 q 0 q i i q i i t t t e M B B B M B B M n t t t t i q q q q q 0 9 5 #X;X;X:X$Xz.V.V.V.G ; z z 2 ",
"7Xl 1 2 z l.V.V.E `.;X-X-X*Xg.i j u d u u u u u u u i A M M B m B M M M n y u u y u d u d u d d j 9 +X;X*X;X%Xi.V.V.V.V - z 2 2 ",
"7Xz 2 2 l l.V.V.E `.;X*X-X*Xg.9 g t u u t u t u t u t f M M m M M M m M n t t u y y y u u t t u g 9 OX;X-X;X%Xi.V.z.V.V - l l 2 ",
"7Xz 2 2 l l.z.V.E `.;X-X-X-Xg.9 g u t t u t u t u u t f B m B B B M B B n y u t t u t u u t u t d w OX;X*X;X%XE z.z.z.V - 1 l 1 ",
"7Xl 1 ; x +X=X%X=X`.g.b.b.j.#.X.+.O.O.O.O.O.O.] ` ` ) s h h h h h h h h s ` ) ` ` { O.O.O.O.O.O.O.X.j.b.b.g.N.%X%X%X$Xv.X v 2 2 ",
"7Xz 1 ; c =X;X;X;X.X% i 7 9 O.:.;.-.-.-.-.-.;.[ ) ) ] ` y y t t t t y t p ' ) ) _ o.:.-.-.-.-.-.-.-.a 7 i 5 j.;X;X;X:XS.. c l ; ",
"7Xz 1 ; c $X;X*X;X.X9 U g L @.-.=.=.=.=.=.=.=.] ) _ _ ( u y u u t u u u p _ ` ) ) +.=.=.=.=.=.=.=.-. .h S q b.-X-X*X-XD.. x l 1 ",
"7Xz 1 ; c &X;X-X>X.X5 g t u O.;.o.o.o.o.@.*.o._ ` ) _ J t t t t t u t t p ] ] _ _ O.*.*.+.*.@.*.*.*.J q d 9 b.;X;X;X;XS.. c l 1 ",
"7Xz 1 1 x XX+XoX+XK.t P s a &.5.5.5.5.5.5.5.5.O.} [ { _ L p p p u t y y p ` ` ( J &.5.5.5.5.5.5.5.5...t s y g.oXoX+X+Xx.o z 2 1 ",
"7Xz 1 1 2 < < < 4 h ' _ ) ] e.y.y.y.y.y.y.y.y.4.=.=.=.+.) _ ] ' p u y y y y u u q q.y.y.y.y.y.y.y.y.%.( ] ] P , < < < 3 l 2 l 1 ",
"7Xl 1 1 2 B B Y B Z ] _ _ _ e.y.r.y.y.r.y.y.y.4.o.=.=.O.) _ ) _ p u t u y u y y q q.y.y.y.y.y.y.y.y.%.( ) ) | Y Y B B x ; ; l l ",
"7Xl 1 1 1 M M M N Z ) _ ) _ e.y.r.r.y.y.y.y.y.4.@.=.=.O.) _ ' ) p t u t y y y y q q.y.y.y.y.y.y.y.y.%.a ' ' k m M M B z l 2 l 2 ",
"7Xz 2 2 l m M B M Z ' _ ) _ e.y.y.y.r.y.y.y.r.4.o.=.=.*.) ) ) ) p u y t y u y y q 6.0.9.9.0.y.y.y.y.%.( _ ' | m M M B x l ; 2 ; ",
"7Xz 2 l ; m B B N A ) _ ) _ e.y.y.r.y.y.r.y.r.4.@.=.-.X.` ) ) ) p t y u y y u L 6 ,X2X2X2X<X0.y.y.y.%.( ] ) | m B M B x ; 2 l l ",
"7Xz 2 2 1 m B B N Z ' _ ) _ e.y.y.y.r.y.y.y.r.4.;.=.=.+.` _ ) _ p t y y y y u d 6 1X5X3X5X2X9.y.r.r.%.( _ ' | N C M M x 1 1 2 1 ",
"7Xz 2 2 l m B B N D ) _ ) ' e.y.r.y.r.y.r.y.t.4.;.=.=.O.) ) ) ) p u y y u t u L 6 1X5X3X3X2X0.y.y.r.%.( ] ' | M M M M x 1 1 z 1 ",
"7Xl 2 2 2 N m m N Z ' ' ) ] e.y.y.r.y.y.t.y.r.4.=.=.=.+.) ) ) ) p t u u y y u L 6 1X5X3X5X2X9.y.y.y.%.( ] '  .m m m m z 1 1 2 1 ",
"7Xl 1 2 2 V Y T Y D ( ` ` ` e.y.y.y.y.r.y.t.t.4.*.=.=.O.) ) ) _ u t y y y y y L r 4X1X1X1X,X6.q.q.q.#.( ` ( k Y Y Y Y c 1 1 z 1 ",
"7Xz 1 1 l l.V.z.V.Q t u t u w.y.r.y.y.y.r.y.t.4.*.=.-.+.) ) ) ) p y t u y y y y u r r 6 6 6 t t t t t u u t D z.V.V.V.V : 1 l 1 ",
"7Xz 2 2 l l.V.z.V.Q t d t y w.y.r.y.r.y.r.y.t.4.@.=.=.O.) ) _ ) p y t y y y y y y u d L d u u y y y u t u t D z.V.V.V.V - 1 z 1 ",
"7Xz 2 2 z l.V.z.V.Q t u y u e.y.y.r.y.y.y.y.r.4.@.=.=.O.` _ _ _ p u u t u u y u y u L L L u u y y y y t u t D z.z.z.V.V - 1 2 1 ",
"7Xz 2 2 z l.V.z.V.Q t u t p w.y.y.y.y.r.y.r.r.4.*.=.:.O.` ) ) ) u i t u t y y y y y t y y t y y y y y y u t D V.z.V.V.V - 1 z 1 ",
"7Xz l ; v l.V.z.Z.H t u y u w.y.r.y.y.y.r.r.t.%.[ { { { O.O.O.O.) J ` ` p t u t u y t y y y y u t y y t y t U V.V.V.V.V - 2 z 1 ",
"7Xz 2 l l l.z.z.V.h.t u t u w.y.y.y.r.r.r.r.t.#.( _ ` } -.-.-.=.} ) ) ] ` t y u y y u y u y y y y u u y y t D V.V.V.V.V - z 2 1 ",
"7Xz 2 ; l l.V.z.V.h.t L y u w.y.r.r.y.y.r.r.r.$.( ' ) { =.*.=.=.} ` ' ' ( u y y u y u t t y t y y y u u u t U z.z.V.V.V - 1 2 1 ",
"7Xz l z z l.V.z.Z.Q i t t t e.y.y.y.y.y.r.y.r.$.( _ _ { =.=.=.=.} ( _ _ ` t u t t y y y y u u y t y t i i i D Z.V.V.V.V - z v 1 ",
"7Xl 2 2 l ~ l.l.l.Q S S F S u.w.w.w.e.y.t.y.r.$.( _ ) [ *.@.@.+.{ ] ] [ ` y p y y u y y u t y y y y j U S S H l.l.l.l.V - l 2 1 ",
"7X7X7X7X7Xl l v $ h.T.Y.Y.J.F t L 0 <.y.r.r.t.$.) ' ) ) ' _ _ _ +.@.@.@.O.) ) ) ) p t u t u y y u t G.T.Y.T.F.: l 2 z 7X7X7X7X7X",
"7X7X7X7X7Xl l l # k.T.T.).Y.U q L 0 <.y.r.r.r.$.( ] _ _ ) ) ) ) +.-.@.-.+.` ] ) ' s t y y u y y u t G.T.R.Q.F.= 2 ; l 7X7X7X7X7X",
"7X7X7X7X7X; l v # h.T.Y.Y.Y./ q j w <.y.r.r.r.$.) ' _ _ ) ) _ ) @.;.@.-.O.) ) ) ) p u y t u d d d i G.T.Y.T.F.: l 2 l 7X7X7X7X7X",
"7X7X7X7X7X2 v x @ c.Q.T.T.T.P 0 t 8 +.y.y.y.y.#.K J J ( ' ' _ ) +.@.-.-.+.` ' ) _ p u t t t i q q 0 H.Q.T.).H.: v l v 7X7X7X7X7X",
"7X7X7X7X7X7X7X7X7XR c.c.c.k.n.m.n.n.B.&.1.1.1.5.8.8.7.&.( _ ) ) { O.{ O.[ ) _ ) ) p t u t F n.n.n.n.c.k.k.c.h.7X7X7X7X7X7X7X7X7X",
"7X7X7X7X7X7X7X7X7X7X@ @ + & J.T.T.).F.* w 0 8 e.y.y.y.q.( _ ) ) ` ) ) ` ) _ ) _ ) p u d q >.T.T.T.Q.R O = $ @ 7X7X7X7X7X7X7X7X7X",
"7X7X7X7X7X7X7X7X7X7Xv x z v J.T.Y.T.n.i L d u w.y.t.y.7.( ' _ ) ) _ ' ) _ ' ) ) ) s u d q >.T.T.Y.T.Q = x v v 7X7X7X7X7X7X7X7X7X",
"7X7X7X7X7X7X7X7X7X7Xz l 1 z J.T.Y.Q.M.9 d t i w.t.r.y.7.( _ ) ) ) ) _ _ ) ) ) ) ) p t u 9 >.T.T.T.T.Q $ v l ; 7X7X7X7X7X7X7X7X7X",
"7X7X7X7X7X7X7X7X7X7X2 l 1 z F.T.Y.Y.n.y S j j u.e.e.r.8.( ] _ _ ] ' ' ] _ ) ) ) ) k k j y >.J.Y.J.Y.R = v 2 2 7X7X7X7X7X7X7X7X7X",
"7X7X7X7X7X7X7X7X7X7X7X7X7X7Xc b b - a.~.W.~.W./ y P s _ ;.-.+.=.@.@.@.@.{ t u u t P.'.E.~.U.1 c c b 7X7X7X7X7X7X7X7X7X7X7X7X7X7X",
"7X7X7X7X7X7X7X7X7X7X7X7X7X7X- ; 2 O a.[.'.].~./ 0 u 0 ( -.-.=.=.@.@.-.-.O.q y u q !.}.].}.U.O 1 ; ; 7X7X7X7X7X7X7X7X7X7X7X7X7X7X",
"7X7X7X7X7X7X7X7X7X7X7X7X7X7Xz z v # a.].'.'.~./ d j g  .-.=.@.=.=.-.=.=...g g j t !.].'.].U.= v z z 7X7X7X7X7X7X7X7X7X7X7X7X7X7X",
"7X7X7X7X7X7X7X7X7X7X7X7X7X7X2 z x + a.}.].[.].k 5 7 5 ( :.-.-.-.-.-.=.:.X.5 7 7 % !.[.].}.R.$ v z x 7X7X7X7X7X7X7X7X7X7X7X7X7X7X",
"7X7X7X7X7X7X7X7X7X7X7X7X7X7X7X2 v + s.G.F.d.d.K./.K.K.N.' } } } } } ..' 2.^.^.^.^.G.d.d.G.a.$ v 1 2 7X7X7X7X7X7X7X7X7X7X7X7X7X7X",
"7X7X7X7X7X7X7X7X7X7X7X7X7X7X7X7X7X7X7XO O O O $X:X;X>XOX5 h t t q q h 5 N.:X;X:X:X^ . $ O O 7X7X7X7X7X7X7X7X7X7X7X7X7X7X7X7X7X7X",
"7X7X7X7X7X7X7X7X7X7X7X7X7X7X7X7X7X7X7Xc v x ; %X;X*X:X.Xi j L u d u j q N.-X-X*X-Xx.> c v v 7X7X7X7X7X7X7X7X7X7X7X7X7X7X7X7X7X7X",
"7X7X7X7X7X7X7X7X7X7X7X7X7X7X7X7X7X7X7Xz l 1 : $X;X;X:X@X7 d t t t t d 7 N.:X-X;X:Xv.X z l 2 7X7X7X7X7X7X7X7X7X7X7X7X7X7X7X7X7X7X",
"7X7X7X7X7X7X7X7X7X7X7X7X7X7X7X7X7X7X7Xl 1 1 - #X-X&X;X X9 u p y y y p 9 b.:X&X&X&Xv.o z 2 2 7X7X7X7X7X7X7X7X7X7X7X7X7X7X7X7X7X7X",
"7X7X7X7X7X7X7X7X7X7X7X7X7X7X7X7X7X7X7X7X7X7X7XW W W C S.$X$X$X$X$X$X%X=X XI W W W 7X7X7X7X7X7X7X7X7X7X7X7X7X7X7X7X7X7X7X7X7X7X7X",
"7X7X7X7X7X7X7X7X7X7X7X7X7X7X7X7X7X7X7X7X7X7X7X& & ;   S.;X;X;X;X-X:X;X:XoX  - & & 7X7X7X7X7X7X7X7X7X7X7X7X7X7X7X7X7X7X7X7X7X7X7X",
"7X7X7X7X7X7X7X7X7X7X7X7X7X7X7X7X7X7X7X7X7X7X7Xz x m . S.-X-X*X-X*X*X*X:XoXX c l v 7X7X7X7X7X7X7X7X7X7X7X7X7X7X7X7X7X7X7X7X7X7X7X",
"7X7X7X7X7X7X7X7X7X7X7X7X7X7X7X7X7X7X7X7X7X7X7X2 v c   L.:X;X:X;X:X:X-X:X+X. c l v 7X7X7X7X7X7X7X7X7X7X7X7X7X7X7X7X7X7X7X7X7X7X7X",
"7X7X7X7X7X7X7X7X7X7X7X7X7X7X7X7X7X7X7X7X7X7X7X2 2 c   D.oX XXX X XXX XoX^.  x 1 1 7X7X7X7X7X7X7X7X7X7X7X7X7X7X7X7X7X7X7X7X7X7X7X",
"7X7X7X7X7X7X7X7X7X7X7X7X7X7X7X7X7X7X7X7X7X7X7X7X7X7X7X7X  .     .     . . 7X7X7X7X7X7X7X7X7X7X7X7X7X7X7X7X7X7X7X7X7X7X7X7X7X7X7X",
"7X7X7X7X7X7X7X7X7X7X7X7X7X7X7X7X7X7X7X7X7X7X7X7X7X7X7X7Xc x x x x x x c x 7X7X7X7X7X7X7X7X7X7X7X7X7X7X7X7X7X7X7X7X7X7X7X7X7X7X7X",
"7X7X7X7X7X7X7X7X7X7X7X7X7X7X7X7X7X7X7X7X7X7X7X7X7X7X7X7Xz 1 1 l l 1 1 z 1 7X7X7X7X7X7X7X7X7X7X7X7X7X7X7X7X7X7X7X7X7X7X7X7X7X7X7X",
"7X7X7X7X7X7X7X7X7X7X7X7X7X7X7X7X7X7X7X7X7X7X7X7X7X7X7X7Xz 1 1 1 1 1 1 z l 7X7X7X7X7X7X7X7X7X7X7X7X7X7X7X7X7X7X7X7X7X7X7X7X7X7X7X"
};
