/* XPM */
static char *_654b8635dcd4553e8fa773b25efd5f2F8ajsKiFtV1NScZL[] = {
/* columns rows colors chars-per-pixel */
"64 64 147 2 ",
"   c None",
".  c #010100",
"X  c #020B00",
"o  c #090806",
"O  c #0D0D0A",
"+  c #031300",
"@  c #091504",
"#  c #041C00",
"$  c #081B02",
"%  c #0F140C",
"&  c #13120C",
"*  c #121C0D",
"=  c #161611",
"-  c #1A1B14",
";  c #1C1C18",
":  c #211F15",
">  c #052300",
",  c #0C2503",
"<  c #072B00",
"1  c #092D01",
"2  c #17270D",
"3  c #073000",
"4  c #0A3401",
"5  c #0B3E00",
"6  c #133407",
"7  c #1B310D",
"8  c #1E2019",
"9  c #272317",
"0  c #25241B",
"q  c #2F2C1E",
"w  c #203312",
"e  c #293D16",
"r  c #253C13",
"t  c #393524",
"y  c #343228",
"u  c #3D3D33",
"i  c #443D2B",
"p  c #0C4401",
"a  c #0C4900",
"s  c #0D5400",
"d  c #0F5C00",
"f  c #195C07",
"g  c #185008",
"h  c #145804",
"j  c #1E4013",
"k  c #2F481B",
"l  c #32591B",
"z  c #0F6400",
"x  c #116501",
"c  c #126D00",
"v  c #1D6109",
"b  c #137300",
"n  c #147B00",
"m  c #187B03",
"M  c #1C7606",
"N  c #257C0C",
"B  c #2A611A",
"V  c #3B681D",
"C  c #39741C",
"Z  c #357A18",
"A  c #317415",
"S  c #384E21",
"D  c #3B6C24",
"F  c #3A7527",
"G  c #3B7029",
"H  c #404027",
"J  c #45422C",
"K  c #49452F",
"L  c #4C5A2E",
"P  c #414736",
"I  c #4C4630",
"U  c #4E4C31",
"Y  c #454E38",
"T  c #4C4E3E",
"R  c #544D35",
"E  c #4E5331",
"W  c #4F5B32",
"Q  c #4C563E",
"!  c #575238",
"~  c #5B553B",
"^  c #535235",
"/  c #446526",
"(  c #4E4E41",
")  c #5C5C4D",
"_  c #525245",
"`  c #5B684A",
"'  c #6B6244",
"]  c #73704A",
"[  c #616151",
"{  c #6E6E5C",
"}  c #6A7C55",
"|  c #72745F",
" . c #7D7D69",
".. c #757562",
"X. c #827D52",
"o. c #158200",
"O. c #198103",
"+. c #178A00",
"@. c #1D8B05",
"#. c #179200",
"$. c #189300",
"%. c #1A9C00",
"&. c #1AA300",
"*. c #1DAC00",
"=. c #1DB300",
"-. c #1FBC00",
";. c #21BD02",
":. c #21B204",
">. c #53A837",
",. c #58A33D",
"<. c #21C500",
"1. c #31C90F",
"2. c #3BCA19",
"3. c #5AD437",
"4. c #6A8055",
"5. c #78D355",
"6. c #808150",
"7. c #83836E",
"8. c #8B8C74",
"9. c #93937B",
"0. c #83DF5F",
"q. c #84DC61",
"w. c #91E26C",
"e. c #C9D47E",
"r. c #9C9C84",
"t. c #AEB192",
"y. c #B3B397",
"u. c #B6B898",
"i. c #BCC09D",
"p. c #C5C5A5",
"a. c #C1C1A2",
"s. c #D0D0AF",
"d. c #DEDEBA",
"f. c #E0E0BC",
"g. c #E3EDBD",
"h. c #EBEBC5",
"j. c #E9EAC4",
"k. c #EDEDC7",
"l. c #ECEDC4",
"z. c #EFEFC9",
"x. c #E8F0C3",
"c. c #F3F3CC",
"v. c #F7F7D0",
"b. c #FBFBD3",
"n. c #FFFFD6",
"m. c #FDFDD4",
"M. c #FCFCD3",
/* pixels */
"                                                                                                                                ",
"                                                                                                                                ",
"                                                                                                                                ",
"                                                    . . . . . . . . . . . .                                                     ",
"                                                  / 5 . . . 4 p 5 5 # . . > p ]                                                 ",
"                                            E . X c *.+ o + =.<.<.-.c o o s -., X o                                             ",
"                                          9 N &.%.s r i.p.y.6 n -.4 } p.p.} 4 #.%.%.w                                           ",
"                                          5 o.<.+.F ) c.n.v._ B @.Y r.n.n.y.P m &.<.s k                                         ",
"                                        > ;.<.*.X 8.n.n.n.n.n.4.% j.n.n.n.n.h.; s <.<.n .                                       ",
"                                        # <.<.=.X 8.n.n.n.n.n.7.O k.n.n.n.n.z.; s <.<.n .                                       ",
"                                        # -.<.=.X 8.n.n.n.n.n.7.& j.n.n.n.n.z.= s <.<.n .                                       ",
"                                        # -.<.=.X 8.n.n.n.n.n.7.O j.n.n.n.n.z.; s <.<.n .                                       ",
"                                        # ;.<.*.X 8.n.n.n.n.n.7.O z.n.n.n.n.c.; s <.<.o..                                       ",
"                                        k #.=.=.X [ p.n.m.v.a.4.6 t.f.n.m.d.y.= s -.$.N q                                       ",
"                                          . n =.X . ; z.b.x.= z =.@ 4.b.b.8.o . s -.> J                                         ",
"                                          . # a +.+.b ( ( ( @.&.<.+.D ( ( G o.+.z 4 X =                                         ",
"                                          . > 5 <.<.=.4 1 4 -.<.<.<.o.< 1 b <.<.+.< . :                                         ",
"                                          X b ;.<.<.<.<.<.<.<.<.<.<.<.<.<.<.<.<.<.-.# J                                         ",
"                                        S +.&.<.<.<.<.<.<.<.<.<.<.<.<.<.<.<.<.<.<.<.#.f t                                       ",
"                                        # <.<.<.<.<.<.<.<.<.<.<.<.<.<.<.<.<.<.<.<.<.<.o..                                       ",
"                                        > -.<.<.<.<.<.<.<.<.<.<.<.<.<.<.<.<.<.<.<.<.<.n .                                       ",
"                                          a %.<.<.<.<.<.<.<.<.<.<.<.<.<.<.<.<.<.<.<.d V                                         ",
"                                          q f %.%.-.<.<.<.<.<.<.<.<.<.<.<.<.<.&.&.%.r                                           ",
"                                            U X X c <.<.<.<.<.<.<.<.<.<.<.<.=.+ X o                                             ",
"                                          I A b . # a a a a a a a a a a a a a X . .                                             ",
"                                          1 o.=.1 X . > > > > > > > X . . . . # > <                                             ",
"                                        , -.<.<.-.s + =.-.-.-.-.<.-.z . . . X *.<.=.> K                                         ",
"                                        # -.<.:.a < . p a a a a a a > . . t X.g a a n v J                                       ",
"                                        # -.*.$.X . . . . . . . . . + # . ~   & X > =.n .                                       ",
"                                        # -.s X . . . . . . . . . . d =.+     . s -.<.n .                                       ",
"                                          s < . . . . . . . . . . . d ;.#     . d <.<.n . t                                     ",
"                                          = . . . . . . . . . . . . d <.7     = g *.*.c o 0 J                                   ",
"                                            J . . . . . . . . . . . d <.i.      ] X X X o s.r.o                                 ",
"                                            R . . ) 9.9.u . . . . . > a L H   ~ D b c b c ` ( .                                 ",
"                                            L + . ..f.f.| . . . . . . . # # $ $ s *.<.<.-.# o &                                 ",
"                                        . . b *.X . o o o . . . . . . X *.;.;.<.c + *.<.-.# J                                   ",
"                                      Z b b %.-.b < . . . . . . . . . X *.<.<.<.c X *.<.;.> 9                                   ",
"                                    . n <.<.=.=.=.s . + + + + + + + X X =.<.<.<.b X *.-.*.6                                     ",
"                                    . b <.<.s X X X + =.=.-.-.-.-.-.d X =.<.<.<.b X *.n @                                       ",
"                                    . n =.d b c c c z s %.-.d ,.w.<.%.b ;.#.d d x c d 5 .                                       ",
"                                    O b *.+ n <.<.<.=.X x =.X { g.1.<.<.=.x . . a =.+ o O                                       ",
"                                      U > =.<.<.<.<.=.X c =.X o * :.<.-.# X . . . X . K                                         ",
"                                    ' C b -.<.<.<.o.s X x <.c x c ;.#.d X . . . . . . ; '                                       ",
"                                    + n <.<.<.<.-.s . . x <.<.<.<.<.x . . . . . . . . . .                                       ",
"                              X X , =.-.<.<.<.=.+ X . . x <.<.<.<.<.x . . . . . . . . . . .                                     ",
"                              7.G c -.<.<.<.+.d X . . . 4 x z >.q.<.x . . . . . . . . . . .                                     ",
"                            y l.5.-.-.-.-.-.s . . . . . . X X | x.1.x . . . . . . . . . . o                                     ",
"                              ; % X + + X + X . . . . . . X *.v * ;.c . . . . . . . . . .                                       ",
"                                                      ~ ; + -.%.s c C !                                                         ",
"                                                        ~ + -.<.-.X ~                                                           ",
"                                                          + ;.<.-.+                                                             ",
"                                                          + -.3.5.+                                                             ",
"                                                          # :.q.z.- ^                                                           ",
"                                                            @ M 2.:.x &                                                         ",
"                                                            X x <.<.c .                                                         ",
"                                                            . x <.<.b o                                                         ",
"                                                              W 1 -.;.%.2                                                       ",
"                                                                i n n n d l                                                     ",
"                                                                  o X X &.c X                                                   ",
"                                                                        , + . &                                                 ",
"                                                                        O . .                                                   ",
"                                                                                                                                ",
"                                                                                                                                ",
"                                                                                                                                "
};
