/* XPM */
static char *result[] = {
/* columns rows colors chars-per-pixel */
"64 64 155 2 ",
"   c #000100",
".  c #090705",
"X  c #020A00",
"o  c #0A0B07",
"O  c #0C0C09",
"+  c #031200",
"@  c #041C00",
"#  c #0E1D06",
"$  c #14120B",
"%  c #161C0B",
"&  c #151512",
"*  c #191711",
"=  c #1B1B12",
"-  c #201E14",
";  c #062400",
":  c #072B00",
">  c #092E01",
",  c #17260C",
"<  c #093400",
"1  c #073900",
"2  c #0A3A00",
"3  c #103B06",
"4  c #143B08",
"5  c #24241D",
"6  c #2D2B1C",
"7  c #312E1E",
"8  c #203712",
"9  c #252520",
"0  c #2E2E27",
"q  c #363223",
"w  c #383323",
"e  c #3F3A27",
"r  c #34352B",
"t  c #39392F",
"y  c #3B3B31",
"u  c #433F2B",
"i  c #0B4200",
"p  c #0D4D00",
"a  c #0E5400",
"s  c #0E5A00",
"d  c #105901",
"f  c #145305",
"g  c #205D10",
"h  c #2D551F",
"j  c #33581B",
"k  c #116501",
"l  c #116E00",
"z  c #137300",
"x  c #147D00",
"c  c #21640D",
"v  c #30741C",
"b  c #3E4C24",
"n  c #346C22",
"m  c #3B7B27",
"M  c #4A442E",
"N  c #4D482F",
"B  c #4B5E2B",
"V  c #4E4933",
"C  c #444439",
"Z  c #544E34",
"A  c #465039",
"S  c #595439",
"D  c #595938",
"F  c #605A3D",
"G  c #576934",
"H  c #647B3E",
"J  c #4F4F42",
"K  c #545446",
"L  c #575748",
"P  c #5B5B4C",
"I  c #536942",
"U  c #6A6344",
"Y  c #6F6847",
"T  c #726C4C",
"R  c #7F7B4F",
"E  c #76724B",
"W  c #626352",
"Q  c #696755",
"!  c #686857",
"~  c #6D6E5C",
"^  c #6A7158",
"/  c #73755D",
"(  c #7A765F",
")  c #7C7C68",
"_  c #777864",
"`  c #168400",
"'  c #198603",
"]  c #178B00",
"[  c #188F00",
"{  c #189300",
"}  c #199B00",
"|  c #1BA400",
" . c #1CAA00",
".. c #1EB400",
"X. c #1FBD00",
"o. c #21B004",
"O. c #20BE00",
"+. c #2AB90C",
"@. c #37AF1A",
"#. c #36A51B",
"$. c #30BD10",
"%. c #3BBB1C",
"&. c #21C500",
"*. c #2BC60A",
"=. c #2AC808",
"-. c #3FCC1D",
";. c #41CE1E",
":. c #5CD439",
">. c #708043",
",. c #7E8169",
"<. c #69D745",
"1. c #8B8059",
"2. c #92875D",
"3. c #83836E",
"4. c #878772",
"5. c #8B8B73",
"6. c #8F8F79",
"7. c #8B9872",
"8. c #94947A",
"9. c #96997D",
"0. c #91BD73",
"q. c #BAAC76",
"w. c #C7BA7E",
"e. c #C1B37B",
"r. c #979780",
"t. c #9F9F86",
"y. c #A6A68B",
"u. c #A8AA8D",
"i. c #A4A286",
"p. c #ACAC90",
"a. c #B2B295",
"s. c #B7B79A",
"d. c #BABA9C",
"f. c #BFBFA1",
"g. c #CCBF81",
"h. c #B1EB8B",
"j. c #CEC183",
"k. c #EEDD99",
"l. c #E3D391",
"z. c #C3C3A3",
"x. c #CACAAA",
"c. c #D0D0AF",
"v. c #D5D5B3",
"b. c #D9D9B6",
"n. c #DDDDB9",
"m. c #D4DAB1",
"M. c #E2E4BD",
"N. c #ECECC6",
"B. c #EEEEC8",
"V. c #E9F8C1",
"C. c #EFF6C8",
"Z. c #F4F4CD",
"A. c #F6FBCD",
"S. c #FCFCD3",
"D. c None",
/* pixels */
"D.D.D.D.D.D.D.D.D.D.D.D.D.D.D.D.D.D.D.D.D.D.D.D.D.D.D.D.D.D.D.D.D.D.D.D.D.D.D.D.D.D.D.D.D.D.D.D.D.D.D.D.D.D.D.D.D.D.D.D.D.D.D.D.",
"D.D.D.D.D.D.D.D.D.D.D.D.D.D.D.D.D.D.D.D.D.D.D.D.D.D.D.D.D.D.D.D.D.D.D.D.D.D.D.D.D.D.D.D.D.D.D.D.D.D.D.D.D.D.D.D.D.D.D.D.D.D.D.D.",
"D.D.D.D.D.D.D.D.D.D.D.D.D.D.D.D.D.D.D.D.D.D.D.D.D.D.D.D.D.D.D.D.D.D.D.D.D.D.D.D.D.D.D.D.D.D.D.D.D.D.D.D.D.D.D.D.D.D.D.D.D.D.D.D.",
"D.D.D.D.D.D.D.D.D.D.D.D.D.D.D.D.D.D.D.D.D.D.D.D.D.D.D.D.D.D.D.D.D.D.D.D.D.D.D.D.D.D.D.D.D.D.D.D.D.D.D.D.D.D.D.D.D.D.D.D.D.D.D.D.",
"D.D.D.D.D.D.D.D.D.D.D.D.D.D.D.D.D.D.D.D.D.D.D.D.D.D.      e D.D.D.D.D.5     * D.D.D.D.D.D.D.D.D.D.D.D.D.D.D.D.D.D.D.D.D.D.D.D.D.",
"D.D.D.D.D.D.D.D.D.D.D.D.D.D.D.D.D.D.D.D.D.D.D.D.D.T 3.4.4.! D.D.D.D.D.5.3.3.) U D.D.D.D.D.D.D.D.D.D.D.D.D.D.D.D.D.D.D.D.D.D.D.D.",
"D.D.D.D.D.D.D.D.D.D.D.D.D.D.D.D.D.D.D.D.D.D.D.D.= & Z.S.S.a.  U D.Z . x.S.S.n.O 7 D.D.D.D.D.D.D.D.D.D.D.D.D.D.D.D.D.D.D.D.D.D.D.",
"D.D.D.D.D.D.D.D.D.D.D.D.D.D.D.D.D.D.D.D.D.D.D.V i.p.S.n.W 5.u._ N 8.y.L ! N.S.p.3.M D.D.D.D.D.D.D.D.D.D.D.D.D.D.D.D.D.D.D.D.D.D.",
"D.D.D.D.D.D.D.D.D.D.D.D.D.D.D.D.D.D.D.D.D.D.D.. n.S.S.x.. K S.4.  i.S.t O N.Z.S.z.  D.D.D.D.D.D.D.D.D.D.D.D.D.D.D.D.D.D.D.D.D.D.",
"D.D.D.D.D.D.D.D.D.D.D.D.D.D.D.D.D.D.D.D.D.D.0 . b.Z.y W z.3.r 5.x.L t s.z.C L S.f.  V D.D.D.D.D.D.D.D.D.D.D.D.D.D.D.D.D.D.D.D.D.",
"D.D.D.D.D.D.D.D.D.D.D.D.D.D.D.D.D.D.D.D.D.D.w . b.B.O 0 C.y.  ) S.P   f.N.& 9 S.d.  V D.D.D.D.D.D.D.D.D.D.D.D.D.D.D.D.D.D.D.D.D.",
"D.D.D.D.D.D.D.D.D.D.D.D.D.D.D.D.D.D.D.D.D.O . . b.B.O   & &   ) S.P   o &   5 Z.d.    O D.D.D.D.D.D.D.D.D.D.D.D.D.D.D.D.D.D.D.D.",
"D.D.D.D.D.D.D.D.D.D.D.D.D.D.D.D.D.D.D.D.G ;     b.B.O X ; X   ! n.P   @ @   9 Z.d.  X ; D D.D.D.D.D.D.D.D.D.D.D.D.D.D.D.D.D.D.D.",
"D.D.D.D.D.D.D.D.D.D.D.D.D.D.D.D.D.D.D.  z O.2 . v.B.O ; ..x     .     { ..+ 9 A.d.  a O.d   D.D.D.D.D.D.D.D.D.D.D.D.D.D.D.D.D.D.",
"D.D.D.D.D.D.D.D.D.D.D.D.D.D.D.D.D.D.D.  z &.k 2 r.a.. + [ x 1 1 < < < l ] X & a.7.< l &.d   D.D.D.D.D.D.D.D.D.D.D.D.D.D.D.D.D.D.",
"D.D.D.D.D.D.D.D.D.D.D.D.D.D.D.D.D.D.D.  l &.&.X.;         i &.&.&.&.&.:         2 &.&.&.s   D.D.D.D.D.D.D.D.D.D.D.D.D.D.D.D.D.D.",
"D.D.D.D.D.D.D.D.D.D.D.D.D.D.D.D.D.D.D.  l &.&.&.l a a a a z &.&.&.&.&.z a a s s l &.&.&.s   D.D.D.D.D.D.D.D.D.D.D.D.D.D.D.D.D.D.",
"D.D.D.D.D.D.D.D.D.D.D.D.D.D.D.D.D.D.D.  l &.&.&.&.&.&.&.&.&.&.&.&.&.&.&.&.&.&.&.&.&.&.&.a   D.D.D.D.D.D.D.D.D.D.D.D.D.D.D.D.D.D.",
"D.D.D.D.D.D.D.D.D.D.D.D.D.D.D.D.D.D.D.  ; a | &.&.&.&.&.&.&.&.&.&.&.&.&.&.&.&.&.&.&.{ a >   D.D.D.D.D.D.D.D.D.D.D.D.D.D.D.D.D.D.",
"D.D.D.D.D.D.D.D.D.D.D.D.D.D.D.D.D.D.D.      ] &.&.&.&.&.&.&.&.&.&.&.&.&.&.&.&.&.&.&.z       D.D.D.D.D.D.D.D.D.D.D.D.D.D.D.D.D.D.",
"D.D.D.D.D.D.D.D.D.D.D.D.D.D.D.D.D.D.D.  s [ ..&.&.&.&.&.&.&.&.&.&.&.&.&.&.&.&.&.&.&...[ 2   D.D.D.D.D.D.D.D.D.D.D.D.D.D.D.D.D.D.",
"D.D.D.D.D.D.D.D.D.D.D.D.D.D.D.D.D.D.R . z &.X.&.&.&.&.&.&.&.&.&.&.&.&.&.&.&.&.&.&.X.&.&.s   D.D.D.D.D.D.D.D.D.D.D.D.D.D.D.D.D.D.",
"D.D.D.D.D.D.D.D.D.D.D.D.D.D.D.D.D.= k o...&.p @ X.&.&.&.&.&.&.&.&.&.&.&.&.&.&.&.{ @ k &... .4 * D.D.D.D.D.D.D.D.D.D.D.D.D.D.D.D.",
"D.D.D.D.D.D.D.D.D.D.D.D.D.D.D.D.D.  a &.....2   X.&.&.=.&.&.=.&.&.&.&.&.&.&.&.&.{   i  .&.&.2   D.D.D.D.D.D.D.D.D.D.D.D.D.D.D.D.",
"D.D.D.D.D.D.D.D.D.D.D.D.D.D.D.D.D.  p &.s X      .&.&.&.&.&.&.&.&.&.&.&.&.&.&.&.{       x &.2   D.D.D.D.D.D.D.D.D.D.D.D.D.D.D.D.",
"D.D.D.D.D.D.D.D.D.D.D.D.D.D.D.D.D.  p &.x ; ; :  .&.&.&.&.&.&.&.&.&.&.&.&.&.&.&.} ; ; : z &.<   D.D.D.D.D.D.D.D.D.D.D.D.D.D.D.D.",
"D.D.D.D.D.D.D.D.D.D.D.D.D.D.D.D.D.  p &.&.X.&.&.&.&.&.&.&.&.&.&.&.&.&.&.&.&.&.&.&.&.&.&.&.X.<   D.D.D.D.D.D.D.D.D.D.D.D.D.D.D.D.",
"D.D.D.D.D.D.D.D.D.D.D.D.D.D.D.D.D.  p &.&.&.&.&.&.&.&.&.&.&.&.&.&.&.&.&.&.&.&.&.&.&.&.&.&.&.2   D.D.D.D.D.D.D.D.D.D.D.D.D.D.D.D.",
"D.D.D.D.D.D.D.D.D.D.D.D.D.D.D.D.D.  p &.&.&.&.&.&.&.&.&.&.&.&.&.&.&.&.&.=.&.&.&.&.&.&.&.&.&.<   D.D.D.D.D.D.D.D.D.D.D.D.D.D.D.D.",
"D.D.D.D.D.D.D.D.D.D.D.D.D.D.D.D.D.  p &.&.&.&.&.&.&.&.&.&.&.&.&.&.&.&.&.&.&.&.&.&.&.&.&.&.&.1   D.D.D.D.D.D.D.D.D.D.D.D.D.D.D.D.",
"D.D.D.D.D.D.D.D.D.D.D.D.D.D.D.D.D.  a &.&.&.&.&.&.&.&.&.&.&.&.&.&.&.&.&.&.&.&.&.&.&.&.&.&.&.2   D.D.D.D.D.D.D.D.D.D.D.D.D.D.D.D.",
"D.D.D.D.D.D.D.D.D.D.D.D.D.D.D.D.D.D.B p } &.&.&.&.&.&.&.&.&.&.&.&.&.&.&.=.&.&.&.&.&.&.&.x p H D.D.D.D.D.D.D.D.D.D.D.D.D.D.D.D.D.",
"D.D.D.D.D.D.D.D.D.D.D.D.D.D.D.D.D.D.D.  l &.&.&.&.&.&.&.&.&.&.&.&.&.&.&.&.&.&.&.&.&.&.&.a   D.D.D.D.D.D.D.D.D.D.D.D.D.D.D.D.D.D.",
"D.D.D.D.D.D.D.D.D.D.D.D.D.D.D.D.D.D.D.D.b > : < ..&.&.&.&.&.&.&.&.&.&.&.&.&.&.&.{ : : : >.q.D.D.D.D.D.D.D.D.D.D.D.D.D.D.D.D.D.D.",
"D.D.D.D.D.D.D.D.D.D.D.D.D.D.D.D.D.D.D.D.D.    o | X...&.&.X.X.X.&.&.X.X...&.&.X.[ X   X E l.D.D.D.D.D.D.D.D.D.D.D.D.D.D.D.D.D.D.",
"D.D.D.D.D.D.D.D.D.D.D.D.D.D.D.D.D.D.D.D.D.D.D.j.% + + + + + + + ; @ + + + + + + i ......p $ O   D.D.D.D.D.D.D.D.D.D.D.D.D.D.D.D.",
"D.D.D.D.D.D.D.D.D.D.D.D.D.D.D.D.D.D.D.D.D.D.D.w.8 @   X ; @ @ @ @ @ @     = $   :  . . .l @ @ @ D.D.D.D.D.D.D.D.D.D.D.D.D.D.D.D.",
"D.D.D.D.D.D.D.D.D.D.D.D.D.D.D.D.D.D.D.D.D.D.e X  ...  ; ..X.X.X.X.X.X.:   j.e.        X z O.&.X.;   D.D.D.D.D.D.D.D.D.D.D.D.D.D.",
"D.D.D.D.D.D.D.D.D.D.D.D.D.D.D.D.D.D.D.D.D.D.j 2 x ] X @ [ @.:.:.:.:.:.>   D.D.D.$ 7 &   z &.&.&.;   D.D.D.D.D.D.D.D.D.D.D.D.D.D.",
"D.D.D.D.D.D.D.D.D.D.D.D.D.D.D.D.D.D.D.D.D.  [ O.@         K S.S.S.S.S.y   D.D.D.D.D.D.  z &.&.&.@   D.D.D.D.D.D.D.D.D.D.D.D.D.D.",
"D.D.D.D.D.D.D.D.D.D.D.D.D.D.D.D.D.D.D.D.D.  [ &.@   a a a h 8.c.S.a.6.9   Y D.D.D.D.D.D.i z z z +   D.D.D.D.D.D.D.D.D.D.D.D.D.D.",
"D.D.D.D.D.D.D.D.D.D.D.D.D.D.D.D.D.D.D.D.S   ] X.; X X.&.&.`   ) S.W           D.D.D.D.D.D.          D.D.D.D.D.D.D.D.D.D.D.D.D.D.",
"D.D.D.D.D.D.D.D.D.D.D.D.D.D.D.D.D.D.D.S 6   ] &.x z &.&.&.`   0 ~ m z l l X   D.D.D.D.D.D.D.D.D.D.D.D.D.D.D.D.D.D.D.D.D.D.D.D.D.",
"D.D.D.D.D.D.D.D.D.D.D.D.D.D.D.D.D.D.D.      ` &.&.&.&.&.&.`       x &.&.O.+     w D.1.  D.D.D.D.D.D.D.D.D.D.D.D.D.D.D.D.D.D.D.D.",
"D.D.D.D.D.D.D.D.D.D.D.D.D.D.D.D.$ 7 _ z.J   ; 2 ..&.&.&.&.'       x &.p 2 u.r.  O q / z.L D.D.D.D.D.D.D.D.D.D.D.D.D.D.D.D.D.D.D.",
"D.D.D.D.D.D.D.D.D.D.D.D.D.D.D.X X   W A./       } &.&.X.O.' .     x &.: . M.m.O X   ^ A._   D.D.D.D.D.D.D.D.D.D.D.D.D.D.D.D.D.D.",
"D.D.D.D.D.D.D.D.D.D.D.D.D.= ,  . . . .;.$.| >   + @ @ @ @ I b.^   x &.: X %.;. . . .+.;.f   D.D.D.D.D.D.D.D.D.D.D.D.D.D.D.D.D.D.",
"D.D.D.D.D.D.D.D.D.D.D.D.D.# ; ..........&.&.i   + + +     A V.3.  x &.; X ..&.&.&.&.&.&.d   D.D.D.D.D.D.D.D.D.D.D.D.D.D.D.D.D.D.",
"D.D.D.D.D.D.D.D.D.D.D.  .  . .+   X X X z &.2   | X.X.}   i =.k   x &.: X ..&.&.&.&.&.&.a   D.D.D.D.D.D.D.D.D.D.D.D.D.D.D.D.D.D.",
"D.D.D.D.D.D.D.D.D.D.D.    [ {       - 6 f } s :  .&.&. .: 2 } a   a } p > ..&.&.&.&. .} a   D.D.D.D.D.D.D.D.D.D.D.D.D.D.D.D.D.D.",
"D.D.D.D.D.D.D.D.D.D.D.        D.D.D.D.k.D   ] &.&.&.&.&.&.`         X } &.&.&.&.&.&.l       D.D.D.D.D.D.D.D.D.D.D.D.D.D.D.D.D.D.",
"D.D.D.D.D.D.D.D.D.D.D.    D.D.D.D.D.D.2.M   ] &.&.&.&...x a           } &.&.&.&.&.&.z       Z 1.D.D.D.D.D.D.D.D.D.D.D.D.D.D.D.D.",
"D.D.D.D.D.D.D.D.D.D.D.D.D.D.D.D.D.          ` &.&.&.&.}               } &.&.&.&.&.&.z             O D.D.D.D.D.D.D.D.D.D.D.D.D.D.",
"D.D.D.D.D.D.D.D.D.D.D.D.D.D.D.D.D.      K 3.n k ..&.&.|               } &.&.&.&. .k <             . D.D.D.D.D.D.D.D.D.D.D.D.D.D.",
"D.D.D.D.D.D.D.D.D.D.D.D.D.D.D.          5.S.J    .&.&.|               } &.&.&.&.[                       D.D.D.D.D.D.D.D.D.D.D.D.",
"D.D.D.D.D.D.D.D.D.D.D.D.D.D.D.          v <.#.` ..=.h.0.X             : i i 2 i <                       D.D.D.D.D.D.D.D.D.D.D.D.",
"D.D.D.D.D.D.D.D.D.D.D.D.D.D.D.          k &.&.O.&.*.C.x..                                               D.D.D.D.D.D.D.D.D.D.D.D.",
"D.D.D.D.D.D.D.D.D.D.D.D.D.D.D.D.D.      X : : : ; ; r r                                           O D.D.D.D.D.D.D.D.D.D.D.D.D.D.",
"D.D.D.D.D.D.D.D.D.D.D.D.D.D.D.D.D.                                                                O D.D.D.D.D.D.D.D.D.D.D.D.D.D.",
"D.D.D.D.D.D.D.D.D.D.D.D.D.D.D.D.D.D.D.D.D.D.D.D.D.D.D.D.D.D.D.D.D.D.D.D.D.D.D.D.D.D.D.D.D.D.D.D.D.D.D.D.D.D.D.D.D.D.D.D.D.D.D.D.",
"D.D.D.D.D.D.D.D.D.D.D.D.D.D.D.D.D.D.D.D.D.D.D.D.D.D.D.D.D.D.D.D.D.D.D.D.D.D.D.D.D.D.D.D.D.D.D.D.D.D.D.D.D.D.D.D.D.D.D.D.D.D.D.D.",
"D.D.D.D.D.D.D.D.D.D.D.D.D.D.D.D.D.D.D.D.D.D.D.D.D.D.D.D.D.D.D.D.D.D.D.D.D.D.D.D.D.D.D.D.D.D.D.D.D.D.D.D.D.D.D.D.D.D.D.D.D.D.D.D.",
"D.D.D.D.D.D.D.D.D.D.D.D.D.D.D.D.D.D.D.D.D.D.D.D.D.D.D.D.D.D.D.D.D.D.D.D.D.D.D.D.D.D.D.D.D.D.D.D.D.D.D.D.D.D.D.D.D.D.D.D.D.D.D.D.",
"D.D.D.D.D.D.D.D.D.D.D.D.D.D.D.D.D.D.D.D.D.D.D.D.D.D.D.D.D.D.D.D.D.D.D.D.D.D.D.D.D.D.D.D.D.D.D.D.D.D.D.D.D.D.D.D.D.D.D.D.D.D.D.D."
};
