/* XPM */
static char *f5267ce00e8c442e87773efeb175978dLMiVhhaX6vWtaZWk[] = {
/* columns rows colors chars-per-pixel */
"64 64 156 2 ",
"   c None",
".  c #010200",
"X  c #020C00",
"o  c #090907",
"O  c #0D0C0A",
"+  c #031400",
"@  c #041C00",
"#  c #0C1408",
"$  c #14120C",
"%  c #19190D",
"&  c #151512",
"*  c #1A1711",
"=  c #171A10",
"-  c #1B1B12",
";  c #1C1C18",
":  c #221F15",
">  c #062500",
",  c #062B00",
"<  c #092B02",
"1  c #0A2601",
"2  c #152C0E",
"3  c #093401",
"4  c #0A3C00",
"5  c #1C340F",
"6  c #222315",
"7  c #25231A",
"8  c #242D1A",
"9  c #322E1F",
"0  c #26301E",
"q  c #2B301A",
"w  c #32311F",
"e  c #2B2B23",
"r  c #393625",
"t  c #353820",
"y  c #3C3827",
"u  c #313229",
"i  c #363827",
"p  c #3D3D33",
"a  c #443F29",
"s  c #014300",
"d  c #0B4200",
"f  c #074800",
"g  c #0C4C00",
"h  c #19430A",
"j  c #0E5400",
"k  c #0E5C00",
"l  c #105701",
"z  c #125C02",
"x  c #1F590E",
"c  c #235A0F",
"v  c #294F15",
"b  c #214414",
"n  c #225E12",
"m  c #305819",
"M  c #006700",
"N  c #106300",
"B  c #116B00",
"V  c #007D00",
"C  c #137300",
"Z  c #157C01",
"A  c #206E0E",
"S  c #2A601A",
"D  c #316718",
"F  c #3B641F",
"G  c #307216",
"H  c #374821",
"J  c #345925",
"K  c #396629",
"L  c #3C6A2A",
"P  c #45412C",
"I  c #4C482F",
"U  c #464A2C",
"Y  c #404031",
"T  c #4B4833",
"R  c #47473C",
"E  c #524C32",
"W  c #525532",
"Q  c #585137",
"!  c #595439",
"~  c #5D583C",
"^  c #596F37",
"/  c #566732",
"(  c #4D4D41",
")  c #555547",
"_  c #59594B",
"`  c #556B44",
"'  c #686243",
"]  c #756C4A",
"[  c #6F7246",
"{  c #62704F",
"}  c #646454",
"|  c #6F725D",
" . c #73735D",
".. c #747B5F",
"X. c #757563",
"o. c #7C7B64",
"O. c #807B5A",
"+. c #008500",
"@. c #008B00",
"#. c #168400",
"$. c #178C00",
"%. c #188C01",
"&. c #179000",
"*. c #199400",
"=. c #1A9C00",
"-. c #219805",
";. c #00AE00",
":. c #1BA400",
">. c #1CAA00",
",. c #00B700",
"<. c #00B800",
"1. c #1DB300",
"2. c #1FBC00",
"3. c #21A305",
"4. c #20BF00",
"5. c #00C300",
"6. c #1FC000",
"7. c #21C500",
"8. c #28C207",
"9. c #4ACB29",
"0. c #50CC2E",
"q. c #5BC03C",
"w. c #678751",
"e. c #70B652",
"r. c #64CA44",
"t. c #868671",
"y. c #8C8C76",
"u. c #92927B",
"i. c #A09467",
"p. c #A19966",
"a. c #82DC5E",
"s. c #9A9B81",
"d. c #9CA182",
"f. c #A5A58A",
"g. c #A5BD86",
"h. c #ADAD91",
"j. c #B1B194",
"k. c #B5B598",
"l. c #B6C895",
"z. c #A7E582",
"x. c #ECDC97",
"c. c #CCCCAB",
"v. c #CFD2AD",
"b. c #DADAB7",
"n. c #DDDDBA",
"m. c #D2D2B1",
"M. c #CCECA6",
"N. c #DEF1B7",
"B. c #E0E0BB",
"V. c #EBEBC6",
"C. c #F5F5CE",
"Z. c #F2F4CB",
"A. c #FCFCD3",
"S. c #FDFDD4",
"D. c #FFFFD6",
"F. c #FEFED5",
/* pixels */
"                                                                                                                                ",
"                                                                                                                                ",
"                                                                                                                                ",
"                                                                                                                                ",
"                                                                                                                                ",
"                                                                                                                                ",
"                                                                                                                                ",
"                                                                                                                                ",
"                                                      . . .                                                                     ",
"                                                    O.} } }                                                                     ",
"                                                  7 p C.D.Z.; y                                                                 ",
"                                                y j.f.R k.Z.; . 9                                                               ",
"                                                . h.j.. X.m.p e e                                                               ",
"                                                . o o . . & n.C.C.) ;                                                           ",
"                                                . j g . ( X.t.k.S.h.X.                                                          ",
"                        8 X . X X . y           . 3.=.. y.V.; ) D.D.n.$                                                         ",
"                      - -.>.:.:.>.>.C % O *   ] O l.g.. & e . ) D.D.b.O                                                         ",
"                    ^ 4 :.2.*.1.7.7.:.4 3 h p.! . u.s.. > , . ) D.D.b.O                                                         ",
"                  . z 6.6.=.X C 7.7.7.7.7.>.X . . . . . C 2.+ ) S.D.b.O ~                                                       ",
"                  . k 7.z d . B 7.7.7.7.7.7.Z d . N z . w.z.s.k.D.D.b.o * E                                                     ",
"                  . j 6.3 X X C 7.7.7.7.7.7.7.C + =.*.X u.D.D.D.D.Z.v.# X X                                                     ",
"                  . k 6.2.2.1.4.7.7.7.7.7.7.7.7.2.7.=.. u.D.D.D.A.) 2 1.2.2.1 w                                                 ",
"                  . k 7.6.7.7.7.7.7.7.7.7.7.7.7.7.7.>.g ` s.s.s.s.L k 7.7.7.B c                                                 ",
"                  . k 6.7.7.7.7.7.7.7.7.7.7.7.7.7.7.7.7.k . . X X #.7.7.7.7.7.=..                                               ",
"                    / 4 >.7.7.7.7.7.7.7.7.7.7.7.7.7.7.7.1.*.*.*.*.1.7.7.7.7.7.=..                                               ",
"                      = #.>.>.7.7.7.7.7.7.7.:.:.:.:.1.7.7.7.7.7.7.7.7.7.7.7.>.-.-                                               ",
"                        6 X . C 7.7.7.7.7.>.X . X . 3 7.7.7.7.7.7.7.7.7.7.7., q                                                 ",
"                            ' v N N B C N k B B N N Z 7.7.7.7.7.7.7.2.N N B /                                                   ",
"                              ! . X . X . @ 6.7.6.6.7.7.4.4.2.2.2.6.>.X . .                                                     ",
"                                X *.>.>.>.>.6.7.6.4 f 7.N @ @ @ > 1 5                                                           ",
"                                t #.&.%.*.$.*.$.$.j j 6.Z 3 . $ r $                                                             ",
"                                  $ . . . . . . X =.6.7.7.2.+ a x.                                                              ",
"                                I . , V V V +.s . :.7.7.7.4.+ O T :                                                             ",
"                              W + X s <.5.5.<.M . :.7.7.2.1.@ X X . . . E                                                       ",
"                            . C 2.2.#.X @.,.X . . :.7.7.j + >.2.4.3 . . . .                                                     ",
"                            . C 6.#.j . +.;.X 0 } C #.7.j X 1.7.7.C 4 . . .                                                     ",
"                            . B 6.@ . . +.;.. | C.u < 4.j X 1.7.7.7.>.X . .                     O . . . t                       ",
"                            . C 6.:.=.*.f > . S 0.2 < 7.1.&.3 , < *.7.:.g .             . . * T c.e.:.:.C 6 *                   ",
"                            : z :.:.:.:.4 . . m 9.1 , 7.7.2.+ . . #.7.7.B .           3 , , , b M.a.7.7.=., < 3                 ",
"                              Q . . X . . . . X.Z.u , 4.7.2.+ . . #.7.7.N .       T # 1.7.4.4.4.7.7.7.7.7.4.4.1.X T             ",
"                                        ~ ! . K a.8 , 2.7.7.C d . 4 C 6.:.B U ~ Q G Z 2.7.7.7.>.N k k k N k z z C c !           ",
"                                            . z 8., , 7.7.7.4.#.. . @ 6.7.4.> . O Z 7.7.7.7.7.:.X . . . . . . X 1.Z .           ",
"                                            . o.N.e , 4.7.2.> + . . > 2.7.4.> p B.r.7.7.7.7.g 5                 + + . .         ",
"                                            P  .h.7 , 7.7.2.+ + 4 4 g 6.>.#.f J h.q.7.7.1.%.m P                 o . .           ",
"                                              ] . . < 7.7.4.+ d 7.6.6.7.B X :.*.X Z 7.6.#.X                                     ",
"                                            P D #.#.Z d &.4.+ f 7.7.7.6.N . :.2.#.:.2.g K                                       ",
"                                        H + + N 7.7.:.+ C 4.> 4 1.>.1.1.C + :.7.7.7.4.X y                                       ",
"                        7 . . . .   i.o %.2.2.7.7.7.7.4.4.7.6.Z X X X X N 2.6.7.7.7.4.+                                         ",
"                        o.{ z z k [ ! . *.6.7.7.7.#.C C C Z 2.>.j k j j #.7.7.7.7.%.Z W                                         ",
"                      O v.M.8.6.2.@ . . #.6.7.7.7.> . . . + >.7.7.6.7.7.7.6.7.6.7.l .                                           ",
"                        H i < #.6.>.:.*.g d 7.7.7.> . . N *.7.7.7.7.7.7.7.6.d , , + .                                           ",
"                        7 . . g *.*.1.6.N 4 2.7.6.g @ . g =.7.7.7.7.2.=.=.*.@ X , X .                                           ",
"                        o . . . . . d 6.7.7.7.7.7.7.*.. . + 1.6.7.7.>.X . . . 3 4.g . .                                         ",
"                        . . . . . . X j j j j #.7.7.*.. . . g j k j g . . . . X l > . .                                         ",
"                          . . . . . . . . . . j 2.2.*.. . . . . . . . . . . . . . . . .                                         ",
"                            . . . . . . . . . . + @ + . . . . . . . . . . . . . . . .                                           ",
"                                . . . . . . . . . . . . . . . . . . . . . . . . .                                               ",
"                                                                                                                                ",
"                                                                                                                                ",
"                                                                                                                                ",
"                                                                                                                                ",
"                                                                                                                                ",
"                                                                                                                                ",
"                                                                                                                                "
};
