/* XPM */
static char *result[] = {
/* columns rows colors chars-per-pixel */
"64 64 146 2 ",
"   c #000100",
".  c #090707",
"X  c #020A00",
"o  c #0A0A07",
"O  c #0E0D0A",
"+  c #031200",
"@  c #041B00",
"#  c #13130D",
"$  c #1B190F",
"%  c #19150D",
"&  c #151512",
"*  c #1B1711",
"=  c #1B1A13",
"-  c #221F15",
";  c #062500",
":  c #062900",
">  c #073300",
",  c #093400",
"<  c #073900",
"1  c #0A3B00",
"2  c #1E3E0F",
"3  c #123407",
"4  c #1C2011",
"5  c #1F3715",
"6  c #1D3815",
"7  c #23231C",
"8  c #332F1F",
"9  c #30341F",
"0  c #262621",
"q  c #2F2F26",
"w  c #363222",
"e  c #32322A",
"r  c #38382E",
"t  c #3A3525",
"y  c #3E3E34",
"u  c #403A27",
"i  c #403D2A",
"p  c #0B4400",
"a  c #0C4C00",
"s  c #19410F",
"d  c #174C08",
"f  c #1C4E0B",
"g  c #0E5400",
"h  c #0F5D00",
"j  c #115E01",
"k  c #1A590A",
"l  c #20540D",
"z  c #205A0C",
"x  c #0F6400",
"c  c #106400",
"v  c #146902",
"b  c #137300",
"n  c #147A00",
"m  c #1F750B",
"M  c #26640F",
"N  c #2A6719",
"B  c #35641B",
"V  c #324726",
"C  c #3B5621",
"Z  c #3B6B29",
"A  c #404026",
"S  c #46412C",
"D  c #414136",
"F  c #404B34",
"G  c #4B4C3E",
"H  c #534F35",
"J  c #525E33",
"K  c #61593D",
"L  c #476927",
"P  c #496C2A",
"I  c #61673C",
"U  c #4E4E42",
"Y  c #515144",
"T  c #555549",
"R  c #5F5F50",
"E  c #665E41",
"W  c #676042",
"Q  c #696342",
"!  c #66644E",
"~  c #726E48",
"^  c #60754C",
"/  c #747D48",
"(  c #696957",
")  c #6A7757",
"_  c #797964",
"`  c #787864",
"'  c #158400",
"]  c #178A00",
"[  c #179300",
"{  c #189400",
"}  c #199B00",
"|  c #208507",
" . c #2A8913",
".. c #2F871A",
"X. c #1BA300",
"o. c #1CAA00",
"O. c #1DB200",
"+. c #1FBD00",
"@. c #24A206",
"#. c #20BE00",
"$. c #489F2D",
"%. c #558A3F",
"&. c #4CA331",
"*. c #5AA43F",
"=. c #52B733",
"-. c #56B837",
";. c #1FC500",
":. c #21C500",
">. c #28C707",
",. c #39CC17",
"<. c #44CF22",
"1. c #59D436",
"2. c #7E9F64",
"3. c #6FC74F",
"4. c #6AD846",
"5. c #79D157",
"6. c #82826C",
"7. c #8E8E78",
"8. c #898974",
"9. c #94947B",
"0. c #81DB5D",
"q. c #86D064",
"w. c #84DE60",
"e. c #8DE168",
"r. c #9BE575",
"t. c #9E9E86",
"y. c #A7AA8B",
"u. c #AFAF93",
"i. c #BEBE9F",
"p. c #B4B497",
"a. c #B5EC8F",
"s. c #C2EF9B",
"d. c #F5E49D",
"f. c #C7C7A7",
"g. c #CACAA9",
"h. c #D0D2AF",
"j. c #D4D4B2",
"k. c #D7D9B4",
"l. c #D9D9B6",
"z. c #DEDEBA",
"x. c #DCF4B4",
"c. c #E4E4C0",
"v. c #F7FCCE",
"b. c #F1F1CA",
"n. c #FBFDD2",
"m. c None",
/* pixels */
"m.m.m.m.m.m.m.m.m.m.m.m.m.m.m.m.m.m.m.m.m.m.m.m.m.m.m.m.m.m.m.m.m.m.m.m.m.m.m.m.m.m.m.m.m.m.m.m.m.m.m.m.m.m.m.m.m.m.m.m.m.m.m.m.",
"m.m.m.m.m.m.m.m.m.m.m.m.m.m.m.m.m.m.m.m.m.m.m.m.m.m.m.m.m.m.m.m.m.m.m.m.m.m.m.m.m.m.m.m.m.m.m.m.m.m.m.m.m.m.m.m.m.m.m.m.m.m.m.m.",
"m.m.m.m.m.m.m.m.m.m.m.m.m.m.m.m.m.m.m.m.m.m.m.m.m.m.m.m.m.m.m.m.m.m.m.m.m.m.m.m.m.m.m.m.m.m.m.m.m.m.m.m.m.m.m.m.m.m.m.m.m.m.m.m.",
"m.m.m.m.m.m.m.m.m.m.m.m.m.m.m.m.m.m.m.m.m.m.m.m.m.m.m.m.m.m.m.m.m.m.m.m.m.m.m.m.m.m.m.m.m.m.m.m.m.m.m.m.m.m.m.m.m.m.m.m.m.m.m.m.",
"m.m.m.m.m.m.m.m.m.m.m.m.m.m.m.m.m.m.m.m.m.m.m.m.m.m.m.m.m.m.m.m.m.m.m.m.m.m.m.m.m.m.m.m.m.m.m.m.m.m.m.m.m.m.m.m.m.m.m.m.m.m.m.m.",
"m.m.m.m.m.m.m.m.m.m.m.m.m.m.m.m.m.m.m.m.m.m.m.m.m.m.m.m.m.7 = m.m.. m.m.m.m.m.m.m.m.m.m.m.m.m.m.m.m.m.m.m.m.m.m.m.m.m.m.m.m.m.m.",
"m.m.m.m.m.m.m.m.m.m.m.m.m.m.m.m.m.m.m.m.m.m.m.m.m.m.m.Y e i.u.8 ! g.` 0 m.m.m.m.m.m.m.m.m.m.m.m.m.m.m.m.m.m.m.m.m.m.m.m.m.m.m.m.",
"m.m.m.m.m.m.m.m.m.m.m.m.m.m.m.m.m.m.m.m.m.m.m.m.m.m.m.D O j.z.O U b._ O 8.m.m.m.m.m.m.m.m.m.m.m.m.m.m.m.m.m.m.m.m.m.m.m.m.m.m.m.",
"m.m.m.m.m.m.m.m.m.m.m.m.m.m.m.m.m.m.m.m.m.m.    m.m.& p.z.0 q k.7.= t.z.U O m.m.  t m.m.m.m.m.m.m.m.m.m.m.m.m.m.m.m.m.m.m.m.m.m.",
"m.m.m.m.m.m.m.m.m.m.m.m.m.m.m.m.m.m.m.m.m.m.    m.m.  6.f.7 & m.t.  ( g.Y   m.m.  - m.m.m.m.m.m.m.m.m.m.m.m.m.m.m.m.m.m.m.m.m.m.",
"m.m.m.m.m.m.m.m.m.m.m.m.m.m.m.m.m.m.m.m.=       m.m.    .     m.m.    .     m.m.      E m.m.m.m.m.m.m.m.m.m.m.m.m.m.m.m.m.m.m.m.",
"m.m.m.m.m.m.m.m.m.m.m.m.m.m.m.m.m.m.m.m.f p   = m.m.  > p X   m.m.  ; p @   m.m.  @ a C m.m.m.m.m.m.m.m.m.m.m.m.m.m.m.m.m.m.m.m.",
"m.m.m.m.m.m.m.m.m.m.m.m.m.m.m.m.m.m.m.X o.o.  r n.`   ' +.@         c :.1   z.h.  p :.c   m.m.m.m.m.m.m.m.m.m.m.m.m.m.m.m.m.m.m.",
"m.m.m.m.m.m.m.m.m.m.m.m.m.m.m.m.m.m.m.  o.:.n k R e   < h b b b b b g g @   T ^ b ' :.c   m.m.m.m.m.m.m.m.m.m.m.m.m.m.m.m.m.m.m.",
"m.m.m.m.m.m.m.m.m.m.m.m.m.m.m.m.m.m.m.  o.:.:.{         @ o.:.:.:.:.x         ; #.:.:.c   m.m.m.m.m.m.m.m.m.m.m.m.m.m.m.m.m.m.m.",
"m.m.m.m.m.m.m.m.m.m.m.m.m.m.m.m.m.m.m.  o.:.:.#.{ { { { O.;.:.:.:.:.o.{ { { { } :.:.:.c   m.m.m.m.m.m.m.m.m.m.m.m.m.m.m.m.m.m.m.",
"m.m.m.m.m.m.m.m.m.m.m.m.m.m.m.m.m.m.m.  X.;.:.:.:.:.:.:.:.:.:.:.:.:.:.:.:.:.:.:.:.:.+.x   m.m.m.m.m.m.m.m.m.m.m.m.m.m.m.m.m.m.m.",
"m.m.m.m.m.m.m.m.m.m.m.m.m.m.m.m.m.m.m.  X @ #.:.:.:.:.>.:.:.:.:.:.:.:.:.:.:.:.:.:.] X     m.m.m.m.m.m.m.m.m.m.m.m.m.m.m.m.m.m.m.",
"m.m.m.m.m.m.m.m.m.m.m.m.m.m.m.m.m.m.O   ; < :.:.:.:.:.:.:.:.>.:.:.:.:.:.:.:.:.:.:.} : X   m.m.m.m.m.m.m.m.m.m.m.m.m.m.m.m.m.m.m.",
"m.m.m.m.m.m.m.m.m.m.m.m.m.m.m.m.m.m.i   X.;.:.:.:.:.:.:.:.:.:.:.:.:.:.:.:.:.:.:.:.:.:.j   m.m.m.m.m.m.m.m.m.m.m.m.m.m.m.m.m.m.m.",
"m.m.m.m.m.m.m.m.m.m.m.m.m.m.m.m.m.m.B a O.:.n ] :.:.:.:.:.:.:.:.:.:.:.:.:.:.:.+.n { :.] a J m.m.m.m.m.m.m.m.m.m.m.m.m.m.m.m.m.m.",
"m.m.m.m.m.m.m.m.m.m.m.m.m.m.m.m.m.  ' :.:.o.  < :.:.:.:.:.:.:.:.:.:.:.:.:.:.:.o.  p :.:.:.1   m.m.m.m.m.m.m.m.m.m.m.m.m.m.m.m.m.",
"m.m.m.m.m.m.m.m.m.m.m.m.m.m.m.m.m.  ' :.j a   < :.:.:.:.:.:.:.:.:.:.:.:.:.:.:.o.  + a [ :.,   m.m.m.m.m.m.m.m.m.m.m.m.m.m.m.m.m.",
"m.m.m.m.m.m.m.m.m.m.m.m.m.m.m.m.m.  n :.;     , :.:.:.:.:.:.:.:.:.:.:.:.:.:.:.o.X     c :.<   m.m.m.m.m.m.m.m.m.m.m.m.m.m.m.m.m.",
"m.m.m.m.m.m.m.m.m.m.m.m.m.m.m.m.m.  ' ;.o.} } X.:.:.:.:.>.:.:.:.:.:.:.:.:.:.:.:.X.} } o.:.<   m.m.m.m.d.d.m.m.m.m.m.m.m.m.m.m.m.",
"m.m.m.m.m.m.m.m.m.m.m.m.m.m.m.m.m.  n :.:.:.:.:.:.:.:.:.:.:.:.:.>.:.:.:.:.:.:.:.:.:.:.:.:.<   m.m.m.m.d.d.m.m.m.m.m.m.m.m.m.m.m.",
"m.m.m.m.m.m.m.m.m.m.m.m.m.m.m.m.m.  ' :.:.:.:.:.:.:.:.:.:.:.:.:.:.:.:.:.:.:.:.:.:.:.:.:.:.<   m.m.m.m.m.m.m.m.m.m.m.m.m.m.m.m.m.",
"m.m.m.m.m.m.m.m.m.m.m.m.m.m.m.m.m.  ' :.:.:.:.:.:.:.:.:.:.:.:.:.:.:.:.:.:.:.:.:.:.:.:.:.#.1   m.m.m.m.m.m.m.m.m.m.m.m.m.m.m.m.m.",
"m.m.m.m.m.m.m.m.m.m.m.m.m.m.m.m.m.  ' :.:.:.:.:.:.:.:.:.:.:.:.:.:.:.:.:.:.:.:.:.:.:.:.:.:.1   m.m.m.m.m.m.m.m.m.m.m.m.m.m.m.m.m.",
"m.m.m.m.m.m.m.m.m.m.m.m.m.m.m.m.m.H z n +.:.:.:.:.:.:.:.:.:.:.:.:.:.:.:.:.:.:.:.:.:.:.} b P m.m.m.m.m.m.m.m.m.m.m.m.m.m.m.m.m.m.",
"m.m.m.m.m.m.m.m.m.m.m.m.m.m.m.m.m.m.S   o.:.:.:.:.:.:.:.:.:.:.:.:.:.:.:.:.:.:.:.:.;.:.c   m.m.m.m.m.m.m.m.m.m.m.m.m.m.m.m.m.m.m.",
"m.m.m.m.m.m.m.m.m.m.m.m.m.m.m.m.m.m.m.m.d a a b :.:.:.:.:.:.:.:.:.:.:.:.:.:.:.;.g a a L m.m.m.m.m.m.m.m.m.m.m.m.m.m.m.m.m.m.m.m.",
"m.m.m.m.m.m.m.m.m.m.m.m.m.m.m.m.m.m.m.m.$   . 2 #.:.#.:.#.:.:.:.:.:.:.#.:.#.:.o.X     m.m.m.m.m.m.m.m.m.m.m.m.m.m.m.m.m.m.m.m.m.",
"m.m.m.m.m.m.m.m.m.m.m.m.m.m.m.m.m.m.m.m.m.m.m.~ ; : ; ; ; ; ; ; : < ; ; ; ; ; 2 m.m.m.m.m.m.m.m.m.m.m.m.m.m.m.m.m.m.m.m.m.m.m.m.",
"m.m.m.m.m.m.m.m.m.m.m.m.m.m.m.m.m.m.m.m.m.m.m.m.  X +     + + + @ @     X X   # m.m.m.m.m.m.m.m.m.m.m.m.m.m.m.m.m.m.m.m.m.m.m.m.",
"m.m.m.m.m.m.m.m.m.m.m.m.m.m.m.m.m.m.m.m.m.m.m.m.  x +.1   X.+.+.+.+.h   ' #.@ # m.m.m.m.m.m.m.m.m.m.m.m.m.m.m.m.m.m.m.m.m.m.m.m.",
"m.m.m.m.m.m.m.m.m.m.m.m.m.m.m.m.m.m.m.m.m.m.m.%.< j { > . =.1.1.1.1.N   c { p 3 m.m.m.m.m.m.m.m.m.m.m.m.m.m.m.m.m.m.m.m.m.m.m.m.",
"m.m.m.m.m.m.m.m.m.m.m.m.m.m.m.m.m.m.m.m.m.m.  1 #.c     o k.n.n.n.n._     X o.o.  i m.m.m.m.m.m.m.m.m.m.m.m.m.m.m.m.m.m.m.m.m.m.",
"m.m.m.m.m.m.m.m.m.m.m.m.m.m.m.m.m.m.m.m.m.I c b :.c   1 j q.r.r.r.r.*.j @   o.#.x f m.m.m.m.m.m.m.m.m.m.m.m.m.m.m.m.m.m.m.m.m.m.",
"m.m.m.m.m.m.m.m.m.m.m.m.m.m.m.m.m.m.m.m.= @ #.:.:.c   ' :.:.:.:.:.:.:.:.1 X o.:.:.]   m.m.m.m.m.m.m.m.m.m.m.m.m.m.m.m.m.m.m.m.m.",
"m.m.m.m.m.m.m.m.m.m.m.m.m.m.m.m.m.m.m.A | [ :.} p ;   2.a.a.a.a.a.a.a.a.V   1 h ;.O.] l u m.m.m.m.m.m.m.m.m.m.m.m.m.m.m.m.m.m.m.",
"m.m.m.m.m.m.m.m.m.m.m.m.m.m.m.m.m.m.m.X @.:.:.{       y.n.n.n.v.n.n.n.v.Y     ; +.:.:.c   m.m.m.m.m.m.m.m.m.m.m.m.m.m.m.m.m.m.m.",
"m.m.m.m.m.m.m.m.m.m.m.m.m.m.m.m.m.m.m.  o.:.:.:.o.g    .<.<.<.<.<.<.<.<.s   { o.;.:.:.x   m.m.m.m.m.m.m.m.m.m.m.m.m.m.m.m.m.m.m.",
"m.m.m.m.m.m.m.m.m.m.m.m.m.m.m.m.m.m.m.  o.:.o.O.O.j    .,.,.,.,.,.,.,.,.1   } O.o.;.:.c   m.m.m.m.m.m.m.m.m.m.m.m.m.m.m.m.m.m.m.",
"m.m.m.m.m.m.m.m.m.m.m.m.m.m.m.m.m.m.m.  o.O.X         y.v.v.v.n.v.v.v.v.G       X p :.c   m.m.m.m.m.m.m.m.m.m.m.m.m.m.m.m.m.m.m.",
"m.m.m.m.m.m.m.m.m.m.m.m.m.m.m.m.m.m.m.9 n ' 1 1 < @   2.s.s.s.s.s.s.s.s.F   > < < a [ M w m.m.m.m.m.m.m.m.m.m.m.m.m.m.m.m.m.m.m.",
"m.m.m.m.m.m.m.m.m.m.m.m.m.m.m.m.m.m.m.m.% @ +.:.:.c   ' :.>.>.:.:.:.>.:.1   O.:.:.'   Q m.m.m.m.m.m.m.m.m.m.m.m.m.m.m.m.m.m.m.m.",
"m.m.m.m.m.m.m.m.m.m.m.m.m.m.m.m.m.m.m.m.O @ #.:.:.{ c v v 5.e.e.e.e.$.c j c #.:.:.'   Q m.m.m.m.m.m.m.m.m.m.m.m.m.m.m.m.m.m.m.m.",
"m.m.m.m.m.m.m.m.m.m.m.m.m.m.m.m.m.m.m.m.  @ #.:.:.:.:.p . k.n.n.n.n._   ' :.:.:.:.]   Q m.m.m.m.m.m.m.m.m.m.m.m.m.m.m.m.m.m.m.m.",
"m.m.m.m.m.m.m.m.m.m.m.m.m.m.m.m.m.m.m.m.O @ #.:.:.:.:.p   -.4.4.4.4.Z   : a O.:.:.'   # i m.m.m.m.m.m.m.m.m.m.m.m.m.m.m.m.m.m.m.",
"m.m.m.m.m.m.m.m.m.m.m.m.m.m.m.m.m.m.m.m.= @ +.;.;.;.+.1   o.+.>.>.>.c     X o.:.:.'       m.m.m.m.m.m.m.m.m.m.m.m.m.m.m.m.m.m.m.",
"m.m.m.m.m.m.m.m.m.m.m.m.m.m.m.m.m.  O = @.{ @ @ @ @ @ X   X 6 x.x.x.)   b o.: @ @ g o.a   O #   = m.m.m.m.m.m.m.m.m.m.m.m.m.m.m.",
"m.m.m.m.m.m.m.m.m.m.m.m.m.m.m.m.K   @ @ o.O.; @ @ @ @       & j.z.l.(   ' :.> @ @ a :.b @       O m.m.m.m.m.m.m.m.m.m.m.m.m.m.m.",
"m.m.m.m.m.m.m.m.m.m.m.m.m.m.m.      n #.;.:.+.:.+.+.+.1       . O . .   ] :.#.+.;.#.:.:.+.>         m.m.m.m.m.m.m.m.m.m.m.m.m.m.",
"m.m.m.m.m.m.m.m.m.m.m.m.m.m.m.      n :.:.:.:.:.:.:.:.p                 ] :.:.:.:.:.:.:.:.>         m.m.m.m.m.m.m.m.m.m.m.m.m.m.",
"m.m.m.m.m.m.m.m.m.m.m.m.m.m.m.      n :.:.:.:.:.:.:.:.p                 ' :.:.;.:.:.:.:.:.>         m.m.m.m.m.m.m.m.m.m.m.m.m.m.",
"m.m.m.m.m.m.m.m.m.m.m.m.m.m.m.m.w   %.0.m c c ..w.$.x ;                 p v 5.3.v c c &.w.6     O m.m.m.m.m.m.m.m.m.m.m.m.m.m.m.",
"m.m.m.m.m.m.m.m.m.m.m.m.m.m.m.m.m.  m.m.7     y m._                       . m.m..     ` m.y     * m.m.m.m.m.m.m.m.m.m.m.m.m.m.m.",
"m.m.m.m.m.m.m.m.m.m.m.m.m.m.m.m.m.m.m.m.m.m.m.m.m.m.m.m.m.m.m.m.m.m.m.m.m.m.m.m.m.m.m.m.m.m.m.m.m.m.m.m.m.m.m.m.m.m.m.m.m.m.m.m.",
"m.m.m.m.m.m.m.m.m.m.m.m.m.m.m.m.m.m.m.m.m.m.m.m.m.m.m.m.m.m.m.m.m.m.m.m.m.m.m.m.m.m.m.m.m.m.m.m.m.m.m.m.m.m.m.m.m.m.m.m.m.m.m.m.",
"m.m.m.m.m.m.m.m.m.m.m.m.m.m.m.m.m.m.m.m.m.m.m.m.m.m.m.m.m.m.m.m.m.m.m.m.m.m.m.m.m.m.m.m.m.m.m.m.m.m.m.m.m.m.m.m.m.m.m.m.m.m.m.m.",
"m.m.m.m.m.m.m.m.m.m.m.m.m.m.m.m.m.m.m.m.m.m.m.m.m.m.m.m.m.m.m.m.m.m.m.m.m.m.m.m.m.m.m.m.m.m.m.m.m.m.m.m.m.m.m.m.m.m.m.m.m.m.m.m.",
"m.m.m.m.m.m.m.m.m.m.m.m.m.m.m.m.m.m.m.m.m.m.m.m.m.m.m.m.m.m.m.m.m.m.m.m.m.m.m.m.m.m.m.m.m.m.m.m.m.m.m.m.m.m.m.m.m.m.m.m.m.m.m.m.",
"m.m.m.m.m.m.m.m.m.m.m.m.m.m.m.m.m.m.m.m.m.m.m.m.m.m.m.m.m.m.m.m.m.m.m.m.m.m.m.m.m.m.m.m.m.m.m.m.m.m.m.m.m.m.m.m.m.m.m.m.m.m.m.m."
};
