/* XPM */
static char *d2f8474050614054c48a7538e036ac87iWo11kURnPMq0wK9[] = {
/* columns rows colors chars-per-pixel */
"64 64 143 2 ",
"   c None",
".  c #000100",
"X  c #020B01",
"o  c #0B0B06",
"O  c #0D0D0A",
"+  c #110F0B",
"@  c #031500",
"#  c #0A1106",
"$  c #041C00",
"%  c #091905",
"&  c #12120D",
"*  c #18160F",
"=  c #191A0F",
"-  c #151511",
";  c #1C1A11",
":  c #1C1C18",
">  c #201D15",
",  c #052300",
"<  c #0A2503",
"1  c #072C00",
"2  c #082F00",
"3  c #0F2908",
"4  c #073401",
"5  c #093400",
"6  c #0A3C00",
"7  c #1C300F",
"8  c #1C2710",
"9  c #222315",
"0  c #25241B",
"q  c #312E1E",
"w  c #213714",
"e  c #273B16",
"r  c #2E2E27",
"t  c #332F20",
"y  c #363324",
"u  c #393624",
"i  c #373F21",
"p  c #3E3C27",
"a  c #33342B",
"s  c #373C2C",
"d  c #38382E",
"f  c #3D3D32",
"g  c #0B4400",
"h  c #0C4C00",
"j  c #154806",
"k  c #144505",
"l  c #0D5400",
"z  c #0E5900",
"x  c #105E00",
"c  c #1E5509",
"v  c #324B1A",
"b  c #275519",
"n  c #355D1A",
"m  c #0E6500",
"M  c #106200",
"N  c #126C00",
"B  c #1C6209",
"V  c #137400",
"C  c #147B00",
"Z  c #1C7D04",
"A  c #26660E",
"S  c #2C601C",
"D  c #31791D",
"F  c #327315",
"G  c #394822",
"H  c #37442A",
"J  c #45422C",
"K  c #48432E",
"L  c #4A562D",
"P  c #4C4630",
"I  c #4E4931",
"U  c #4B4B3F",
"Y  c #44443B",
"T  c #514C33",
"R  c #4E5930",
"E  c #595339",
"W  c #5A5F38",
"Q  c #436C25",
"!  c #446733",
"~  c #506531",
"^  c #536C31",
"/  c #5F6E3B",
"(  c #4D4D41",
")  c #525245",
"_  c #645C40",
"`  c #666142",
"'  c #6C6544",
"]  c #68644A",
"[  c #716C48",
"{  c #767B46",
"}  c #7D754F",
"|  c #626352",
" . c #686857",
".. c #6E6E5C",
"X. c #72725D",
"o. c #168500",
"O. c #168B00",
"+. c #188F00",
"@. c #179300",
"#. c #189400",
"$. c #1A9B00",
"%. c #1AA300",
"&. c #1CAB00",
"*. c #1DB400",
"=. c #1FBD00",
"-. c #21BE01",
";. c #2FAC14",
":. c #3BA51D",
">. c #54A636",
",. c #1FC000",
"<. c #21C500",
"1. c #2BC80A",
"2. c #36CA15",
"3. c #42C821",
"4. c #4FD12C",
"5. c #74875F",
"6. c #67B549",
"7. c #60C440",
"8. c #8D835A",
"9. c #84866E",
"0. c #8C8B72",
"q. c #94947A",
"w. c #A19666",
"e. c #B2A672",
"r. c #B5A973",
"t. c #BEB07A",
"y. c #99E474",
"u. c #999D80",
"i. c #A1A187",
"p. c #A6A68B",
"a. c #A5E580",
"s. c #BEC0A0",
"d. c #D0C184",
"f. c #DCCC8C",
"g. c #C1C19F",
"h. c #C0C2A1",
"j. c #CBCEA7",
"k. c #D2D4AF",
"l. c #D2DBB1",
"z. c #E6F8BE",
"x. c #E6E7C1",
"c. c #F1F2CA",
"v. c LightGoldenrodYellow",
/* pixels */
"                                                                                                                                ",
"                                                                                                                                ",
"                                                                                                                                ",
"                                                                                                                                ",
"                                                                                                                                ",
"                                                                                                                                ",
"                                                                                                                                ",
"                                                                                                                                ",
"                                                                            -                                                   ",
"                                                                          | q.0.                                                ",
"                                                                        d + x.h.o                                               ",
"                                                                      0 . o a 0 .                                               ",
"                                                                      : O . X @ .                                               ",
"                                                                  o X.c.( . &.@..             . . . . . . K                     ",
"                                                        .         . ) p.r X 7.>..           / g g g g g h n                     ",
"                                                        .         . . . . O x.h.. '   y . . 6 <.,.<.,.<.<.o..                   ",
"                                                        .         . < N 1 o  .U . q E B C C $.<.<.,.V m -.%.C Q                 ",
"                                                      } .         . z <.4 . . . . . X #.<.<.<.<.<.<., @ =.,.<.h .               ",
"                                                    > o .               s . @.C . h *.<.<.<.<.<.<.=.1 . , z ,.h .               ",
"                                                    , $ $               H X *.#.$ V <.<.<.<.<.<.<.<.6 $ $ m ,.h .               ",
"                                                0 $ =.=.=.l .           f X *.<.=.<.<.<.<.<.<.<.<.<.<.<.,.<.,.h .               ",
"                                                c m <.<.<.C l         9.b z =.<.<.<.<.<.<.<.<.<.<.<.<.<.<.<.,.h .               ",
"                                              . %.<.<.<.<.<.-., . . . . +.<.<.<.<.<.<.<.<.<.<.<.<.<.<.<.<.<.<.h .               ",
"                                              X %.<.<.<.<.<.<.@.O.o.o.O.<.<.<.<.<.<.<.<.<.<.<.<.<.<.<.<.<.%.h L                 ",
"                                              X %.<.<.<.<.<.<.<.<.<.<.<.<.<.<.<.=.-.=.<.<.<.<.<.<.<.<.-.-.C .                   ",
"                                                w 1 -.<.<.<.<.<.<.<.<.<.<.<.1 @ @ @ $ #.<.<.<.<.<.<.6 @ $ G                     ",
"                                                u e $.$.$.&.<.<.<.<.<.<.<.=.6 1 1 1 1 o.$.$.$.$.$.#.7 0 o                       ",
"                                                    X . . o.<.<.<.<.<.<.<.,.<.,.<.<.-.5 . . . . . .                             ",
"                                                        E F V N N N N N %.<.V C <.<.<.N z l x l 5 .                             ",
"                                                          T . . . . . . O.=.@ 5 -.<.<.<.<.<.-.<.x .                             ",
"                                                              w.8.. 6 +.-.<.@.C 6 5 6 6 6 6 6 6 ~                               ",
"                                                                r.. l *.-.<.<.@.. . . . . . . .                                 ",
"                                                        . . . o o . . @ O.<.<.#.. E                                             ",
"                                                      T . . . . . 5 5 5 C @.@.M . _                                             ",
"                                                    . . . . . . $ =.<.,.6 . . . . '   y . . u                                   ",
"                                                    . . . . . . , <.<.<.C M X . . q ` A N N A                                   ",
"                    p . . . o '                     . . . . . . $ =.<.<.<.=.@ . . . . #.<.<.+..                                 ",
"              . ; 0 N %.%.:.j.0.0 . . .             . . . . . . X 1 M <.<.<.$.C . . . @.<.<.O..                                 ",
"              @ @ @ @.<.<.4.c.5.@ @ @ @ G           . . . . . . . @ M *.=.<.<.$.@ @ $ %.<.<.+..                                 ",
"          ; < =.-.=.<.<.<.<.1.<.=.-.-.-.@..         . . . . . . $ =.V X O.<.<.,.=.=.=.<.<.<.@..                                 ",
"          k h o.o.o.o.o.o.O.o.%.<.<.<.<.%.g         . . . . . . $ =.O.g C o.o.@.<.<.<.#.O.O.M                                   ",
"      P X &.%.. . . . . . . . M <.<.<.<.<.<.M . t.d.o . . . . . , <.,.<.6 . . 5 <.,.<.4 . .                                     ",
"      & . g j [             } Q l %.<.<.<.<.6.i.] J . . . . . M O.<.<.<.O.V X @ h l h X . }                                     ",
"      . . . =                 ' . #.-.<.<.<.y.c.a . . . . . X &.<.<.<.<.,.*.% o . . . . o           9 X . o .                   ",
"                                  v 1 <.<.<.2.3.< @ $.%.%.%.&.<.<.<.<.<.z 3 s.p.. h %.&.%.9 T   ' ; O.;.k.q..                   ",
"                                  p 8 %.&.%.%.%.$ $ =.<.<.<.<.<.<.<.-.%.g 3 h.u.< V <.<.-.X u t.R 1 &.2.l.0.:                   ",
"                                      X . X X . . @ <.<.<.<.<.<.<.<.V X o.-.# 5 =.<.<.<.*.X . . N =.<.*.# J                     ",
"                                      . @ h h h h l <.<.<.$.C *.=.C S | D V W ^ C $.<.<.-.. @ h @.<.O.Z J                       ",
"                                      . 6 <.<.<.<.<.<.<.<.h . &.%.. ..v.( o f.r.. m ,.<.=.X 6 <.<.=.1 +                         ",
"                                      . 6 <.<.<.<.<.<.%.6 @ . g 5 . r ) + o P t . 1 g %.=.O.$.<.o.g {                           ",
"                                      . 6 -.<.<.<.=.<.V . . . . . . . . . . . . . . . #.<.<.,.,.z . e.                          ",
"                                      . g <.<.<.6 @ @ X . . . . . . . . . . . . . . . #.<.<.#.@ . . & >                         ",
"                                      . 6 $.&.<.g 1 1 , . . . . . . . . . . . . . . . V $.$.m . . . . o                         ",
"                                      . . . N ,.<.,.<.C . . . . . . . . . . . . . . . . . . . . . . . . .                       ",
"                                      . . . g N *.<.<.#.z ! ..- . . . . . . . . . . . . . . . . . . . . .                       ",
"                                      . . . . . $.,.<.<.<.a.c.0 . . . . . . . . . . . . . . . . . . . . .                       ",
"                                        _ . . . 1 6 6 6 6 H Y o . . . . . . . . . . . . . . . . . . . O                         ",
"                                          . . . . . . . . . . . . . . . . . . . . . . . . . . . . . . O                         ",
"                                                                                                                                ",
"                                                                                                                                ",
"                                                                                                                                ",
"                                                                                                                                ",
"                                                                                                                                ",
"                                                                                                                                "
};
