/* XPM */
static char *_11bd29e3c2e406acf433da8f1c32cb7eRKKmdn6xdpPcWIE[] = {
/* columns rows colors chars-per-pixel */
"64 64 142 2 ",
"   c None",
".  c #000100",
"X  c #020A01",
"o  c #0B0B06",
"O  c #0D0D0A",
"+  c #110F0B",
"@  c #031500",
"#  c #0A1106",
"$  c #041C00",
"%  c #091905",
"&  c #12120D",
"*  c #18160F",
"=  c #191A0F",
"-  c #151511",
";  c #1C1A11",
":  c #1C1C18",
">  c #201D15",
",  c #052300",
"<  c #0A2503",
"1  c #072C00",
"2  c #082F00",
"3  c #0F2908",
"4  c #073000",
"5  c #093400",
"6  c #0A3C00",
"7  c #1C320F",
"8  c #1C2710",
"9  c #222315",
"0  c #25241B",
"q  c #312E1E",
"w  c #213714",
"e  c #273B16",
"r  c #2E2E27",
"t  c #332F20",
"y  c #363324",
"u  c #393624",
"i  c #373F21",
"p  c #3E3C27",
"a  c #33342B",
"s  c #373C2C",
"d  c #38382E",
"f  c #3D3D32",
"g  c #0B4400",
"h  c #0C4C00",
"j  c #154806",
"k  c #144505",
"l  c #0D5400",
"z  c #0E5900",
"x  c #105F00",
"c  c #1E5509",
"v  c #324B1A",
"b  c #275519",
"n  c #355D1A",
"m  c #0F6500",
"M  c #106200",
"N  c #126C00",
"B  c #1C6209",
"V  c #137400",
"C  c #147B00",
"Z  c #1C7D04",
"A  c #26660E",
"S  c #2C601C",
"D  c #31791D",
"F  c #327315",
"G  c #394822",
"H  c #37452B",
"J  c #45422C",
"K  c #48432E",
"L  c #4A562D",
"P  c #4C4630",
"I  c #4E4931",
"U  c #4C4C3F",
"Y  c #45453B",
"T  c #514C33",
"R  c #4E5930",
"E  c #595339",
"W  c #5A5F38",
"Q  c #436C25",
"!  c #446733",
"~  c #506531",
"^  c #536C31",
"/  c #5F6E3B",
"(  c #4D4D41",
")  c #525245",
"_  c #645C40",
"`  c #666142",
"'  c #6C6544",
"]  c #68644A",
"[  c #716C48",
"{  c #767B46",
"}  c #7D754F",
"|  c #626352",
" . c #686857",
".. c #6E6E5C",
"X. c #72725F",
"o. c #168500",
"O. c #178B00",
"+. c #188E01",
"@. c #179200",
"#. c #189400",
"$. c #1A9B00",
"%. c #1AA300",
"&. c #1CAB00",
"*. c #1DB400",
"=. c #1FBD00",
"-. c #20BD00",
";. c #30AE14",
":. c #3BA61E",
">. c #54A637",
",. c #1FC000",
"<. c #21C500",
"1. c #2BC80A",
"2. c #36CA15",
"3. c #42C921",
"4. c #4FD12C",
"5. c #67B54A",
"6. c #758760",
"7. c #60C440",
"8. c #8D835A",
"9. c #84866E",
"0. c #8C8B72",
"q. c #94947A",
"w. c #A19666",
"e. c #B2A672",
"r. c #B5A973",
"t. c #BEB07A",
"y. c #99E474",
"u. c #999D80",
"i. c #A2A287",
"p. c #A6A68C",
"a. c #A6E681",
"s. c #BEC0A0",
"d. c #D0C184",
"f. c #DCCC8C",
"g. c #C0C1A1",
"h. c #CBCEA9",
"j. c #D2D6AF",
"k. c #D3DBB1",
"l. c #E6F8BE",
"z. c #E6E7C1",
"x. c #F2F3CB",
"c. c LightGoldenrodYellow",
/* pixels */
"                                                                                                                                ",
"                                                                                                                                ",
"                                                                                                                                ",
"                                                                                                                                ",
"                                                                                                                                ",
"                                                                                                                                ",
"                                                                                                                                ",
"                                                                                                                                ",
"                                                  &                                                                             ",
"                                                0.q.|                                                                           ",
"                                              o g.z.& d                                                                         ",
"                                              . 0 a . . r                                                                       ",
"                                              . @ X . & :                                                                       ",
"                    K . . . . . .             . +.&.X ( x.X.o                                                                   ",
"                    n h h g g g g /           . >.7.X r p.) .         .                                                         ",
"                  . O.,.,.<.<.,.<.6 . . y   ' . s.z.O . . . .         .                                                         ",
"                Q C %.,.m N <.<.,.@.C C B E q . U  .o 1 N , .         .                                                         ",
"              . h <.,.=.@ 1 <.<.<.<.<.<.$.X . . X . . 5 <.z .         . }                                                       ",
"              . h ,.z , . , ,.<.<.<.<.<.,.&.h . o.@.X s               . o :                                                     ",
"              . h ,.m $ $ 6 <.<.<.<.<.<.<.<.N , #.&.X f               $ $ ,                                                     ",
"              . h ,.,.,.<.<.<.<.<.<.<.<.<.<.<.,.<.*.X f           . l =.-.=.$ 0                                                 ",
"              . h <.<.<.<.<.<.<.<.<.<.<.<.<.<.<.<.-.z b 9.        l C <.<.<.M c                                                 ",
"              . h <.<.<.<.<.<.<.<.<.<.<.<.<.<.<.<.<.<.O.. . . . , -.<.<.<.<.<.%.X                                               ",
"                L h %.<.<.<.<.<.<.<.<.<.<.<.<.<.<.<.<.*.O.O.O.@.O.<.<.<.<.<.<.$.X                                               ",
"                  . o.-.<.-.<.<.<.<.1.<.<.-.-.=.,.-.<.<.<.<.<.<.<.<.<.<.<.<.<.%.X                                               ",
"                    i $ @ 6 <.<.<.<.<.<.#.@ @ @ @ 1 ,.<.<.<.<.<.<.<.<.<.<.<.1 w                                                 ",
"                      o 0 7 $.$.$.#.&.%.o.2 1 1 1 6 ,.<.<.<.<.<.<.<.*.$.$.$.e u                                                 ",
"                            X . . X . X 5 -.<.-.,.<.<.<.<.<.<.<.<.<.C . X X                                                     ",
"                            . 2 z z z z N ,.<.<.C V <.$.N N N N N V F E                                                         ",
"                            . x ,.,.<.,.,.<.<.<.5 @ =.O.X . . . . . I                                                           ",
"                              ~ 6 6 6 6 6 6 5 6 C @.<.*.+.5 . 8.w.                                                              ",
"                                X . . . X . . . #.<.<.<.=.l . r.                                                                ",
"                                            E X #.<.<.O.X X . o o . . .                                                         ",
"                                            _ . m +.+.o.5 5 4 . . . . . T                                                       ",
"                                  u . . y   ' . . X . 6 ,.,.=., . . . . . .                                                     ",
"                                  A N N A ` t . . X m o.<.<.=., . . . . . .                                                     ",
"                                . +.<.<.#.. . . . @ =.<.<.<.=.$ . . . . . .                     ' o X . . p                     ",
"                                . +.<.<.#.. . . V $.<.<.<.M 1 X . . . . . .             . . o 0 0.h.:.$.$.N 0 ; .               ",
"                                X +.<.<.$.@ @ @ #.<.<.=.*.m @ . . . . . . .           G @ @ @ @ 6.l.4.<.<.#.% @ $               ",
"                                . #.<.<.<.=.=.=.<.<.<.O.X V *.$ . . . . . .         X +.=.=.-.-.-.1.<.<.<.<.=.=.=.< ;           ",
"                                  M O.o.@.<.<.<.#.o.o.C g O.-., . . . . . .         k %.<.<.<.<.%.o.o.O.o.o.o.o.o.h k           ",
"                                    . X 5 <.<.=.5 . . 6 ,.<.<.$ . . . . . . d.t.. M ,.,.<.<.<.<.M . . . . . . . X %.%.X P       ",
"                                    } . X h h h @ X V o.<.<.<.O.m . . . . . K ] p.5.<.<.<.<.%.z Q }             [ j g X &       ",
"                  . o o X >           o X X . . X % *.,.<.<.<.<.%.X . X X . . a x.y.<.<.<.<.#.. '                 * . . .       ",
"                  . q.j.;.O.; '   T 9 %.%.&.h X p.s.3 z <.<.<.<.<.%.%.&.%.$.@ < 3.2.,.<.,.4 v                                   ",
"                  ; 0.k.2.&.1 R t.u X -.,.,.N , u.s.3 g %.<.<.<.<.<.<.<.<.-.@ $ %.&.%.%.%.8 p                                   ",
"                    J # -.-.<.N . . X *.<.<.<.-.5 % =.o.X V <.<.<.<.<.<.<.<.@ . X X . X X                                       ",
"                      K Z O.<.@.h @ X -.<.<.$.C ^ W V D | n C =.=.C $.<.<.<.z h h h h @ .                                       ",
"                        + 1 <.<.<.6 X =.,.<.M . r.f.o ( c.... %.%.X h <.<.<.<.,.<.<.<.6 .                                       ",
"                          { g o.,.%.O.,.%.g , . y P o & ) r . 4 6 X X g %.<.<.<.<.<.<.g .                                       ",
"                          e.. z ,.<.<.<.@.. . . . . . . . . . . . . . . C =.=.<.<.<.<.6 .                                       ",
"                        > & . . @ #.<.<.@.. . . . . . . . . . . . . . . X @ @ 6 <.<.<.6 .                                       ",
"                        O . . . . M $.$.V . . . . . . . . . . . . . . . , 1 1 g <.&.#.6 .                                       ",
"                      . . . . . . . . . X . . . . . . . . . . . . . . . C <.,.<.<.N . . .                                       ",
"                      . . . . . . . . . . . . . . . . . . . . . - ..! z $.<.<.*.N 6 . . .                                       ",
"                      . . . . . . . . . . . . . . . . . . . . . 0 x.a.<.,.<.,.$.X . . . .                                       ",
"                        O . . . . . . . . . . . . . . . . . . . . Y H 6 6 6 6 1 . . . _                                         ",
"                        O . . . . . . . . . . . . . . . . . . . . . . . . . . . . . .                                           ",
"                                                                                                                                ",
"                                                                                                                                ",
"                                                                                                                                ",
"                                                                                                                                ",
"                                                                                                                                ",
"                                                                                                                                "
};
