/* XPM */
static char *dc047a252d4249438d582295a5e53e17hEuG0PqQQDZlQhDb[] = {
/* columns rows colors chars-per-pixel */
"64 128 140 2 ",
"   c None",
".  c #010100",
"X  c #020B00",
"o  c #090806",
"O  c #0D0D0A",
"+  c #031300",
"@  c #091405",
"#  c #041C00",
"$  c #081B02",
"%  c #0F140B",
"&  c #14130D",
"*  c #121C0D",
"=  c #151612",
"-  c #171F11",
";  c #1B1B15",
":  c #201E15",
">  c #052200",
",  c #0B2503",
"<  c #072B00",
"1  c #0A2C01",
"2  c #17270D",
"3  c #073000",
"4  c #0A3401",
"5  c #0A3D00",
"6  c #113707",
"7  c #143108",
"8  c #1A300D",
"9  c #1E2019",
"0  c #262417",
"q  c #2E2B1D",
"w  c #23231D",
"e  c #203212",
"r  c #293C16",
"t  c #253B13",
"y  c #393524",
"u  c #343229",
"i  c #3D3D33",
"p  c #423D2A",
"a  c #0B4200",
"s  c #0C4900",
"d  c #0D5400",
"f  c #0F5C00",
"g  c #195D07",
"h  c #185008",
"j  c #145803",
"k  c #1E4013",
"l  c #2F491A",
"z  c #33581B",
"x  c #0F6400",
"c  c #116501",
"v  c #126D00",
"b  c #1E6209",
"n  c #137300",
"m  c #1C7607",
"M  c #147B00",
"N  c #187B03",
"B  c #247C0C",
"V  c #2A611A",
"C  c #3B671F",
"Z  c #307415",
"A  c #39741C",
"S  c #357A18",
"D  c #384D21",
"F  c #396F27",
"G  c #3A7527",
"H  c #3B7029",
"J  c #404127",
"K  c #45422C",
"L  c #4A462F",
"P  c #4C5A2E",
"I  c #414736",
"U  c #4E4C31",
"Y  c #454E38",
"T  c #494E3C",
"R  c #564F37",
"E  c #4E5231",
"W  c #4F5A31",
"Q  c #4C563E",
"!  c #555136",
"~  c #5C563A",
"^  c #436425",
"/  c #4E4E41",
"(  c #525245",
")  c #5C5C4D",
"_  c #5B684A",
"`  c #6B6344",
"'  c #74704A",
"]  c #616151",
"[  c #6E6E5C",
"{  c #6A7C55",
"}  c #72745F",
"|  c #7D7D69",
" . c #757562",
".. c #827C51",
"X. c #158200",
"o. c #198103",
"O. c #178A00",
"+. c #1D8B05",
"@. c #179200",
"#. c #189300",
"$. c #1A9C00",
"%. c #1AA300",
"&. c #1DAC00",
"*. c #1DB300",
"=. c #1FBC00",
"-. c #21B304",
";. c #22BC02",
":. c #53A837",
">. c #58A33D",
",. c #21C500",
"<. c #31C90F",
"1. c #3BCA19",
"2. c #5AD437",
"3. c #6A8055",
"4. c #7F8150",
"5. c #73D251",
"6. c #7CD459",
"7. c #83836E",
"8. c #8B8C74",
"9. c #93937B",
"0. c #83DF5F",
"q. c #84DC61",
"w. c #91E26C",
"e. c #C9D47D",
"r. c #9D9D84",
"t. c #AEB192",
"y. c #B3B397",
"u. c #B6B898",
"i. c #BCC09D",
"p. c #C4C4A4",
"a. c #D0D0AF",
"s. c #DEDEBA",
"d. c #E0E0BC",
"f. c #E3EDBD",
"g. c #EBEBC5",
"h. c #EFEFC9",
"j. c #E8F0C3",
"k. c #F3F3CC",
"l. c #F7F7D0",
"z. c #FEFED6",
/* pixels */
"                                                                                                                                ",
"                                                                                                                                ",
"                                                                                                                                ",
"                                                                                                                                ",
"                                                                                                                                ",
"                                                                                                                                ",
"                                                                                                                                ",
"                                                                                                                                ",
"                                                                                                                                ",
"                                                                                                                                ",
"                                                                                                                                ",
"                                                                                                                                ",
"                                                                                                                                ",
"                                                                                                                                ",
"                                                                                                                                ",
"                                                                                                                                ",
"                                                                                                                                ",
"                                                                                                                                ",
"                                                                                                                                ",
"                                                                                                                                ",
"                                                                                                                                ",
"                                                                                                                                ",
"                                                                                                                                ",
"                                                                                                                                ",
"                                                                                                                                ",
"                                                                                                                                ",
"                                                                                                                                ",
"                                                                                                                                ",
"                                                                                                                                ",
"                                                                                                                                ",
"                                                                                                                                ",
"                                                                                                                                ",
"                                                                                                                                ",
"                                                                                                                                ",
"                                                                                                                                ",
"                                                                                                                                ",
"                                                                                                                                ",
"                                                                                                                                ",
"                                                                                                                                ",
"                                                                                                                                ",
"                                                                                                                                ",
"                                                                                                                                ",
"                                                                                                                                ",
"                                                                                                                                ",
"                                                                                                                                ",
"                                                                                                                                ",
"                                                                                                                                ",
"                                                                                                                                ",
"                                                                                                                                ",
"                                                                                                                                ",
"                                                                                                                                ",
"                                                                                                                                ",
"                                                                                                                                ",
"                                                                                                                                ",
"                                                                                                                                ",
"                                                                                                                                ",
"                                                                                                                                ",
"                                                                                                                                ",
"                                                                                                                                ",
"                                                                                                                                ",
"                                                                                                                                ",
"                                                                                                                                ",
"                                                                                                                                ",
"                                                    . . . . . . . . . . . .                                                     ",
"                                                  ^ 5 . . . 5 5 5 a # . . > s }                                                 ",
"                                            E . . v &.@ o + *.,.,.;.v . o d ;.# . o                                             ",
"                                          0 B %.$.d k i.p.u.7 M =.4 { p.p.{ 7 @.%.$.e                                           ",
"                                          5 O.=.@.G ) k.z.h.( V +.Y r.z.z.y.D o.%.,.d l                                         ",
"                                        # =.,.*.X 8.z.z.z.z.z.7.% g.z.z.z.z.g.; d ,.,.M .                                       ",
"                                        # =.,.*.X 8.z.z.z.z.z.7.O g.z.z.z.z.h.; d ,.,.M .                                       ",
"                                        # ,.,.&.X 8.z.z.z.z.z.7.O g.z.z.z.z.h.; d ,.,.M .                                       ",
"                                        # =.,.*.X 8.z.z.z.z.z.7.= g.z.z.z.z.h.; d ,.,.M .                                       ",
"                                        # ;.,.&.X 8.z.z.z.z.z.7.O g.z.z.z.z.g.; d ,.,.M .                                       ",
"                                        r $.*.*.X ] p.z.z.l.p.3.6 t.d.z.z.s.u.= d =.$.B q                                       ",
"                                          . N *.X . 9 g.z.g.= c *.@ | z.z.8.o . d =.> L                                         ",
"                                          . # s O.O.N Y / Q o.%.,.O.V / / F O.O.c 5 . =                                         ",
"                                          . > 5 =.,.=.4 < 3 ,.,.,.,.X.3 < v ,.,.O.< . ;                                         ",
"                                          o n ,.,.,.,.,.,.,.,.,.,.,.,.,.,.=.,.,.,.=.# K                                         ",
"                                        D O.%.,.,.,.,.,.,.,.,.,.,.,.,.,.,.,.,.,.,.,.@.g y                                       ",
"                                        # ,.,.,.,.,.,.,.,.,.,.,.,.,.,.,.,.,.,.,.,.,.,.X..                                       ",
"                                        > =.,.,.,.,.,.,.,.,.,.,.,.,.,.,.,.,.,.,.,.,.,.M .                                       ",
"                                          s $.,.,.,.,.,.,.,.,.,.,.,.,.,.,.,.,.,.,.,.f C                                         ",
"                                          q j %.%.=.,.,.,.,.,.,.,.,.,.,.,.,.,.%.%.%.t                                           ",
"                                            E . . n ,.,.,.,.,.,.,.,.,.,.,.,.*.# . X                                             ",
"                                          U Z v . > s s s s s s s s s s s s s . . .                                             ",
"                                          1 M *.< X . > > > > > > < + . . . . # > ,                                             ",
"                                        > =.,.,.,.d + *.=.=.=.=.=.=.x . . . X &.=.=.> L                                         ",
"                                        # ;.,.-.s < . a s s s s s s > . . y ..h s s M b K                                       ",
"                                        # ;.&.$.X . . . . . . . . . + # . ~   & + > &.M .                                       ",
"                                        # =.f . . . . . . . . . . . f *.+     . d =.,.M .                                       ",
"                                          d < . . . . . . . . . . . f =.#     . f ,.,.N . y                                     ",
"                                          & . . . . . . . . . . . . x ;.8     ; d &.&.v . 0 I                                   ",
"                                            p . . . . . . . . . . . f ,.e.      ' X X . O a.r.o                                 ",
"                                            R . . ) 9.9.i . . . . . $ d ! y   ! C n n n v _ / .                                 ",
"                                            P # .  .s.s.[ . . . . . . . # # # # s *.,.,.;.# o &                                 ",
"                                        . . n %.X o o O o . . . . . . X &.=.=.=.v + *.,.=.> p                                   ",
"                                      S M n #.,.n > . . . . . . . . . X *.,.,.,.n . &.,.;.> 0                                   ",
"                                    . M ,.,.*.*.*.d . + + + + + + + . X *.,.,.,.n X &.=.&.7                                     ",
"                                    . n ,.,.f X X . + *.=.=.=.=.;.=.x X *.,.,.,.n . &.X.@                                       ",
"                                    . M *.f n v v v x d $.=.f >.w.,.$.v =.@.f f v v f 5 .                                       ",
"                                    O n %.# n ,.,.,.*.X c *.X [ f.<.,.,.*.v . . s &.# o o                                       ",
"                                      U > *.=.,.,.,.&.X c *.X o * ;.,.*.# . . . . X . L                                         ",
"                                    ` A M ,.,.,.,.O.d X c ,.v x v =.@.f X . . . . . . ; `                                       ",
"                                    @ M ,.,.,.,.=.d . . c ,.,.,.,.,.c . . . . . . . . . .                                       ",
"                              o . < *.=.,.,.,.*.# . . . c ,.,.,.,.,.c . . . . . . . . . . o                                     ",
"                              7.H v ,.,.,.,.O.f X . . . 3 c v :.q.,.v . . . . . . . . . . .                                     ",
"                            u h.5.;.=.=.;.=.s . . . . . . . X } j.<.c . . . . . . . . . . .                                     ",
"                              ; % + X + + + X . . . . . . X &.c * ;.v . . . . . . . . . o                                       ",
"                                                      ! 9 + =.$.d v A R                                                         ",
"                                                        ~ + *.,.=.X ~                                                           ",
"                                                          + ;.,.=.+                                                             ",
"                                                          + =.2.6.@                                                             ",
"                                                          @ *.q.g.2 R                                                           ",
"                                                            # m 1.-.c O                                                         ",
"                                                            o x ,.,.v .                                                         ",
"                                                            . c ,.,.v o                                                         ",
"                                                              W 3 =.=.%.2                                                       ",
"                                                                J N M M f z                                                     ",
"                                                                  o . o %.n .                                                   ",
"                                                                        , + . &                                                 ",
"                                                                        o . .                                                   ",
"                                                                                                                                ",
"                                                                                                                                ",
"                                                                                                                                ",
"                                                                                                                                ",
"                                                                                                                                ",
"                                                                                                                                ",
"                                                                                                                                "
};
