/* XPM */
static char *e1db45ec6f2b4b5ee732c8f92f432c83LH4mQOcF0Yua38po[] = {
/* columns rows colors chars-per-pixel */
"64 64 158 2 ",
"   c None",
".  c #000100",
"X  c #020C00",
"o  c #090907",
"O  c #0D0E0A",
"+  c #120F0A",
"@  c #031400",
"#  c #081104",
"$  c #041D00",
"%  c #0C1409",
"&  c #121D07",
"*  c #14130D",
"=  c #151E0E",
"-  c #1C190F",
";  c #141411",
":  c #1B1C14",
">  c #1D1E19",
",  c #201E15",
"<  c #062300",
"1  c #092501",
"2  c #072B00",
"3  c #082E00",
"4  c #10240A",
"5  c #192D0D",
"6  c #073400",
"7  c #093400",
"8  c #093A00",
"9  c #133607",
"0  c #113A05",
"q  c #182213",
"w  c #282219",
"e  c #2B2A1C",
"r  c #232A1C",
"t  c #302C1F",
"y  c #2F351C",
"u  c #283C1F",
"i  c #31301F",
"p  c #262620",
"a  c #272A20",
"s  c #2A2A23",
"d  c #322F20",
"f  c #373B22",
"g  c #3C3824",
"h  c #33332B",
"j  c #333B29",
"k  c #3E3E34",
"l  c #423F2A",
"z  c #0B4300",
"x  c #0C4A00",
"c  c #0E5400",
"v  c #0F5B00",
"b  c #125604",
"n  c #185207",
"m  c #125F02",
"M  c #20430F",
"N  c #33421F",
"B  c #2A5416",
"V  c #245B15",
"C  c #32551D",
"Z  c #106100",
"A  c #126C00",
"S  c #137500",
"D  c #157C00",
"F  c #187D03",
"G  c #25670E",
"H  c #206F0E",
"J  c #247B0B",
"K  c #3A691E",
"L  c #384C23",
"P  c #3C5A2D",
"I  c #3F4534",
"U  c #3B6B2A",
"Y  c #47412C",
"T  c #414036",
"R  c #4A4530",
"E  c #444439",
"W  c #524E34",
"Q  c #475B39",
"!  c #5C5539",
"~  c #545547",
"^  c #5D5C4D",
"/  c #535B45",
"(  c #5E7A4A",
")  c #676040",
"_  c #6C6544",
"`  c #707947",
"'  c #6F6F5D",
"]  c #666A55",
"[  c #6F775C",
"{  c #71715E",
"}  c #797966",
"|  c #158400",
" . c #1A8503",
".. c #168A00",
"X. c #188901",
"o. c #189400",
"O. c #1A9D00",
"+. c #248B0D",
"@. c #25910D",
"#. c #1BA300",
"$. c #1CAA00",
"%. c #1EB400",
"&. c #1FBC00",
"*. c #21A804",
"=. c #25A00A",
"-. c #20BE00",
";. c #538A3C",
":. c #21C500",
">. c #29C708",
",. c #38CC16",
"<. c #49C529",
"1. c #4FCF2C",
"2. c #4AD028",
"3. c #53D331",
"4. c #60D63D",
"5. c #728F5A",
"6. c #798F62",
"7. c #7F9467",
"8. c #63CC42",
"9. c #7BD159",
"0. c #838452",
"q. c #91965C",
"w. c #84846E",
"e. c #9F9965",
"r. c #878870",
"t. c #888D71",
"y. c #8E9F75",
"u. c #98967A",
"i. c #A69B67",
"p. c #A59E69",
"a. c #AB9F6C",
"s. c #9F9F85",
"d. c #A2A287",
"f. c #A9A98E",
"g. c #ABAB90",
"h. c #BBBB9D",
"j. c #B3B396",
"k. c #AFE68A",
"l. c #B1EB8B",
"z. c #C5C5A6",
"x. c #CDCDAC",
"c. c #D4D7B1",
"v. c #D6EAB0",
"b. c #DBEFB4",
"n. c #DFE0BB",
"m. c #E5E5C0",
"M. c #ECECC6",
"N. c #E9EAC4",
"B. c #EFEFC8",
"V. c #F1F1CA",
"C. c #F7F7CF",
"Z. c #F4F4CC",
"A. c #F3F3CC",
"S. c #F9F9D1",
"D. c #FDFDD4",
"F. c #FFFFD6",
"G. c #FEFED5",
"H. c #F8F8D0",
/* pixels */
"                                                                                                                                ",
"                                                    . . . . . . . . . . . .                                                     ",
"                                                  7 X . . $ 2 3 3 3 X . . 1 7                                                   ",
"                                            . . 3 -.x . . c :.:.&.-.6 . . S %.X . .                                             ",
"                                          K | D S x 5.d.d.( c %.o.x 7.d.d.P c | | D N                                           ",
"                                        5 c :.-.@.> d.F.F.s.: o.+.> h.F.D.} q #.:.&.8 y                                         ",
"                                      # #.-.:.8 j N.H.D.F.S.m.r / M.S.F.F.S.n.% m :.:.| o                                       ",
"                                      X $.:.:.6 j H.D.D.F.F.Z.p ~ D.F.F.F.F.M.+ v :.:....                                       ",
"                                      X $.:.:.6 h H.F.F.F.D.Z.p ~ D.F.F.F.F.M.O b :.:....                                       ",
"                                      X $.:.:.8 h H.F.F.F.D.Z.p ~ F.F.F.F.F.M.O v :.:....                                       ",
"                                      X $.:.:.6 h H.F.F.F.F.Z.p ~ D.F.F.F.F.M.O v :.:....                                       ",
"                                      X $.:.:.6 h V.F.F.F.S.B.p ~ S.F.F.F.S.M.O v :.:...X                                       ",
"                                        7 A -.8 O k h.D.D.f.I @.H E x.D.D.w.k . v &.z L                                         ",
"                                        ; 2 O.c 2 2 [ z.z.7.6 $.O.2 t.z.z.( 2 2 c o.< e                                         ",
"                                        . . . o.:.-.x o o Z :.:.:.-.8 o o F -.:.A . . .                                         ",
"                                        O 7 | $.:.-.#.D | %.:.:.:.:.o.D D #.:.:.#.S X d                                         ",
"                                        5 c :.:.:.:.:.:.:.:.:.:.:.:.:.:.:.:.:.:.:.-.8 y                                         ",
"                                      # $.-.:.:.:.:.:.:.:.:.:.:.:.:.:.:.:.:.:.:.:.:.-.| o                                       ",
"                                      X $.:.:.:.:.:.:.:.:.:.:.:.:.:.:.>.:.:.:.:.:.:.:....                                       ",
"                                      X $.:.:.:.:.:.:.:.>.:.:.:.:.:.:.:.:.:.:.:.:.:.:.X..                                       ",
"                                        & m :.:.:.:.:.:.:.:.:.:.:.:.:.:.:.:.:.:.:.:.6 L                                         ",
"                                          B | | o.:.:.:.:.:.:.:.:.:.:.:.:.:.:.| | X.L                                           ",
"                                            . . 1 -.:.:.:.:.-.-.-.:.:.:.-.-.&.X . .                                             ",
"                                                0.7 7 6 6 6 7 7 6 8 8 x 7 6 0 i.                                                ",
"                                                q.3 X . 2 2 2 2 2 2 2 $ . < 7 i.                                                ",
"                                              d 7 -.x X %.&.:.-.-.-.&.O.. S %.# !                                               ",
"                                            g J S x 1 . z x z x x x x 8 . < c | G Y                                             ",
"                                            < O.#.. . . . . . . . . . . . . X &.| $                                             ",
"                                        o x &.:.O.. . . . . . . . . . . . . X &.:.&.<                                           ",
"                                        O z -.D c . . . . . . . . . . . . . . v o.-.< e                                         ",
"                                        = x -.8 . . . . . . . . . . . . . . . . b &.2 f                                         ",
"                                      = *.%.-.8 . . . . . . . . . . . . . . . . c :.&.F *                                       ",
"                                      X $.$.D 2 . . . . . s ^ ^ ^ ^ O . . . . . 8 | &....                                       ",
"                                    _ X $.... . . . . . . ' S.S.H.Z.~ . . . . . . X #....                                       ",
"                                  d * X $.&.o.o.S . . . . > l I k l ; . . . X ..o.o.&.| . : Y                                   ",
"                                  l : . $.:.:.:.#.. . . . . . . . . . . . . X &.:.:.:.| . h l                                   ",
"                              R > B.r.X $.-.:.:.O.. . . . . . . . . . . . . X &.:.-.:.| . j.x.O                                 ",
"                            l u.s.^ U S x x x x c | 2 X F D D D D D D Z . c S z x x x A D Q { g.^                               ",
"                            . y.v.4 m &.$ X @ @ 6 :.m < &.:.:.:.:.:.:.$.< D &.< @ @ . z -.x u b.] .                             ",
"                            . D >.&.:.&.$ z &.&.&.:.:.&.:.:.:.:.:.:.:.:.&.-.:.&.&.%.$ z :.:.-.>.n .                             ",
"                            . D :.:.:.&.< z :.:.:.:...S -.O.A 9.4.:.:.%.A #.:.:.:.-.< z :.:.:.:.c .                             ",
"                            o F :.:.:.&.$ z :.:.-.&.x @ %.A O x.l.:.:.#.. A &.:.:.-.$ z :.:.:.-.b .                             ",
"                              j 1 &.:.&.$ z :.:.#.$ @ X &.A . * V :.:.O.X X < &.:.&.$ z :.:.#.$ `                               ",
"                              g @ &.:.:.v c D %.O.. . X &...z x A :.:.#.. . X &.#.| x A :.:.#..                                 ",
"                                X &.:.:.:.| X ..O.. . @ -.:.:.:.:.:.:.O.X . X &.A X $.:.:.-.#.X                                 ",
"                                  7 D :.:.&.o.%.O.X . X -.:.:.:.:.:.:.O.. . X &.$.O.&.:.:.v M p.                                ",
"                                  . z O.:.:.:.:.#.. . X %.$.O.3.,.:.:.#.. . X &.:.:.:.$.O.6 * a.                                ",
"                                  . . X $.:.:.:.O.. . X -.A O c.l.:.:.#.X . X &.:.:.:.| . . . .                                 ",
"                                  . . . 8 x x z 8 . . X &.#.F Q ;.:.:.#.. . . z x x x 6 . . . .                                 ",
"                                  + . . . . . . . . . X #.-.-.6 x :.%.... . . . . . . . . . o +                                 ",
"                                      . . . . . . . . . . Z :.:.&.:.8 X . . . . . . . . . . ,                                   ",
"                                                    Y W . v :.:.:.-.8 O !                                                       ",
"                                                        . m :.:.:.:.8 q                                                         ",
"                                                        . m :.:.:.:.8 o                                                         ",
"                                                        . 8  .8.3.:.8 .                                                         ",
"                                                        . . O c.l.:.8 .                                                         ",
"                                                        . x o.<.1.-.8 .                                                         ",
"                                                        w n O.-.$.O.B                                                           ",
"                                                          ) X $...X                                                             ",
"                                                            X $.| .                                                             ",
"                                                            X $....                                                             ",
"                                                            X $....                                                             ",
"                                                            X $....                                                             ",
"                                                            X $.| .                                                             "
};
