/* XPM */
static char *result[] = {
/* columns rows colors chars-per-pixel */
"64 64 142 2 ",
"   c #010200",
".  c #020C00",
"X  c #0A0B07",
"o  c #0D0C09",
"O  c #031400",
"+  c #041A00",
"@  c #091E02",
"#  c #13130B",
"$  c #131B0C",
"%  c #1B1F0F",
"&  c #161612",
"*  c #191711",
"=  c #1C1B12",
"-  c #1F1F1A",
";  c #221D15",
":  c #062400",
">  c #082601",
",  c #072B00",
"<  c #092A02",
"1  c #083300",
"2  c #0A3C00",
"3  c #133807",
"4  c #1D2C15",
"5  c #232216",
"6  c #23231B",
"7  c #292519",
"8  c #272C19",
"9  c #2B2D19",
"0  c #232A16",
"q  c #302D1D",
"w  c #2B2B24",
"e  c #322F21",
"r  c #2D3423",
"t  c #3C3725",
"y  c #3C3B26",
"u  c #35352C",
"i  c #3E3B28",
"p  c #3B3B32",
"a  c #423E2A",
"s  c #0B4201",
"d  c #0C4C00",
"f  c #104D03",
"g  c #0E5300",
"h  c #0E5C00",
"j  c #115B02",
"k  c #1A5807",
"l  c #20550E",
"z  c #265F11",
"x  c #32551C",
"c  c #0F6200",
"v  c #116600",
"b  c #126C00",
"n  c #1F6C0B",
"m  c #137300",
"M  c #1A7604",
"N  c #147A00",
"B  c #1E7308",
"V  c #27740E",
"C  c #23790B",
"Z  c #396B1D",
"A  c #304B24",
"S  c #3A4E2D",
"D  c #38502A",
"F  c #424129",
"G  c #4C4731",
"H  c #454F37",
"J  c #454E38",
"K  c #4A4A3E",
"L  c #504A32",
"P  c #415034",
"I  c #49563C",
"U  c #555534",
"Y  c #585239",
"T  c #5E583D",
"R  c #51622E",
"E  c #447930",
"W  c #61753A",
"Q  c #525444",
"!  c #555548",
"~  c #5C5C4C",
"^  c #615E47",
"/  c #596948",
"(  c #646141",
")  c #6B6445",
"_  c #746D4B",
"`  c #7E7E4F",
"'  c #616150",
"]  c #6A6A59",
"[  c #73735F",
"{  c #807751",
"}  c #857E54",
"|  c #168300",
" . c #1A8304",
".. c #178B00",
"X. c #198C02",
"o. c #199300",
"O. c #1A9C00",
"+. c #1BA400",
"@. c #1CAA00",
"#. c #1EB400",
"$. c #1FBC00",
"%. c #22A805",
"&. c #20BF00",
"*. c #3BA820",
"=. c #3EA223",
"-. c #41822D",
";. c #498533",
":. c #599A3F",
">. c #1FC000",
",. c #21C500",
"<. c #29C408",
"1. c #39CA17",
"2. c #4BD129",
"3. c #6AB24C",
"4. c #74B456",
"5. c #7AC659",
"6. c #8E845A",
"7. c #968C5F",
"8. c #898973",
"9. c #929279",
"0. c #B6A874",
"q. c #81D75D",
"w. c #81D95C",
"e. c #89DD66",
"r. c #90DD6D",
"t. c #ACAC90",
"y. c #B0B095",
"u. c #BFBFA0",
"i. c #ABE785",
"p. c #B1E78B",
"a. c #B7E991",
"s. c #DCCD8A",
"d. c #E3D490",
"f. c #C4C4A4",
"g. c #D9D9B7",
"h. c #DCDDB9",
"j. c #E3E3BE",
"k. c #E0F3B9",
"l. c #EDEDC7",
"z. c #EEF5C7",
"x. c #F4F4CD",
"c. c None",
/* pixels */
"c.c.c.c.c.c.c.c.c.c.c.c.c.c.c.c.c.c.c.c.c.c.c.c.c.c.c.c.c.c.c.c.c.c.c.c.c.c.c.c.c.c.c.c.c.c.c.c.c.c.c.c.c.c.c.c.c.c.c.c.c.c.c.c.",
"c.c.c.c.c.c.c.c.c.c.c.c.c.c.c.c.c.c.c.c.c.c.c.c.c.c.c.c.c.c.c.c.c.c.c.c.c.c.c.c.c.c.c.c.c.c.c.c.c.c.c.c.c.c.c.c.c.c.c.c.c.c.c.c.",
"c.c.c.c.c.c.c.c.c.c.c.c.c.c.c.c.c.c.c.c.c.c.c.c.c.c.c.c.c.c.c.c.c.c.c.c.c.c.c.c.c.c.c.c.c.c.c.c.c.c.c.c.c.c.c.c.c.c.c.c.c.c.c.c.",
"c.c.c.c.c.c.c.c.c.c.c.c.c.c.c.c.c.c.c.c.c.c.c.c.c.c.c.c.c.c.c.c.c.c.c.c.c.c.c.c.c.c.c.c.c.c.c.c.c.c.c.c.c.c.c.c.c.c.c.c.c.c.c.c.",
"c.c.c.c.c.c.c.c.c.c.c.c.c.c.c.c.c.c.c.c.c.c.c.c.c.c.c.c.c.c.c.c.c.c.c.c.c.c.c.c.c.c.c.c.c.c.c.c.c.c.c.c.c.c.c.c.c.c.c.c.c.c.c.c.",
"c.c.c.c.c.c.c.c.c.c.c.c.c.c.c.c.c.c.c.c.c.c.c.c.c.c.c.c.c.c.c.c.c.c.c.c.c.c.c.c.c.c.c.c.c.c.c.c.c.c.c.c.c.c.c.c.c.c.c.c.c.c.c.c.",
"c.c.c.c.c.c.c.c.c.c.c.c.c.c.c.c.c.c.c.c.c.c.c.c.c.c.c.c.c.c.c.c.c.c.c.c.c.c.c.c.c.c.c.c.c.c.c.c.c.c.c.c.c.c.c.c.c.c.c.c.c.c.c.c.",
"c.c.c.c.c.c.c.c.c.c.c.c.c.c.c.c.c.c.c.c.c.c.c.c.c.c.c.c.c.c.c.c.c.c.c.c.c.c.c.c.c.c.c.c.c.c.c.c.c.c.c.c.c.c.c.c.c.c.c.c.c.c.c.c.",
"c.c.c.c.c.c.c.c.c.c.c.c.c.c.c.c.c.c.c.c.c.c.c.c.c.c.c.c.c.c.c.c.c.c.c.c.c.c.c.c.c.c.c.c.c.c.c.c.c.c.c.c.c.c.c.c.c.c.c.c.c.c.c.c.",
"c.c.c.c.c.c.c.c.c.c.c.c.c.c.c.c.c.c.c.c.c.c.c.c.c.c.c.c.c.c.c.c.c.c.c.c.c.c.c.c.c.c.c.c.c.c.c.c.c.c.c.c.c.c.c.c.c.c.c.c.c.c.c.c.",
"c.c.c.c.c.c.c.c.c.c.c.c.c.c.c.c.c.c.c.c.c.c.c.~ ] c.c.c.c.c.c.c.c.c.c.c.c.c.c.c.c.c.c.c.c.c.c.c.c.c.c.c.c.c.c.c.c.c.c.c.c.c.c.c.",
"c.c.c.c.c.c.c.c.c.c.c.c.c.c.c.c.c.c.c.c.c.c.w x.9.. c.c.c.c.c.c.c.c.c.c.c.c.c.c.c.c.c.c.c.c.c.c.c.c.c.c.c.c.c.c.c.c.c.c.c.c.c.c.",
"c.c.c.c.c.c.c.c.c.c.c.c.c.c.c.c.c.c.c.c.c.    K w   ; c.c.c.c.c.c.c.c.c.c.c.c.c.c.c.c.c.c.c.c.c.c.c.c.c.c.c.c.c.c.c.c.c.c.c.c.c.",
"c.c.c.c.c.c.c.c.c.c.c.c.c.c.c.c.c.c.c.c.c.    O .   - u c.c.c.c.c.c.c.c.c.c.c.c.c.c.c.c.c.c.c.c.c.c.c.c.c.c.c.c.c.c.c.c.c.c.c.c.",
"c.c.c.c.c.c.c.c.c.c.o           c.c.c.c.c.  + #.v X f.f.o c.c.c.c.c.c.c.c.c.c.c.c.c.c.c.c.c.c.c.c.c.c.c.c.c.c.c.c.c.c.c.c.c.c.c.",
"c.c.c.c.c.c.c.c.c.c.j c h h h c x ) c.c.c.6 # e.E   ] [ . c.c.c.c.  c.c.c.c.c.c.c.c.c.c.c.c.c.c.c.c.c.c.c.c.c.c.c.c.c.c.c.c.c.c.",
"c.c.c.c.c.c.c.c.U O #.>.>.>.,.,.b . . F d.a 5 l.8.        c.c.c.c.  c.c.c.c.c.c.c.c.c.c.c.c.c.c.c.c.c.c.c.c.c.c.c.c.c.c.c.c.c.c.",
"c.c.c.c.c.c.c.= B @.>...: O.,.,.$.+.@.m = o   w &    .N   c.c.c.c.  c.c.c.c.c.c.c.c.c.c.c.c.c.c.c.c.c.c.c.c.c.c.c.c.c.c.c.c.c.c.",
"c.c.c.c.c.c.c.  m >.o.b   o.>.,.,.,.,.+.1 .   1 +   =.*.c.c.c.c.c.  ) c.c.c.c.c.c.c.c.c.c.c.c.c.c.c.c.c.c.c.c.c.c.c.c.c.c.c.c.c.",
"c.c.c.c.c.c.c.  m $.+     o.,.,.,.,.,.,.>.s O $.b   c.c.c.c.c.c.c.    5 c.c.c.c.c.c.c.c.c.c.c.c.c.c.c.c.c.c.c.c.c.c.c.c.c.c.c.c.",
"c.c.c.c.c.c.c.  m ,.| N N #.,.,.,.,.,.,.,.O.| >.b   c.c.c.c.c.c.s N | M y c.c.c.c.c.c.c.c.c.c.c.c.c.c.c.c.c.c.c.c.c.c.c.c.c.c.c.",
"c.c.c.c.c.c.c.  b ,.,.,.,.,.,.,.,.,.,.,.,.,.,.,.M O c.c.c.c.c.O h ,.,.+.+ c.c.c.c.c.c.c.c.c.c.c.c.c.c.c.c.c.c.c.c.c.c.c.c.c.c.c.",
"c.c.c.c.c.c.c.  m ,.,.,.,.,.,.,.,.,.,.,.,.,.,.,.&.#.> .     O #.,.,.,.,.$.j   c.c.c.c.c.c.c.c.c.c.c.c.c.c.c.c.c.c.c.c.c.c.c.c.c.",
"c.c.c.c.c.c.c.c.z N ,.,.,.,.,.,.,.,.,.,.,.,.,.,.,.,.m h g g h >.,.,.,.,.,.h   c.c.c.c.c.c.c.c.c.c.c.c.c.c.c.c.c.c.c.c.c.c.c.c.c.",
"c.c.c.c.c.c.c.c.Y . #.>.,.,.,.,.,.,.,.,.,.,.&.,.,.,.,.,.,.,.>.,.,.,.,.,.,.j   c.c.c.c.c.c.c.c.c.c.c.c.c.c.c.c.c.c.c.c.c.c.c.c.c.",
"c.c.c.c.c.c.c.c.c.c.3 1 1 O.,.,.,.,.,.O., , , , m ,.,.,.,.,.,.,.,.,.,.+.2 W c.c.c.c.c.c.c.c.c.c.c.c.c.c.c.c.c.c.c.c.c.c.c.c.c.c.",
"c.c.c.c.c.c.c.c.c.c.c.* 7 m O.O.O.O.+.X., , , , b ,.,.,.,.,.,.,.#.O.+.o.8 c.c.c.c.c.c.c.c.c.c.c.c.c.c.c.c.c.c.c.c.c.c.c.c.c.c.c.",
"c.c.c.c.c.c.c.c.c.c.c.c.c.9           s &.&.,.,.,.>.,.,.,.,.,.,.N     5 c.c.c.c.c.c.c.c.c.c.c.c.c.c.c.c.c.c.c.c.c.c.c.c.c.c.c.c.",
"c.c.c.c.c.c.c.c.c.c.c.c.c.; + m m m b | ,.,.#.g ..,.c g g g g h Z _ c.c.c.c.c.c.c.c.c.c.c.c.c.c.c.c.c.c.c.c.c.c.c.c.c.c.c.c.c.c.",
"c.c.c.c.c.c.c.c.c.c.c.c.c.c.> #.$.$.$.&.&.$.+.O h $.1     . X   G c.c.c.c.c.c.c.c.c.c.c.c.c.c.c.c.c.c.c.c.c.c.c.c.c.c.c.c.c.c.c.",
"c.c.c.c.c.c.c.c.c.c.c.c.c.c.c.O O O . O . . : #.$.,.$...  { s.c.c.c.c.c.c.c.c.c.c.c.c.c.c.c.c.c.c.c.c.c.c.c.c.c.c.c.c.c.c.c.c.c.",
"c.c.c.c.c.c.c.c.c.c.c.c.c.c.c.c.c.c.c.= a # O $.,.,.,.@.d R 6.c.c.c.c.c.c.c.c.c.c.c.c.c.c.c.c.c.c.c.c.c.c.c.c.c.c.c.c.c.c.c.c.c.",
"c.c.c.c.c.c.c.c.c.c.c.c.c.c.c.c.c.c.c.c.c.y O $.,.,.,.>.,.g         c.c.c.c.c.c.c.c.c.c.c.c.c.&       # c.c.c.c.c.c.c.c.c.c.c.c.",
"c.c.c.c.c.c.c.c.c.c.c.c.c.c.c.c.c.c.c.c.c.y   , N ,.,.+.1 N ..      = c.c.c.c.c.c.c.c.c.c.# 9 X.O.O.o...8 * c.c.c.c.c.c.c.c.c.c.",
"c.c.c.c.c.c.c.c.c.c.c.c.c.c.c.c.c.c.c.c.c.^ w   h ,.,.o.  m $., .       c.c.c.c.c.c.c.c., 0 r #.,.,.>.#., : , c.c.c.c.c.c.c.c.c.",
"c.c.c.c.c.c.c.c.c.c.c.c.c.c.c.c.c.c.c.c.X y.g.X h ,.,.o.  N ,.,.m       c.c.c.c.c.c.e , &.r.z.1.,.,.,.,.,.&.$.> c.c.c.c.c.c.c.c.",
"c.c.c.c.c.c.c.c.c.c.c.c.c.c.c.c.c.c.c.c.  :.5.X g ,.,.o.  N ,.,.m       c.c.c.c.c.U V N ,.2.w.n c c c h h o.&.: ; c.c.c.c.c.c.c.",
"c.c.c.c.c.c.c.c.c.c.c.c.c.c.c.c.c.c.c.c.o | @.. h ,.,.o.  N ,.,.N       c.c.c.c.c.. O.,.,.>.$.@           h $., 9 c.c.c.c.c.c.c.",
"c.c.c.c.c.c.c.c.c.c.c.c.c.c.c.c.c.c.X ' j.J , @.#.,.,.o.  N ,.,.N     - c.c.c.= k #.>.>.,.b @ c.c.c.c.c.c.U + +...# c.c.c.c.c.c.",
"c.c.c.c.c.c.c.c.c.c.c.c.c.c.c.c.c.c.  D p.S + $.,.>.o.N s o.,.,.m     # } 6.6.~ -.,.>.#. .z a c.c.c.c.c.c.c.q M c   c.c.c.c.c.c.",
"c.c.c.c.c.c.c.c.c.c.c.c.c.c.c.c.c.c.  s ,.2 + &.>.>., 1 >.,.,.>.N           # j.i.,.,.@.. ( c.c.c.c.c.c.c.c.c.#     c.c.c.c.c.c.",
"c.c.c.c.c.c.c.c.c.c.c.c.c.c.c.c.c.c.  H a.S   2 2 s ..o.,.,.$.s ,     +  ... .I ;.>.,.@.  c.c.c.c.c.c.c.c.c.c.c.T   c.c.c.c.c.c.",
"c.c.c.c.c.c.c.c.c.c.c.c.c.c.c.c.c.c.  H k.!   + + + +.,.,.#.@.: O O O 2 ,.,.&., g >.#.%.$ c.c.c.c.c.c.c.c.c.c.c.c.c.c.c.c.c.c.c.",
"c.c.c.c.c.c.c.c.c.c.c.c.c.c.c.c.c.c.  2 <.2 + #.$.>.,.,.>.g O #.>.$.$.$.,.,.,.,.>.>.s % c.c.c.c.c.c.c.c.c.c.c.c.c.c.c.c.c.c.c.c.",
"c.c.c.c.c.c.c.c.c.c.c.c.c.c.c.c.c.c.  S e.A O $.,.,.,.,.,.d . $.,.,.,.,.,.,.,.,.>.>.2 o c.c.c.c.c.c.c.c.c.c.c.c.c.c.c.c.c.c.c.c.",
"c.c.c.c.c.c.c.c.c.c.c.c.c.c.c.c.c.c.X ! x.! + $.,.,.,.,.,.d O $.,.,.,.,.,.,.,.,.,.>.2 X c.c.c.c.c.c.c.c.c.c.c.c.c.c.c.c.c.c.c.c.",
"c.c.c.c.c.c.c.c.c.c.c.c.c.c.c.c.c.c.c._ w & O >.>.,.,.o.: m +.,.,.,.,.,.,.,.,.,..., c.c.c.c.c.c.c.c.c.c.c.c.c.c.c.c.c.c.c.c.c.c.",
"c.c.c.c.c.c.c.c.c.c.c.c.c.c.c.c.c.c.c.c.  u P X.o...o.N 2 ..,.,.,.,.,.,.,.,.,.+.C 9 c.c.c.c.c.c.c.c.c.c.c.c.c.c.c.c.c.c.c.c.c.c.",
"c.c.c.c.c.c.c.c.c.c.c.c.c.c.c.c.c.c.c.7.  t.h.o       2 ,.,.,.>.,.,.>.>.>.,.$.+ F c.c.c.c.c.c.c.c.c.c.c.c.c.c.c.c.c.c.c.c.c.c.c.",
"c.c.c.c.c.c.c.c.c.c.c.c.c.c.c.c.c.  i e   p /  .s   b ..,.,.$.d | ,.,.@.d s f ` c.c.c.c.c.c.c.c.c.c.c.c.c.c.c.c.c.c.c.c.c.c.c.c.",
"c.c.c.c.c.c.c.c.c.c.c.c.c.c.c..             O @.b   O.,.,.,.$.+ s #.#.o.      0.c.c.c.c.c.c.c.c.c.c.c.c.c.c.c.c.c.c.c.c.c.c.c.c.",
"c.c.c.c.c.c.c.c.c.c.c.c.                            +.,.,.,.,.,.m . . .       X G c.c.c.c.c.c.c.c.c.c.c.c.c.c.c.c.c.c.c.c.c.c.c.",
"c.c.c.c.c.c.c.c.c.c.c.L               : g g g g g g v ..>.,.,.,.+.g .           = c.c.c.c.c.c.c.c.c.c.c.c.c.c.c.c.c.c.c.c.c.c.c.",
"c.c.c.c.c.c.c.c.c.c.          X .     s ,.>.,.,.,.>., 1 ,.,.,.,.>.>.,               c.c.c.c.c.c.c.c.c.c.c.c.c.c.c.c.c.c.c.c.c.c.",
"c.c.c.c.c.c.c.c.c.c.        6 f.3.O.O.+.,.,.,.,.,.,.@.+.,.,.,.,.,.>.,               c.c.c.c.c.c.c.c.c.c.c.c.c.c.c.c.c.c.c.c.c.c.",
"c.c.c.c.c.c.c.c.c.c.7 o     & f.4.+.O.O.O.O.O.+.O.O.O.+.O.O.O.O.O.O.:           # 5 c.c.c.c.c.c.c.c.c.c.c.c.c.c.c.c.c.c.c.c.c.c.",
"c.c.c.c.c.c.c.c.c.c.c.c.        .               .                               F c.c.c.c.c.c.c.c.c.c.c.c.c.c.c.c.c.c.c.c.c.c.c.",
"c.c.c.c.c.c.c.c.c.c.c.c.c.c.c.c.c.c.c.c.c.c.c.c.c.c.c.c.c.c.c.c.c.c.c.c.c.c.c.c.c.c.c.c.c.c.c.c.c.c.c.c.c.c.c.c.c.c.c.c.c.c.c.c.",
"c.c.c.c.c.c.c.c.c.c.c.c.c.c.c.c.c.c.c.c.c.c.c.c.c.c.c.c.c.c.c.c.c.c.c.c.c.c.c.c.c.c.c.c.c.c.c.c.c.c.c.c.c.c.c.c.c.c.c.c.c.c.c.c.",
"c.c.c.c.c.c.c.c.c.c.c.c.c.c.c.c.c.c.c.c.c.c.c.c.c.c.c.c.c.c.c.c.c.c.c.c.c.c.c.c.c.c.c.c.c.c.c.c.c.c.c.c.c.c.c.c.c.c.c.c.c.c.c.c.",
"c.c.c.c.c.c.c.c.c.c.c.c.c.c.c.c.c.c.c.c.c.c.c.c.c.c.c.c.c.c.c.c.c.c.c.c.c.c.c.c.c.c.c.c.c.c.c.c.c.c.c.c.c.c.c.c.c.c.c.c.c.c.c.c.",
"c.c.c.c.c.c.c.c.c.c.c.c.c.c.c.c.c.c.c.c.c.c.c.c.c.c.c.c.c.c.c.c.c.c.c.c.c.c.c.c.c.c.c.c.c.c.c.c.c.c.c.c.c.c.c.c.c.c.c.c.c.c.c.c.",
"c.c.c.c.c.c.c.c.c.c.c.c.c.c.c.c.c.c.c.c.c.c.c.c.c.c.c.c.c.c.c.c.c.c.c.c.c.c.c.c.c.c.c.c.c.c.c.c.c.c.c.c.c.c.c.c.c.c.c.c.c.c.c.c.",
"c.c.c.c.c.c.c.c.c.c.c.c.c.c.c.c.c.c.c.c.c.c.c.c.c.c.c.c.c.c.c.c.c.c.c.c.c.c.c.c.c.c.c.c.c.c.c.c.c.c.c.c.c.c.c.c.c.c.c.c.c.c.c.c."
};
