/* XPM */
static char *result[] = {
/* columns rows colors chars-per-pixel */
"64 64 204 2 ",
"   c #000100",
".  c #030B01",
"X  c #090906",
"o  c #0D0D09",
"O  c #080707",
"+  c #041500",
"@  c #091205",
"#  c #041C00",
"$  c #0A1B04",
"%  c #0D1709",
"&  c #13120C",
"*  c #19170F",
"=  c #111C08",
"-  c #1A1C13",
";  c #171710",
":  c #062300",
">  c #0C2305",
",  c #072B00",
"<  c #0B2C03",
"1  c #13230A",
"2  c #152C0A",
"3  c #093401",
"4  c #0A3C00",
"5  c #17390B",
"6  c #1D2111",
"7  c #1C2A15",
"8  c #1D3713",
"9  c #232116",
"0  c #24251B",
"q  c #2D2A1D",
"w  c #252A18",
"e  c #302D1F",
"r  c #213C13",
"t  c #30331E",
"y  c #30381D",
"u  c #292921",
"i  c #262620",
"p  c #332F21",
"a  c #2B3422",
"s  c #2F3826",
"d  c #3B3C2E",
"f  c #353828",
"g  c #3F3F35",
"h  c #423E2A",
"j  c #0B4400",
"k  c #0C4D00",
"l  c #134B06",
"z  c #1A470B",
"x  c #0D5100",
"c  c #0F5B00",
"v  c #135D04",
"b  c #195A07",
"n  c #1C5C0C",
"m  c #175706",
"M  c #1C4211",
"N  c #20470F",
"B  c #225C0D",
"V  c #284916",
"C  c #2A5C16",
"Z  c #325B1C",
"A  c #116401",
"S  c #136B01",
"D  c #1C6807",
"F  c #147400",
"G  c #157C00",
"H  c #1B7C04",
"J  c #1C7607",
"K  c #25630F",
"L  c #236B0D",
"P  c #2D6D14",
"I  c #2A6313",
"U  c #34641B",
"Y  c #297613",
"T  c #2B7D14",
"R  c #2E4323",
"E  c #3A4A25",
"W  c #395022",
"Q  c #385827",
"!  c #3E5031",
"~  c #3C4A30",
"^  c #397825",
"/  c #346E22",
"(  c #48432D",
")  c #49572C",
"_  c #454639",
"`  c #494835",
"'  c #514C35",
"]  c #485439",
"[  c #55513C",
"{  c #59543B",
"}  c #5F5B3D",
"|  c #585B37",
" . c #625A3E",
".. c #446625",
"X. c #4B692A",
"o. c #4D722C",
"O. c #57743A",
"+. c #536F33",
"@. c #63683E",
"#. c #697B3E",
"$. c #4D4D40",
"%. c #515443",
"&. c #5C5C4D",
"*. c #5A5D46",
"=. c #605B44",
"-. c #596948",
";. c #5D7C49",
":. c #6C6445",
">. c #696548",
",. c #756D4C",
"<. c #697140",
"1. c #7A724E",
"2. c #747B47",
"3. c #656555",
"4. c #696B56",
"5. c #6E7859",
"6. c #797559",
"7. c #757562",
"8. c #777A63",
"9. c #7C7A63",
"0. c #7E7E69",
"q. c #837A55",
"w. c #807D65",
"e. c #168300",
"r. c #1A8303",
"t. c #178D00",
"y. c #198C01",
"u. c #199400",
"i. c #1A9B00",
"p. c #179000",
"a. c #208309",
"s. c #218709",
"d. c #26940D",
"f. c #2A8813",
"g. c #33941A",
"h. c #1BA300",
"j. c #1CAC00",
"k. c #1EB300",
"l. c #1FBB00",
"z. c #25A609",
"x. c #23BA04",
"c. c #27B509",
"v. c #31AC14",
"b. c #34B815",
"n. c #398A22",
"m. c #399620",
"M. c #3FB821",
"N. c #55B737",
"B. c #47A02D",
"V. c #21C600",
"C. c #3BC21A",
"Z. c #49CA27",
"A. c #5B8A44",
"S. c #718043",
"D. c #5FA244",
"F. c #6BB64D",
"G. c #7E8568",
"H. c #7CA362",
"J. c #70D54D",
"K. c #65CA44",
"L. c #8C835B",
"P. c #8A835A",
"I. c #90865C",
"U. c #83846D",
"Y. c #888564",
"T. c #938D67",
"R. c #9C9263",
"E. c #9E9863",
"W. c #8B8B74",
"Q. c #8F8F79",
"!. c #908F75",
"~. c #8F9078",
"^. c #92927A",
"/. c #96967A",
"(. c #A59A69",
"). c #8AB56D",
"_. c #ADA16F",
"`. c #B6AA75",
"'. c #C7B97E",
"]. c #9ED97A",
"[. c #86C467",
"{. c #9C9C83",
"}. c #A09F83",
"|. c #9DA083",
" X c #A4A787",
".X c #AFAF92",
"XX c #B6B699",
"oX c #BCBC9D",
"OX c #B1B195",
"+X c #AAB08D",
"@X c #C9BB80",
"#X c #AEE888",
"$X c #CEC183",
"%X c #DDCD8C",
"&X c #D7C988",
"*X c #E0D18E",
"=X c #E4D491",
"-X c #F3E29A",
";X c #CACAA9",
":X c #D0D0AE",
">X c #D6D6B4",
",X c #C6D0A5",
"<X c #F3F3CC",
"1X c None",
/* pixels */
"1X1X1X1X1X1X1X1X1X1X1X1X1X1X1X1X1X1X1X1X1X1X1X1X1X1X1X1X1X1X1X1X1X1X1X1X1X1X1X1X1X1X1X1X1X1X1X1X1X1X1X1X1X1X1X1X1X1X1X1X1X1X1X1X",
"1X1X1X1X1X1X1X1X1X1X1X1X1X1X1X1X1X1X1X1X1X1X1X1X1X1X1X1X1X1X1X1X1X1X1X1X1X1X1X1X1X1X1X1X1X1X1X1X1X1X1X1X1X1X1X1X1X1X1X1X1X1X1X1X",
"1X1X1X1X1X1X1X1X1X1X1X1X1X1X1X1X1X1X1X1X1X1X1X1X1X1X1X1X1X1X1X1X1X1X1X1X1X1X1X1X1X1X1X1X1X1X1X1X1X1X1X1X1X1X1X1X1X1X1X1X1X1X1X1X",
"1X1X1X1X1X1X1X1X1X1X1X1X1X1X1X1X1X1X1X1X1X1X1X1X1X1X1X1X1X1X1X1X1X1X1X1X1X1X1X1X1X1X1X1X1X1X1X1X1X1X1X1X1X1X1X1X1X1X1X1X1X1X1X1X",
"1X1X1X1X1X1X1X1X1X1X1X1X1X1X1X1X1X1X1X1X1X1X1X1X1X1X1X1X1X1X1X1X1X1X1X1X1X1X1X1X1X1X1X1X1X1X1X1X1X1X1X1X1X1X1X1X1X1X1X1X1X1X1X1X",
"1X1X1X1X1X1X1X1X1X1X1X1X1X1X1X1X1X1X1X1X1X1X1X1X1X1X1X1X1X1X1X1X1X1X1X1X1X1X1X1X1X1X1X1X1X1X1X1X1X1X1X1X1X1X1X1X1X1X1X1X1X1X1X1X",
"1X1X1X1X1X1X1X1X1X1X1X1X1X1X1X1X1X1X1X1X1X1X1X1X1X`.(.` { :.1X1X1X1X1X,.} ` L.`.1X1X1X1X1X1X1X1X1X1X1X1X1X1X1X1X1X1X1X1X1X1X1X1X",
"1X1X1X1X1X1X1X1X1X1X1X1X1X1X1X1X1X1X1X1X1X1X1X1X_.Y.9.^.!.W.,.I.1XR.6.U.!.^.9.P.(.1X1X1X1X1X1X1X1X1X1X1X1X1X1X1X1X1X1X1X1X1X1X1X",
"1X1X1X1X1X1X1X1X1X1X1X1X1X1X1X1X1X1X1X1X1X1X1X`.T.W.Q.OX{.W.6.q.`.Y.6.U.{..X{.W.Y.`.1X1X1X1X1X1X1X1X1X1X1X1X1X1X1X1X1X1X1X1X1X1X",
"1X1X1X1X1X1X1X1X1X1X1X1X1X1X1X1X1X1X1X1X1X1X(.R.q.}.XX>X.X0.0.9.1.q.w.U. X:XoX Xw.Y.(.1X1X1X1X1X1X1X1X1X1X1X1X1X1X1X1X1X1X1X1X1X",
"1X1X1X1X1X1X1X1X1X1X1X1X1X1X1X1X1X1X1X1X1X1X:.6.w.XX;X{.W.7.Q.G.3.U.W.7.U.{.;XXXW.:. .1X1X1X1X1X1X1X1X1X1X1X1X1X1X1X1X1X1X1X1X1X",
"1X1X1X1X1X1X1X1X1X1X1X1X1X1X1X1X1X1X1X1X1X1X{ >.w.OXoX0.8.7.7.W.U.7.w.7.7.8.OXXX^.*.' 1X1X1X1X1X1X1X1X1X1X1X1X1X1X1X1X1X1X1X1X1X",
"1X1X1X1X1X1X1X1X1X1X1X1X1X1X1X1X1X1X1X1X1X1X' %.0.Q.W.d 3.Q.i &.<X3.d U.3.$.0.Q.^.$.h 1X1X1X1X1X1X1X1X1X1X1X1X1X1X1X1X1X1X1X1X1X",
"1X1X1X1X1X1X1X1X1X1X1X1X1X1X1X1X1X1X1X1X1X@.w d 0.{.U.- a ~ - $.>X&.- ~ a - 7.W.^.h 6 | 1X1X1X1X1X1X1X1X1X1X1X1X1X1X1X1X1X1X1X1X",
"1X1X1X1X1X1X1X1X1X1X1X1X1X1X1X1X1X1X1X1X2.W $ a 8.{.U.o + : o ~ oX%.- : @ @ 7.Q.Q.s + V <.1X1X1X1X1X1X1X1X1X1X1X1X1X1X1X1X1X1X1X",
"1X1X1X1X1X1X1X1X1X1X1X1X1X1X1X1X1X1X1Xq B y.c Z 7.Q.G.3 A p.# . o @ # r.A j 5.G.W.Q k u.b - 1X1X1X1X1X1X1X1X1X1X1X1X1X1X1X1X1X1X",
"1X1X1X1X1X1X1X1X1X1X1X1X1X1X1X1X1X1X1Xq B t.e.Y -.-.%.> j F c k x x k S k , ] %.;.T G i.b ; 1X1X1X1X1X1X1X1X1X1X1X1X1X1X1X1X1X1X",
"1X1X1X1X1X1X1X1X1X1X1X1X1X1X1X1X1X1X1Xq n t.l.h.A < . . + 3 h.k.k.l.h.j : . O > b i.k.i.b ; 1X1X1X1X1X1X1X1X1X1X1X1X1X1X1X1X1X1X",
"1X1X1X1X1X1X1X1X1X1X1X1X1X1X1X1X1X1X1Xq n p.l.l.h.t.e.e.e.p.k.V.V.V.l.u.y.G e.t.i.x.x.i.b ; 1X1X1X1X1X1X1X1X1X1X1X1X1X1X1X1X1X1X",
"1X1X1X1X1X1X1X1X1X1X1X1X1X1X1X1X1X1X1Xq N F k.l.k.k.j.j.j.k.V.V.V.V.V.k.j.j.j.k.l.k.k.y.l ; 1X1X1X1X1X1X1X1X1X1X1X1X1X1X1X1X1X1X",
"1X1X1X1X1X1X1X1X1X1X1X1X1X1X1X1X1X1X1Xq 2 , e.i.V.V.V.V.V.V.V.V.V.V.V.V.V.V.V.V.V.h.y.3 > ; 1X1X1X1X1X1X1X1X1X1X1X1X1X1X1X1X1X1X",
"1X1X1X1X1X1X1X1X1X1X1X1X1X1X1X1X1X1X1Xq 8 k t.j.V.V.V.V.V.V.V.V.V.V.V.V.V.V.V.V.V.j.u.k 2 ; 1X1X1X1X1X1X1X1X1X1X1X1X1X1X1X1X1X1X",
"1X1X1X1X1X1X1X1X1X1X1X1X1X1X1X1X1X1X1Xp z v i.j.V.V.V.V.V.V.V.V.V.V.V.V.V.V.V.V.V.k.h.S 5 6 1X1X1X1X1X1X1X1X1X1X1X1X1X1X1X1X1X1X",
"1X1X1X1X1X1X1X1X1X1X1X1X1X1X1X1X1X1X2.K a.h.p.t.u.V.V.V.V.V.V.V.V.V.V.V.V.V.V.k.u.t.t.j.r.D <.1X1X1X1X1X1X1X1X1X1X1X1X1X1X1X1X1X",
"1X1X1X1X1X1X1X1X1X1X1X1X1X1X1X1X1X1X) J y.i.S S e.k.V.V.V.V.V.V.V.V.V.V.V.V.V.k.y.A A h.u.r.E 1X1X1X1X1X1X1X1X1X1X1X1X1X1X1X1X1X",
"1X1X1X1X1X1X1X1X1X1X1X1X1X1X1X1X1X& 1 i.u.t.4 j A h.V.V.V.V.V.V.V.V.V.V.V.V.V.k.F 4 3 e.i.j.:   1X1X1X1X1X1X1X1X1X1X1X1X1X1X1X1X",
"1X1X1X1X1X1X1X1X1X1X1X1X1X1X1X1X1X& 1 i.e.S 4 k G j.V.V.V.V.V.V.V.V.V.V.V.V.V.k.e.k 3 c y.j.#   1X1X1X1X1X1X1X1X1X1X1X1X1X1X1X1X",
"1X1X1X1X1X1X1X1X1X1X1X1X1X1X1X1X1X& 1 i.t.F c A t.k.V.V.V.V.V.V.V.V.V.V.V.V.V.l.u.S c S t.j.:   1X1X1X1X1X1X1X1X1X1X1X1X1X1X1X1X",
"1X1X1X1X1X1X1X1X1X1X1X1X1X1X1X1X1X& 1 i.k.V.V.V.V.V.V.V.V.V.V.V.V.V.V.V.V.V.V.V.V.V.V.V.l.j.:   1X1X1X1X1X1X1X1X1X1X1X1X1X1X1X1X",
"1X1X1X1X1X1X1X1X1X1X1X1X1X1X1X1X1X& 1 i.k.V.V.V.V.V.V.V.V.V.V.V.V.V.V.V.V.V.V.V.V.V.V.V.l.j.:   1X1X1X1X1X1X1X1X1X1X1X1X1X1X1X1X",
"1X1X1X1X1X1X1X1X1X1X1X1X1X1X1X1X1X& 1 i.k.V.V.V.V.V.V.V.V.V.V.V.V.V.V.V.V.V.V.V.V.V.V.V.l.j.#   1X1X1X1X1X1X1X1X1X1X1X1X1X1X1X1X",
"1X1X1X1X1X1X1X1X1X1X1X1X1X1X1X1X1X1X1 i.k.V.V.V.V.V.V.V.V.V.V.V.V.V.V.V.V.V.V.V.V.V.V.V.l.j.# 1X1X1X1X1X1X1X1X1X1X1X1X1X1X1X1X1X",
"1X1X1X1X1X1X1X1X1X1X1X1X1X1X1X1X1X1X) J u.k.V.V.V.V.V.V.V.V.V.V.V.V.V.V.V.V.V.V.V.V.V.k.i.r.W 1X1X1X1X1X1X1X1X1X1X1X1X1X1X1X1X1X",
"1X1X1X1X1X1X1X1X1X1X1X1X1X1X1X1X1X1X1XV L p.l.V.V.V.V.V.V.V.V.V.V.V.V.V.V.V.V.V.V.V.l.h.D 8 1X1X1X1X1X1X1X1X1X1X1X1X1X1X1X1X1X1X",
"1X1X1X1X1X1X1X1X1X1X1X1X1X1X1X1X1X1X1XR.O.U v S t.k.V.V.V.V.V.V.V.V.V.V.V.V.V.l.u.S v P +.1X1X1X1X1X1X1X1X1X1X1X1X1X1X1X1X1X1X1X",
"1X1X1X1X1X1X1X1X1X1X1X1X1X1X1X1X1X1X1X(.#.Z l x G u.j.j.j.j.j.j.k.k.j.j.j.j.j.h.a.B z V 1X1X1X1X1X1X1X1X1X1X1X1X1X1X1X1X1X1X1X1X",
"1X1X1X1X1X1X1X1X1X1X1X1X1X1X1X1X1XP.:. ...P F S A x x x c k x x x k x x x x x n X.2.1X1X1X1X1X1X1X1X1X1X1X1X1X1X1X1X1X1X1X1X1X1X",
"1X1X1X1X1X1X1X1X1X1X1X1X1X1X1X1XR.+.Z C K D S D I ..X.W 8 , x c c c c c j 3 4 z ..1X1X1X1X1X1X1X1X1X1X1X1X1X1X1X1X1X1X1X1X1X1X1X",
"1X1X1X1X1X1X1X1X1X1X1X1X1X1X1X1X:.P S S A A v K o.,.1.=.t + v S S S S A j : 3 z U S.1X1X1X1X1X1X1X1X1X1X1X1X1X1X1X1X1X1X1X1X1X1X",
"1X1X1X1X1X1X1X1X1X1X1X1X1X1X1X1XX r.k.V.G 4 y | (.%X=X(.@.2 F.J.J.J.K.g.b , 4 k S I ..1X1X1X1X1X1X1X1X1X1X1X1X1X1X1X1X1X1X1X1X1X",
"1X1X1X1X1X1X1X1X1X1X1X1X1X1X1X1X  F h.k.H z @.q.'.*X*X(.} 7 ).].#X].[.^ n 3 3 j c D P 1X1X1X1X1X1X1X1X1X1X1X1X1X1X1X1X1X1X1X1X1X",
"1X1X1X1X1X1X1X1X1X1X1X1X1X1X1X1X. c e.p.Y ) E.'.-X*X'.1.' w  X;X<X>X+XQ M 4 # , x F H s 1X1X1X1X1X1X1X1X1X1X1X1X1X1X1X1X1X1X1X1X",
"1X1X1X1X1X1X1X1X1X1X1X1X1X1X1X1X- w r r +.I.'.%X=X_.1.6 1 > R 5.>X4.! r.i.h.A c A G H q :.1X1X1X1X1X1X1X1X1X1X1X1X1X1X1X1X1X1X1X",
"1X1X1X1X1X1X1X1X1X1X1X1X1X1X1X1X1X0 q (  .I.'.$X'.6.{ + , j l Q |.$.7 u.h.V.t.G G G G 6 ' 1X1X1X1X1X1X1X1X1X1X1X1X1X1X1X1X1X1X1X",
"1X1X1X1X1X1X1X1X1X1X1X1X1X1X1X1X1X1X1X1XI.' L.L.,.q X 4 G k.k.G .   + t.j.V.V.V.x.u.S . & i 1X1X1X1X1X1X1X1X1X1X1X1X1X1X1X1X1X1X",
"1X1X1X1X1X1X1X1X1X1X1X1X1X1X1X1X1X1X1X1.q.U.6.=.p d _ G.^ S k.e..   + t.j.V.V.k.p.c 4 7 &.^.{ ( 1X1X1X1X1X1X1X1X1X1X1X1X1X1X1X1X",
"1X1X1X1X1X1X1X1X1X1X1X1X1X1X1X1X1X1X1Xf 6. X5.] @ ! 4. X-.3 h.G . o > t.h.l.l.h.S , @ s U.,Xf % = 1X1X1X1X1X1X1X1X1X1X1X1X1X1X1X",
"1X1X1X1X1X1X1X1X1X1X1X1X1X1X1X1X1X1X1Xq Z m.v.z.i.z.v.m.B , h.e.. 8.{.! M , , > # , j d.b.Z.z.h.i.K W 1X1X1X1X1X1X1X1X1X1X1X1X1X",
"1X1X1X1X1X1X1X1X1X1X1X1X1X1X1X1X1X1X1Xq C d.c.x.k.c.c.d.b , h.e.. ;.H.R M 4 k j 3 3 j z.d.f.G F F D B 1X1X1X1X1X1X1X1X1X1X1X1X1X",
"1X1X1X1X1X1X1X1X1X1X1X1X1X1X1X1X1X1X1Xq B t.l.V.V.V.x.p.c , i.e.. n.B.8 l c e.G x j k h.F 4 3 4 4 A J Z 1X1X1X1X1X1X1X1X1X1X1X1X",
"1X1X1X1X1X1X1X1X1X1X1X1X1X1X1X1X1X1X1Xq 8 k u.j.V.V.V.j.e.A c j   j D c G i.k.k.p.F v L o.1X1X1X1XZ B > 1X1X1X1X1X1X1X1X1X1X1X1X",
"1X1X1X1X1X1X1X1X1X1X1X1X1X1X1X1X1X1X1X0 1 , e.h.V.V.V.k.i.F j ,   : 4 A e.j.l.V.j.e.S N +.1X1X1X1XX.Z $ 1X1X1X1X1X1X1X1X1X1X1X1X",
"1X1X1X1X1X1X1X1X1X1X1X1X1X1X1X1X1X1X1X* X . A p.V.V.V.V.k.i.#       . j F h.V.V.V.i.F - ( 1X1X1X1X1X1Xq 1X1X1X1X1X1X1X1X1X1X1X1X",
"1X1X1X1X1X1X1X1X1X1X1X1X1X1X1X1X1X- 9 O     k F j.l.V.V.k.i.+         # x p.l.l.k.s.Y d u 9 1X1X1X1X1X1X1X1X1X1X1X1X1X1X1X1X1X1X",
"1X1X1X1X1X1X1X1X1X1X1X1X1X1X1X1X            4 c i.k.V.V.k.u.#           4 e.l.k.h.f./ %.u     1X1X1X1X1X1X1X1X1X1X1X1X1X1X1X1X1X",
"1X1X1X1X1X1X1X1X1X1X1X1X1X1XO                 # k G u.p.e.F +           M n.C.b.t.^ O.).]         1X1X1X1X1X1X1X1X1X1X1X1X1X1X1X",
"1X1X1X1X1X1X1X1X1X1X1X1X1X1Xo X               . , j x x k j .           R A.N.M.p.f.n.D.W     O o 1X1X1X1X1X1X1X1X1X1X1X1X1X1X1X",
"1X1X1X1X1X1X1X1X1X1X1X1X1X1X9 &                                         g U.F.N.z.i.i.e.j     X 9 1X1X1X1X1X1X1X1X1X1X1X1X1X1X1X",
"1X1X1X1X1X1X1X1X1X1X1X1X1X1X1X1XX X X X O X X X O O X X O X . O O X X X ; i u w < < < > $ X O p 1X1X1X1X1X1X1X1X1X1X1X1X1X1X1X1X",
"1X1X1X1X1X1X1X1X1X1X1X1X1X1X1X1X1XX X X X X X X X X X X X X X o X X X X X X X o o X o o X X X 1X1X1X1X1X1X1X1X1X1X1X1X1X1X1X1X1X",
"1X1X1X1X1X1X1X1X1X1X1X1X1X1X1X1X1X1X1X1X1X1X1X1X1X1X1X1X1X1X1X1X1X1X1X1X1X1X1X1X1X1X1X1X1X1X1X1X1X1X1X1X1X1X1X1X1X1X1X1X1X1X1X1X",
"1X1X1X1X1X1X1X1X1X1X1X1X1X1X1X1X1X1X1X1X1X1X1X1X1X1X1X1X1X1X1X1X1X1X1X1X1X1X1X1X1X1X1X1X1X1X1X1X1X1X1X1X1X1X1X1X1X1X1X1X1X1X1X1X",
"1X1X1X1X1X1X1X1X1X1X1X1X1X1X1X1X1X1X1X1X1X1X1X1X1X1X1X1X1X1X1X1X1X1X1X1X1X1X1X1X1X1X1X1X1X1X1X1X1X1X1X1X1X1X1X1X1X1X1X1X1X1X1X1X",
"1X1X1X1X1X1X1X1X1X1X1X1X1X1X1X1X1X1X1X1X1X1X1X1X1X1X1X1X1X1X1X1X1X1X1X1X1X1X1X1X1X1X1X1X1X1X1X1X1X1X1X1X1X1X1X1X1X1X1X1X1X1X1X1X"
};
