/* XPM */
static char *_57144dc65c44a1ffe0407a106f57479f8ArbqPrjgw4Ed4G[] = {
/* columns rows colors chars-per-pixel */
"64 64 143 2 ",
"   c None",
".  c #010200",
"X  c #020C00",
"o  c #0A0B07",
"O  c #0D0C08",
"+  c #031400",
"@  c #041A00",
"#  c #091E02",
"$  c #13130C",
"%  c #131B0C",
"&  c #1B1F0F",
"*  c #171713",
"=  c #191711",
"-  c #1C1B12",
";  c #1F1F1A",
":  c #221D15",
">  c #062400",
",  c #082601",
"<  c #072B00",
"1  c #092A02",
"2  c #073600",
"3  c #083300",
"4  c #0A3C00",
"5  c #133807",
"6  c #1D2C15",
"7  c #232216",
"8  c #23231B",
"9  c #292519",
"0  c #272C19",
"q  c #2B2D19",
"w  c #232A16",
"e  c #302D1D",
"r  c #2B2B24",
"t  c #322F21",
"y  c #2D3422",
"u  c #3C3725",
"i  c #3C3B26",
"p  c #35352B",
"a  c #3E3B28",
"s  c #3B3B32",
"d  c #423E2A",
"f  c #0B4200",
"g  c #0D4D01",
"h  c #0E5300",
"j  c #0E5C00",
"k  c #115B02",
"l  c #1A5807",
"z  c #20550E",
"x  c #265F11",
"c  c #32551C",
"v  c #0E6300",
"b  c #116600",
"n  c #126C00",
"m  c #1F6B0A",
"M  c #127300",
"N  c #1A7503",
"B  c #147A00",
"V  c #1E7308",
"C  c #27740E",
"Z  c #23790B",
"A  c #396B1D",
"S  c #304B24",
"D  c #3A4E2C",
"F  c #385028",
"G  c #424129",
"H  c #4C4731",
"J  c #444D37",
"K  c #454E38",
"L  c #49493D",
"P  c #504A32",
"I  c #415034",
"U  c #48553C",
"Y  c #555534",
"T  c #585239",
"R  c #5E583D",
"E  c #51622E",
"W  c #447930",
"Q  c #61753A",
"!  c #525444",
"~  c #555548",
"^  c #5C5C4C",
"/  c #615E47",
"(  c #596948",
")  c #646141",
"_  c #6B6445",
"`  c #746D4B",
"'  c #7E7E4F",
"]  c #616150",
"[  c #6A6A59",
"{  c #73735E",
"}  c #807751",
"|  c #857E54",
" . c #168300",
".. c #1A8304",
"X. c #178B00",
"o. c #198C02",
"O. c #179700",
"+. c #199300",
"@. c #1A9C00",
"#. c #1AA400",
"$. c #1CAB00",
"%. c #1DB400",
"&. c #1FBC00",
"*. c #22A805",
"=. c #20BF00",
"-. c #3BA820",
";. c #3EA223",
":. c #41812C",
">. c #498533",
",. c #589A3F",
"<. c #1FC000",
"1. c #21C500",
"2. c #29C308",
"3. c #39C917",
"4. c #4BD129",
"5. c #6AB24C",
"6. c #74B456",
"7. c #7AC659",
"8. c #8E845A",
"9. c #968C5F",
"0. c #898973",
"q. c #929279",
"w. c #B6A874",
"e. c #81D65C",
"r. c #81D85B",
"t. c #88DC66",
"y. c #8FDC6D",
"u. c #ACAC90",
"i. c #B0B095",
"p. c #BEBE9F",
"a. c #AAE684",
"s. c #B0E68A",
"d. c #B6E890",
"f. c #DCCD8A",
"g. c #E3D490",
"h. c #C3C3A4",
"j. c #D8D8B7",
"k. c #DCDDB9",
"l. c #DFF2B8",
"z. c #E3E3BD",
"x. c #ECECC6",
"c. c #EDF4C6",
"v. c #F3F3CD",
/* pixels */
"                                                                                                                                ",
"                                                                                                                                ",
"                                                                                                                                ",
"                                                                                                                                ",
"                                                                                                                                ",
"                                                                                                                                ",
"                                                                                                                                ",
"                                                                                                                                ",
"                                                                                                                                ",
"                                                                                                                                ",
"                                                                              [ ^                                               ",
"                                                                            o q.v.r                                             ",
"                                                                          8 . r L . .                                           ",
"                                                                        p ; . . @ . .                                           ",
"                                                                      O p.h.o b %.@ .           . . . . . O                     ",
"                                                            .         . { [ . W e.% 8       _ c v j j j b k                     ",
"                                                            .         . . . . 0.x.8 d g.G X . n <.1.1.1.<.%.+ Y                 ",
"                                                            .         . B  .. * r . O - B #.$.1.1.1.@.>  .<.$.V -               ",
"                                                          _ .           -.;.. + < . X 2 #.1.1.1.1.1.+.. n O.<.M .               ",
"                                                        7 . .               . n &.@ f =.1.1.1.1.1.<.+.. . @ &.M .               ",
"                                                      a N  .B f             . M 1. .O.1.1.1.1.1.1.1.%. . . .<.M .               ",
"                                                      @ #.1.1.k +           o B 1.1.1.1.1.1.1.1.1.1.1.1.1.1.<.M .               ",
"                                                  . k =.1.1.1.1.%.+ . . . 1 &.1.1.1.1.1.1.1.1.1.1.1.1.1.1.1.1.B .               ",
"                                                  . j 1.1.1.1.1.&.j h h h M 1.1.1.1.1.1.1.1.1.1.1.1.1.1.1.&.B z                 ",
"                                                  . k 1.1.1.1.1.<.<.1.1.1.1.1.1.=.1.=.1.1.1.1.1.1.1.1.<.1.%.X T                 ",
"                                                    Q 2 #.1.1.1.1.1.1.1.1.1.1.B < < < < X.1.1.1.1.1.#.< < 5                     ",
"                                                      w +.#.#.$.1.1.1.1.1.1.1.M < < < < X.@.@.@.@.@.M 9 =                       ",
"                                                        7 . . B 1.1.1.<.<.1.<.<.=.1.1.=.4 . . . . . e                           ",
"                                                            ` A j h h h j b &.X.h %.1.1.B M M M M @ :                           ",
"                                                              H . o . . X 3 1.j + #.&.&.=.&.=.&.%.,                             ",
"                                                                  f.' . X.&.1.&.%.> X X + X + X +                               ",
"                                                                  8.E g #.1.1.1.&.@ $ d :                                       ",
"                        $ . . . %                           . . . . h 1.1.1.1.1.&.@ u                                           ",
"                    - 0  .O.@.@.o.q $                     * . . . X.M 3 @.1.1.M < . u                                           ",
"                  1 > < %.<.1.1.*.y 6 <                 . . . X < &.B . O.1.1.j . r ^                                           ",
"                < &.<.1.1.1.1.1.3.c.y.&.1 t             . . . n 1.1.B . +.1.1.j o j.i.o                                         ",
"              : > &.X.j j j j v C 7.4.1.B C T           . . . B 1.1.B . +.1.1.j o 7.,..                                         ",
"              q < &.j . . . . . @ &.1.1.1.O.X           . . . B 1.1.B . +.1.1.k + $.B O                                         ",
"            $ X.#.@ Y             # M 1.1.&.%.l -       - . . B 1.1.B . +.1.1.%.$.< J z.] O                                     ",
"            . b N e               d x X.%.1.1.W ^ 8.8.| $ . . B 1.1.+.f M +.1.1.&.+ D s.D .                                     ",
"            . . $                   ) X #.1.1.a.z.$ . . . . . M 1.1.1.<.3 < =.1.&.+ f 1.4 .                                     ",
"            . R                       . $.1.1.>.U ..X.X.@ . . < f &.1.1.O.X.4 4 4 . D d.K .                                     ",
"                                      % *.%.1.h < &.1.1.2 @ + @ @ $.%.1.1.#.@ @ @ . ! z.K .                                     ",
"                                        & 4 1.&.1.1.1.1.&.&.&.&.%.+ h 1.1.<.<.<.&.+ g 2.4 .                                     ",
"                                        o 4 1.1.1.1.1.1.1.1.1.1.=.X g <.1.1.1.1.&.+ S t.D .                                     ",
"                                        . 4 =.1.1.1.1.1.1.1.1.1.&.+ h =.1.1.1.1.<.+ ~ v.~ .                                     ",
"                                            ,  .1.1.1.1.1.1.1.1.1.#.B > @.1.1.<.&.@ $ r `                                       ",
"                                            t Z #.1.1.1.1.1.1.1.1.1. .4 B +.X.+.o.I p .                                         ",
"                                              G @ &.1.1.1.1.1.1.1.1.<.1.4 . . . o k.u.. 9.                                      ",
"                                                ' g f f $.1.1.B g &.1.1.X.n . f B ( s . t d .                                   ",
"                                                w.. . . O.%.%.f @ &.1.1.1.@.X b $.+ . . . . . . .                               ",
"                                              H o . . . . X X M <.<.1.1.1.@.. . X . . . . . . . . . . .                         ",
"                                              - . . . . . X h @.1.1.1.1.o.b h h h h h h > . . . . . . . P                       ",
"                                            . . . . . . . < &.1.1.1.1.1.2 1 =.1.1.1.1.1.f . . . o . . . . .                     ",
"                                            . . . . . . . < 1.1.1.1.1.1.#.$.1.1.1.1.1.1.#.@.#.5.h.8 . . . .                     ",
"                                            8 $ . . . . . > @.@.@.@.@.#.@.@.@.@.@.@.@.@.@.@.@.6.h.* . . O 9                     ",
"                                              G . . . . . . . . . . . . X . . . . . . . . . . X . . . .                         ",
"                                                                                                                                ",
"                                                                                                                                ",
"                                                                                                                                ",
"                                                                                                                                ",
"                                                                                                                                ",
"                                                                                                                                ",
"                                                                                                                                "
};
