/* XPM */
static char *cdece5aedeb84edef92a50db77503daeWyddCi5s41Xe8dPX[] = {
/* columns rows colors chars-per-pixel */
"64 64 148 2 ",
"   c None",
".  c #000100",
"X  c #010B00",
"o  c #0B0B06",
"O  c #0D0E09",
"+  c #031400",
"@  c #0A1007",
"#  c #041B00",
"$  c #0B1B04",
"%  c #13130C",
"&  c #161A0C",
"*  c #151512",
"=  c #1B1A14",
"-  c #221F14",
";  c #062400",
":  c #082202",
">  c #072B00",
",  c #0A2E03",
"<  c #19220E",
"1  c #073400",
"2  c #093300",
"3  c #0A3C00",
"4  c #17310A",
"5  c #133A05",
"6  c #172712",
"7  c #1C2C15",
"8  c #242717",
"9  c #24241E",
"0  c #2D2D1B",
"q  c #302C1F",
"w  c #27371F",
"e  c #2F351B",
"r  c #262620",
"t  c #2A2A24",
"y  c #322E21",
"u  c #343021",
"i  c #3A3726",
"p  c #3E3A27",
"a  c #33332A",
"s  c #38382F",
"d  c #3C3C32",
"f  c #0B4300",
"g  c #0C4A00",
"h  c #124705",
"j  c #114F03",
"k  c #144508",
"l  c #0E5300",
"z  c #0F5D00",
"x  c #125E01",
"c  c #20550D",
"v  c #205E11",
"b  c #0F6400",
"n  c #106500",
"m  c #126B00",
"M  c #137400",
"N  c #147900",
"B  c #21690A",
"V  c #2A6711",
"C  c #246B10",
"Z  c #2A6519",
"A  c #226512",
"S  c #277514",
"D  c #307E1B",
"F  c #384D2B",
"G  c #49432F",
"H  c #454A2B",
"J  c #404036",
"K  c #4F4B34",
"L  c #504C33",
"P  c #405532",
"I  c #456029",
"U  c #49682A",
"Y  c #406530",
"T  c #4C6E3A",
"R  c #586734",
"E  c #5E663B",
"W  c #566833",
"Q  c #65653F",
"!  c #616B3E",
"~  c #545445",
"^  c #576A46",
"/  c #556145",
"(  c #567742",
")  c #567942",
"_  c #6B6843",
"`  c #6B7E43",
"'  c #7C744E",
"]  c #6F6F5D",
"[  c #7D7756",
"{  c #71735F",
"}  c #7B7B67",
"|  c #158200",
" . c #178C00",
".. c #1C8B03",
"X. c #199400",
"o. c #199A00",
"O. c #258F0C",
"+. c #358A1E",
"@. c #1BA300",
"#. c #1CAC00",
"$. c #1DB300",
"%. c #1FBC00",
"&. c #21AA04",
"*. c #22BF01",
"=. c #44AE28",
"-. c #21C500",
";. c #3BCC19",
":. c #44CD22",
">. c #7D804D",
",. c #67914F",
"<. c #7F8469",
"1. c #69D246",
"2. c #70D94C",
"3. c #8B8A57",
"4. c #948A5F",
"5. c #878161",
"6. c #9D9162",
"7. c #8A8A74",
"8. c #8D9376",
"9. c #97997E",
"0. c #919479",
"q. c #A89D6C",
"w. c #89DF65",
"e. c #9B9B82",
"r. c #A3A389",
"t. c #ADAD92",
"y. c #B3B396",
"u. c #B8B89A",
"i. c #BFED98",
"p. c #D5D585",
"a. c #E5D793",
"s. c #C0EF9A",
"d. c #C0C0A1",
"f. c #C8CDA7",
"g. c #CBCBAA",
"h. c #D1D2AF",
"j. c #D5D5B3",
"k. c #D3D3B1",
"l. c #CCEFA5",
"z. c #EEEEC7",
"x. c #EDEDC6",
"c. c #F1F1CA",
"v. c #F0F0C9",
"b. c #F4F4CD",
"n. c #F7F7CF",
"m. c #F3F4CD",
"M. c #FAFAD1",
"N. c #FFFFD6",
/* pixels */
"                                                                                                                                ",
"                                                    . . . . . . . . . .                                                         ",
"                                                : . . . + # # # # . . . + $                                                     ",
"                                          . . 2 %.g . . l *.*.%.%.f . . z %.: . .                                               ",
"                                        U n n n n ( } } T m *.@.m ( } } Y m m b b I                                             ",
"                                      $ l -.*.o.O e.N.N.e.O X...O r.N.N.7.O o.-.-.g &                                           ",
"                                    < o.$.-.3 F j.x.N.N.z.h.w P j.x.N.N.x.h.7 l -.$.X.&                                         ",
"                                    X $.-.-.> s M.N.N.N.N.n.a F M.N.N.N.N.m.r 3 -.-.#.X                                         ",
"                                    X %.-.-.> s M.N.N.N.N.n.a J M.N.N.N.N.n.r 3 -.-.#.X                                         ",
"                                    X $.-.-.> s M.N.N.N.N.n.a J M.N.N.N.N.m.r 3 -.-.#..                                         ",
"                                    X #.-.*.> s M.N.N.N.N.n.a J M.N.N.N.N.m.r 3 -.-.#.X                                         ",
"                                    X *.-.-.> s M.N.N.N.N.n.a J M.N.N.N.N.m.r 3 -.-.#.X                                         ",
"                                    _ x  .%.> * ] k.N.N.d.{ D A { k.N.N.y.{ * 3 -.N B                                           ",
"                                      o g $.2 X X 0.c.c.8.+ o.o.X e.v.v.<.X X 3 $.3 %                                           ",
"                                      . . # o.$.$.h = = A $.-.-.$.k = = C $.#.N + X .                                           ",
"                                      o # g #.-.-.N g f  .-.-.-.-.N f g | -.-.@.g + O                                           ",
"                                      @ l -.-.-.-.-.-.-.-.-.-.-.-.-.-.-.-.-.-.-.-.f %                                           ",
"                                    e  .@.-.-.-.-.-.-.-.-.-.-.-.-.-.-.-.-.-.-.-.-.@.| 0                                         ",
"                                    X $.-.-.-.-.-.-.-.-.-.-.-.-.-.-.-.-.-.-.-.-.-.-.#.X                                         ",
"                                    + $.-.-.-.-.-.-.-.-.-.-.-.-.-.-.-.-.-.-.-.-.-.-.#.X                                         ",
"                                      x X.-.-.-.-.-.-.-.-.-.-.-.-.-.-.-.-.-.-.-.-.N B                                           ",
"                                      % l *.%.*.-.-.-.-.-.-.-.-.-.-.-.-.-.-.*.$.%.h =                                           ",
"                                        _ X X 1 -.-.-.-.-.-.-.-.-.-.-.-.-.*.> X + 3.                                            ",
"                                        ' . . # N N N N N | N N N N |  .N M + # g R                                             ",
"                                        ' . . . . . . . . . . . . X . . . . . f -.f &                                           ",
"                                      y V o.o.N . . . . f o.o.o.o.o.o.o.g X  .@.-.#. .7                                         ",
"                                      5 g o.o.O.0 . . . 3 o.o.o.o.o.o.o.l . N $.-.-.#.X                                         ",
"                                    + &.N . . 0 a.K . . . . . . . . . . . . . 3 -.-.#.X                                         ",
"                                  p X $.#.N + %   u X N g . . . . . . . . . . X g @.#.X                                         ",
"                                  L + $.-.-.2 .     X *.M . . . . . . . . . . . . N &.%                                         ",
"                                o . X &.-.-.2 .     + %.M . . . . . . . . . . . . . <                                           ",
"                              [ } t . n m M W       E -.m . . . . . . . . . . . . p                                             ",
"                              a c.{ . . X . q.      p.-.m . . . . . . . o . . . .                                               ",
"                              . t S #.#.@.@.4 = . O - # + . . . . . * g.j.g.= . . 4.                                            ",
"                              - . m -.-.#. .z 3 3 3 2 . . . . . . . * t.u.y.r + 1 !                                             ",
"                                . m -.-.N . o.-.-.-.$.X . . . . . . . . . . . 3 -.f . .                                         ",
"                                . M -.-.N . o.-.-.-.*.. . . . . . . . . . X N X.-.o.|  .c p                                     ",
"                                % m #.-.N . o.-.-.-.$.X + + + + + # + + . . X.#.#.-.-.-.m .                                     ",
"                                  L + $.N . o.-.-.-.%.X l %.%.*.%.%.%.%.b . . X X  .-.-.n .                                     ",
"                                    . x m n l n n @.*.n | -.N +.w.:.%.m m x z x x n N -.n .                                     ",
"                                    . . g *.> . . M %.-.-.-.; d v.2.$.X x -.-.-.-.f ; %.n .                                     ",
"                                      O . # X . . X > %.-.%.> . 9 O.$.X n -.-.-.-.$. .; !                                       ",
"                                      O . . . . . . X N @.-.l f 3 X.$.X f  .%.-.-.-.$.f U q.                                    ",
"                                      O . . . . . . . . l -.-.-.-.-.#.X . . #.-.-.-.-.-.n . . p                                 ",
"                                    y . . . . . . . . . l -.-.-.-.-.$.X . . > n -.-.-.-.$. .+ . q                               ",
"                                    . . . . . . . . . . f @.:.;.-.@.X.X . . . > @.-.-.-.-.-.1 6 a                               ",
"                                    . . . . . . . . . . . o f.s.-.g . . . . . . X  .-.-.-.-.-.1.n.~                             ",
"                                      . . . . . . . . . 2 m / ,.-.g . . . . . . . 3 z z z z z Z } 5.                            ",
"                                      O . . . . . . . . l -.2 1 *.j . . . . . . . . . . . . . . .                               ",
"                                                      . l -.%.| + >.                                                            ",
"                                                      o l -.-.X..                                                               ",
"                                                      . x -.-.X..                                                               ",
"                                                      . ^ s.;.X..                                                               ",
"                                                      , ( l.=.O.8                                                               ",
"                                                    + *.-.-., 0                                                                 ",
"                                                  0 + *.-.*., O                                                                 ",
"                                                  H + *.-.*.2                                                                   ",
"                                                . N %.-.N +                                                                     ",
"                                              R j n N | V G                                                                     ",
"                                            = > -.g . .                                                                         ",
"                                            o . > `                                                                             ",
"                                            . . .                                                                               ",
"                                                                                                                                ",
"                                                                                                                                "
};
