/* XPM */
static char *_287f8ae507b47aba64de70f148ea0d94GkhypuzqfNGPV3Z[] = {
/* columns rows colors chars-per-pixel */
"64 64 179 2 ",
"   c None",
".  c #010100",
"X  c #010900",
"o  c #080807",
"O  c #080009",
"+  c #0C0C09",
"@  c #0C0006",
"#  c #15000C",
"$  c #110D0A",
"%  c #021400",
"&  c #041C00",
"*  c #14130E",
"=  c #1B1B0D",
"-  c #1B0015",
";  c #1A1811",
":  c #2D001C",
">  c #240718",
",  c #281916",
"<  c #042300",
"1  c #092402",
"2  c #052B00",
"3  c #1C280D",
"4  c #043400",
"5  c #083300",
"6  c #053E00",
"7  c #0A3D00",
"8  c #143607",
"9  c #193612",
"0  c #23231D",
"q  c #2D2B1D",
"w  c #222013",
"e  c #302B1F",
"r  c #273B13",
"t  c #35301E",
"y  c #310A20",
"u  c #3A1E24",
"i  c #3D2925",
"p  c #383423",
"a  c #36352D",
"s  c #3A3731",
"d  c #453E29",
"f  c #4D3030",
"g  c #074200",
"h  c #0B4600",
"j  c #0C4C00",
"k  c #0F4608",
"l  c #174309",
"z  c #005600",
"x  c #0D5400",
"c  c #005E00",
"v  c #0D5C00",
"b  c #125D02",
"n  c #145600",
"m  c #34491D",
"M  c #285C17",
"N  c #0D6400",
"B  c #016C00",
"V  c #0D6A00",
"C  c DarkGreen",
"Z  c #116400",
"A  c #126D00",
"S  c #017300",
"D  c #0F7000",
"F  c #017E00",
"G  c #0B7D00",
"H  c #137300",
"J  c #137C00",
"K  c #1E7909",
"L  c #22770A",
"P  c #2B6E14",
"I  c #306918",
"U  c #395424",
"Y  c #3F4036",
"T  c #4C452F",
"R  c #4A5F2C",
"E  c #4D4A33",
"W  c #464739",
"Q  c #534D31",
"!  c #5D4F3A",
"~  c #4A5433",
"^  c #545135",
"/  c #5A5237",
"(  c #5E553A",
")  c #53503A",
"_  c #615A3C",
"`  c #446835",
"'  c #546E32",
"]  c #636E3C",
"[  c #5D564E",
"{  c #565248",
"}  c #645D44",
"|  c #666341",
" . c #776D4B",
".. c #6B7443",
"X. c #77744B",
"o. c #656555",
"O. c #6E6C53",
"+. c #6F6F5C",
"@. c #6C7A57",
"#. c #73735F",
"$. c #747461",
"%. c #7E7C65",
"&. c #797E65",
"*. c #837A53",
"=. c #028400",
"-. c #078900",
";. c #148300",
":. c #1B8504",
">. c #168C00",
",. c #1F8A04",
"<. c #009C00",
"1. c #169300",
"2. c #189300",
"3. c #179A00",
"4. c #199B00",
"5. c #308C19",
"6. c #00A000",
"7. c #00AC00",
"8. c #1BA400",
"9. c #1CAB00",
"0. c #17A100",
"q. c #1EB400",
"w. c #1FBB00",
"e. c #20A504",
"r. c #20BD00",
"t. c #24B207",
"y. c #378D20",
"u. c #46B828",
"i. c #5BB03E",
"p. c #00C300",
"a. c #13C500",
"s. c #1FC100",
"d. c #21C500",
"f. c #21C900",
"g. c #38C70B",
"h. c #40C31C",
"j. c #5B9742",
"k. c #6C8456",
"l. c #7A8764",
"z. c #66CB4D",
"x. c #6FDA4C",
"c. c #75C454",
"v. c #898756",
"b. c #958D5E",
"n. c #83896D",
"m. c #8B8B74",
"M. c #94947A",
"N. c #98937F",
"B. c #AA9E6C",
"V. c #98A57C",
"C. c #AAA06C",
"Z. c #91C971",
"A. c #9C9C84",
"S. c #A09E86",
"D. c #9DA083",
"F. c #9FB883",
"G. c #A4A489",
"H. c #A9AA8E",
"J. c #A7AA8B",
"K. c #AFAF92",
"L. c #B3B396",
"P. c #B7B799",
"I. c #B8B89B",
"U. c #C1BDA4",
"Y. c #A3C983",
"T. c #B4CB92",
"R. c #C3C3A3",
"E. c #C8CCA7",
"W. c #CDDEA9",
"Q. c #DADCB6",
"!. c #D8D7B5",
"~. c #C9E8A5",
"^. c #D5ECAD",
"/. c #E3E3BE",
"(. c #EBEBC5",
"). c #F3F3CD",
"_. c #FDFDD4",
"`. c #FFFFDA",
"'. c #FFFFDD",
/* pixels */
"                                                                                                                                ",
"                                                                                                                                ",
"                                                                                                                                ",
"                                                                                                                                ",
"                                                                                                                                ",
"                                                                                                                                ",
"                                                                                                                                ",
"                                                                                                                                ",
"                                                                                                                                ",
"                                                                    . . (                                                       ",
"                                                                  O.o.o.+.                                                      ",
"                                                                . L._.`.E..                                                     ",
"                                                              + . L./.m.+.K.N.                                                  ",
"                                                            E 0 . G.I.s #.P.M..                                                 ",
"                                                          . U._.(.J.. . . o . .                                                 ",
"                                                        o.m.(./.A.%.o.a 2 x g .                                                 ",
"                                                      . L.).'.U.. K.!.[ C 8.:..           . . X X X X ^                         ",
"                                                      . H.).'.T.. * , . @.T.V.. B.  . # l >.9.8.8.8.9.,.:                       ",
"                                                      . H.).'.R.. % 2 . o.G.$.. X.v.4 2 Z 9.f.d.9.3.r.2.3 ..                    ",
"                                                      . H.).'.R.. =.9.j . . . . . A w.d.d.d.f.q.x g 8.d.r.k .                   ",
"                                                    e . S.).'.Q.D.Y.Z.~ 2 V j . v 4.d.d.f.d.f.q.x . h J r.7 .                   ",
"                                                  ^ . . A.(._.`.`.'.Q.[ c 8.J 2 3.f.d.d.d.d.d.r.x . X N r.7 .                   ",
"                                                . 3.w.s.G . R.'.'.'.Q.[ z t.d.r.d.d.d.d.d.d.d.d.r.w.w.w.w.6 .                   ",
"                                              R x 9.s.s.1.n l.A.A.A.l.U F r.d.d.d.d.d.f.f.d.d.d.d.d.d.d.w.7 O                   ",
"                                            . J w.f.d.s.f.9.v . . . 1 3.f.d.d.d.d.f.d.d.f.d.d.d.d.d.d.f.q.7 O                   ",
"                                            . J w.f.d.f.d.s.8.2.2.2.4.w.f.d.d.f.d.d.d.d.d.d.d.d.d.d.d.4.3 ]                     ",
"                                              K 8.w.d.d.d.d.f.s.d.d.d.d.s.9.8.8.8.9.d.d.f.d.d.d.r.8.8.;.y                       ",
"                                                . 8.f.d.f.f.f.f.d.d.f.f.4.. . . . V r.f.d.d.f.w.v . . Q                         ",
"                                                  I N v 3.d.s.f.d.d.d.d.9.A Z Z Z Z b Z Z Z Z b U }                             ",
"                                                  _ . . ;.q.s.w.w.s.w.d.d.w.d.f.f.4.. . . . . = *.                              ",
"                                                         .< & & < % 7 4.8.. J f.d.r.8.9.9.8.;..                                 ",
"                                                          . q q o X n 8.8.7 A 2.>.2.>.>.2.>.L u                                 ",
"                                                              C.. ;.d.d.s.q.J . . . . . . . _                                   ",
"                                                          + T p . ;.d.d.f.w.J . c =.=.F B X ; Q                                 ",
"                                                      w . . X X . ;.w.d.f.w.H % -.p.p.p.6.X . 3                                 ",
"                                                    . . . . 1.d.q.;.. 2.f.w.J . . B 7.S 4 3.d.q.b O                             ",
"                                                    . . 1 x 9.s.r.;.. 2.w.J ` { - B 7.B X Z 2.r.b O                             ",
"                    / X . . .                     + . . ;.s.s.s.r.;.. 3.0.. H.Q.s C 7.B . . Z r.v .                             ",
"                * > A 3.6.i.E.%.= . . .           O 2 ;.w.q.A % 1 A 8.d.3.. y.u.8 . 2 A 4.4.9.r.x .                             ",
"              r 2 X 2.d.p.x.~.k.& 2 2 <           > 6 9.f.9.x . . ;.d.f.3.. 5.u.9 . X Z 8.4.8.4.l                               ",
"          / @ 9.w.d.d.d.d.f.f.r.s.d.d.s.S -       ( 4 9.s.q.v . . ;.d.f.3.. H.Q.W . . . X X . =                                 ",
"          M H Z v v v v v b x 8.d.d.f.s.1.L R ! T I >.w.0.x % < x 8.f.f.3.. j.c.9 , _                                           ",
"        # H q.7 . . . . . . . 1.w.s.d.d.f.3.k O . 4.f.f.;.. . x 8.d.d.f.4.. :.t.2 (                                             ",
"      o . X . b.              Q X q.d.d.a.g.W.A.. 3.d.f.;.. . X . >.d.f.3.. V.~.W                                               ",
"        . . .                   m K 9.r.a.h.F.&.6 V 4.r.2.5 7 2 . ;.d.f.3.. $.G.[                                               ",
"                                  i V r.f.4.5 H 8.V 4 8.d.d.f.2.. ;.d.f.3.. . p C.                                              ",
"                                    ' 8 9.q.>.8.q.V 4 9.f.d.f.3.. >.t.H x J ;.L U p                                             ",
"                                     .. 8.d.d.f.q.N h 4.q.t.q.;.. >.9.h Z r.f.9.7 . 1 ..                                        ",
"                                      . 8.d.d.d.s.d.>.4 . X . x 8.d.d.r.d.d.d.d.s.s.q.S f     . . O . )                         ",
"                                        P ;.w.f.f.f.8.Z x x j ;.r.8.A H A H 4.d.s.s.w.V : | ] z v M +.*.                        ",
"                                        / % 9.s.d.d.d.d.s.f.d.d.r.;.. . . . ;.f.f.f.q.Z . . V d.a.z.^.U.                        ",
"                                        ( . 1 2 X 4.f.f.d.f.d.d.d.q.;.7 . . J f.s.8.% A 4.3.9.r.G ; a {                         ",
"                                        d . 1 & . H 4.3.9.d.f.f.d.q.;.2 . < >.f.f.8.1 >.d.9.3.>.4 . . T                         ",
"                                      . . & 9.J . . . . J w.s.d.r.;.. . N 9.d.d.f.s.s.s.9.. . . . . . o                         ",
"                                      . . % j 4 . . . . 7 x x x n 4 . . N q.f.q.H j v x h . . . . . .                           ",
"                                      X . . . . . . . . . . . . . . . . v 8.d.8.2 . . . . . . . . . .                           ",
"                                        Q . . . . . . . . . . . . . . . X % % % . . . . . . . . . t                             ",
"                                            . . . . . . . . . . . . . . . . . . . . . . . . . .                                 ",
"                                                                                                                                ",
"                                                                                                                                ",
"                                                                                                                                ",
"                                                                                                                                ",
"                                                                                                                                ",
"                                                                                                                                "
};
