/* XPM */
static char *_2edee93a433406cacca27ad276c09cdlPbIIgWAcm5U0XL4[] = {
/* columns rows colors chars-per-pixel */
"64 128 149 2 ",
"   c None",
".  c #000100",
"X  c #080705",
"o  c #010B00",
"O  c #0A0A06",
"+  c #0D0D09",
"@  c #100F0B",
"#  c #031400",
"$  c #0D1207",
"%  c #041B00",
"&  c #081E01",
"*  c #0F1709",
"=  c #14130C",
"-  c #151A0C",
";  c #151512",
":  c #1B1A14",
">  c #221F15",
",  c #052500",
"<  c #082102",
"1  c #072B00",
"2  c #0A2E03",
"3  c #19230E",
"4  c #073400",
"5  c #093300",
"6  c #0A3C00",
"7  c #17310A",
"8  c #133A06",
"9  c #172712",
"0  c #1C2C15",
"q  c #232616",
"w  c #24241E",
"e  c #2D2C1C",
"r  c #27371F",
"t  c #2E351A",
"y  c #262620",
"u  c #2A2A24",
"i  c #312E20",
"p  c #333020",
"a  c #3B3726",
"s  c #3D3927",
"d  c #32322A",
"f  c #38382F",
"g  c #3C3C32",
"h  c #0B4300",
"j  c #0C4900",
"k  c #114705",
"l  c #114F03",
"z  c #144508",
"x  c #0E5300",
"c  c #0E5D00",
"v  c #125E02",
"b  c #20540C",
"n  c #205E11",
"m  c #0F6400",
"M  c #106500",
"N  c #126B01",
"B  c #137400",
"V  c #147A00",
"C  c #20690A",
"Z  c #296711",
"A  c #246B10",
"S  c #2A6518",
"D  c #226512",
"F  c #277514",
"G  c #307E1B",
"H  c #384D2B",
"J  c #47462D",
"K  c #404036",
"L  c #4F4B33",
"P  c #504C33",
"I  c #405532",
"U  c #456028",
"Y  c #49682A",
"T  c #406530",
"R  c #4C6E3A",
"E  c #586734",
"W  c #5D663A",
"Q  c #566733",
"!  c #63683E",
"~  c #545445",
"^  c #576A46",
"/  c #556145",
"(  c #567742",
")  c #567942",
"_  c #6B6743",
"`  c #6B7D42",
"'  c #7B744E",
"]  c #6F6F5D",
"[  c #71735F",
"{  c #7C7656",
"}  c #7B7B67",
"|  c #7C7D68",
" . c #158400",
".. c #178C00",
"X. c #1C8B03",
"o. c #199400",
"O. c #199A00",
"+. c #258F0C",
"@. c #358A1E",
"#. c #1BA300",
"$. c #1CAC00",
"%. c #1DB300",
"&. c #1FBC00",
"*. c #21AA04",
"=. c #22BF01",
"-. c #44AE28",
";. c #21C500",
":. c #3BCC19",
">. c #44CD22",
",. c #7C804D",
"<. c #67914F",
"1. c #7F8469",
"2. c #69D246",
"3. c #70D94C",
"4. c #8C8958",
"5. c #948A5E",
"6. c #878160",
"7. c #9C9062",
"8. c #8A8A74",
"9. c #8D9376",
"0. c #97997E",
"q. c #919479",
"w. c #A79D6B",
"e. c #89DF65",
"r. c #9B9B82",
"t. c #A3A389",
"y. c #ADAD92",
"u. c #B3B396",
"i. c #B8B89A",
"p. c #BFED98",
"a. c #D5D585",
"s. c #E5D692",
"d. c #C0EF9A",
"f. c #C0C0A1",
"g. c #C8CDA7",
"h. c #CBCBAA",
"j. c #D1D2AF",
"k. c #D5D5B3",
"l. c #D3D3B1",
"z. c #CCEFA5",
"x. c #EEEEC7",
"c. c #EDEDC6",
"v. c #F1F1CA",
"b. c #F0F0C9",
"n. c #F4F4CD",
"m. c #F7F7CF",
"M. c #F3F4CD",
"N. c #FAFAD1",
"B. c #FFFFD6",
/* pixels */
"                                                                                                                                ",
"                                                                                                                                ",
"                                                                                                                                ",
"                                                                                                                                ",
"                                                                                                                                ",
"                                                                                                                                ",
"                                                                                                                                ",
"                                                                                                                                ",
"                                                                                                                                ",
"                                                                                                                                ",
"                                                                                                                                ",
"                                                                                                                                ",
"                                                                                                                                ",
"                                                                                                                                ",
"                                                                                                                                ",
"                                                                                                                                ",
"                                                                                                                                ",
"                                                                                                                                ",
"                                                                                                                                ",
"                                                                                                                                ",
"                                                                                                                                ",
"                                                                                                                                ",
"                                                                                                                                ",
"                                                                                                                                ",
"                                                                                                                                ",
"                                                                                                                                ",
"                                                                                                                                ",
"                                                                                                                                ",
"                                                                                                                                ",
"                                                                                                                                ",
"                                                                                                                                ",
"                                                                                                                                ",
"                                                                                                                                ",
"                                                                                                                                ",
"                                                                                                                                ",
"                                                                                                                                ",
"                                                                                                                                ",
"                                                                                                                                ",
"                                                                                                                                ",
"                                                                                                                                ",
"                                                                                                                                ",
"                                                                                                                                ",
"                                                                                                                                ",
"                                                                                                                                ",
"                                                                                                                                ",
"                                                                                                                                ",
"                                                                                                                                ",
"                                                                                                                                ",
"                                                                                                                                ",
"                                                                                                                                ",
"                                                                                                                                ",
"                                                                                                                                ",
"                                                                                                                                ",
"                                                                                                                                ",
"                                                                                                                                ",
"                                                                                                                                ",
"                                                                                                                                ",
"                                                                                                                                ",
"                                                                                                                                ",
"                                                                                                                                ",
"                                                                                                                                ",
"                                                    . . . . . . . . . .                                                         ",
"                                                & o . . # % % % % o . . # &                                                     ",
"                                          . . 5 &.j . . j =.=.&.&.h . . c &.< . .                                               ",
"                                        Y m m m m ( } } R M =.$.N ( } } T N N m N U                                             ",
"                                      * c ;.&.O.+ r.B.B.r.+ o.o.+ t.B.B.8.$ O.;.;.j -                                           ",
"                                    9 #.%.=.6 H k.c.B.B.b.l.r I k.b.B.B.c.h.0 x ;.%.O.-                                         ",
"                                    o %.;.=.4 f m.B.B.B.B.m.d K m.B.B.B.B.m.y 6 =.;.$.X                                         ",
"                                    o %.;.=.1 f N.B.B.B.B.m.d K N.B.B.B.B.M.y 6 ;.;.$.o                                         ",
"                                    o %.;.;.1 f N.B.B.B.B.m.d K N.B.B.B.B.M.y 6 ;.;.$.o                                         ",
"                                    o %.;.;.1 f N.B.B.B.B.m.d K N.B.B.B.B.M.y 6 =.;.$.o                                         ",
"                                    o &.;.=.1 f N.B.B.B.B.N.d g N.B.B.B.B.M.y 6 ;.;.$.o                                         ",
"                                    ! v X.;.1 ; ] l.B.B.f.} G n } j.B.B.u.] ; 6 =.V N                                           ",
"                                      + j %.5 o o q.v.v.8.o #.O.o q.b.b.1.o o 6 &.6 ;                                           ",
"                                      . o # O.$.%.j : : D %.&.;.%.z : : A %.%.B # o .                                           ",
"                                      X % j $.;.;. .j v V ;.;.;.;.V j j  .;.;.#.j # +                                           ",
"                                      + j ;.;.;.;.;.;.;.;.;.;.;.;.;.;.;.;.;.;.;.=.h -                                           ",
"                                    t ..#.;.;.;.;.;.;.;.;.;.;.;.;.;.;.;.;.;.;.;.;.#.V e                                         ",
"                                    o &.;.;.;.;.;.;.;.;.;.;.;.;.;.;.;.;.;.;.;.;.;.;.$.o                                         ",
"                                    # &.;.;.;.;.;.;.;.;.;.;.;.;.;.;.;.;.;.;.;.;.;.;.$.o                                         ",
"                                      v X.;.;.;.;.;.;.;.;.;.;.;.;.;.;.;.;.;.;.;.;.V N                                           ",
"                                      = x &.=.;.;.;.;.;.;.;.;.;.;.;.;.;.;.;.&.&.=.j q                                           ",
"                                        _ o o 4 ;.;.;.;.;.;.;.;.;.;.;.;.;.&.1 o o 4.                                            ",
"                                        ' . . % B V V V V V V B V V  ...B B # & j E                                             ",
"                                        ' . o . . . . . . o . . X . . . . . o 4 =.j -                                           ",
"                                      i Z O.O.B . . . . h O.O.O.O.O.O.O.j o ..O.=.$...q                                         ",
"                                      8 j O.O.+.e X . . 4 O.O.O.O.O.O.O.x o V %.;.;.$.o                                         ",
"                                    # %.B o . e s.L . . . . . o . o . . . . . 6 ;.;.$.O                                         ",
"                                  s o %.$.V # =   p o B j . . . . . . . . . . o j #.$.o                                         ",
"                                  P o %.;.;.5 .     # &.B . . . . . . . . . . . . V $.-                                         ",
"                                X . o $.;.;.4 .     # &.N . . . . . . . . . . . . o -                                           ",
"                              { | u . m N N E       W =.B . . . . . . . . . . . . a                                             ",
"                              d v.[ o o o X w.      a.=.N . . . . . . X X X . . .                                               ",
"                              X u F #.#.#.#.7 : . @ > & # . . . . . ; h.l.h.: . . 5.                                            ",
"                              > . N ;.;.$...c 4 6 4 4 . . . . . . . ; y.i.u.w # 4 !                                             ",
"                                . N ;.;.B o O.;.;.;.%.o . . . . . . . . . . . 6 =.h . .                                         ",
"                                . B ;.;.V . O.;.;.;.%.o . . . . . . . . . o B o.=.#. ...b s                                     ",
"                                = M %.;.V . O.;.;.;.&.o o % % # # % # % o . ..$.%.=.;.;.M .                                     ",
"                                  P # %.V . O.;.;.;.&.o x &.&.&.=.&.&.&.c . o o o ..;.;.M .                                     ",
"                                    . c N c c M N #.&.M ..=.B @.e.>.&.M N v c v c m V ;.M .                                     ",
"                                    . . k =.1 . . B =.;.;.=., g b.3.%.o M ;.;.;.;.j , %.N X                                     ",
"                                      O o % o . . o 1 &.;.=., X y +.%.o M ;.;.;.;.%..., !                                       ",
"                                      + . . . . . . o V #.&.c 6 4 o.$.o h ..&.;.;.;.%.j Y 7.                                    ",
"                                      + . . . . . . . . c ;.;.;.;.;.%.o . o #.;.;.;.;.;.M . . a                                 ",
"                                    e . . . . . . . . . x ;.;.;.;.;.*.o . . 1 M ;.;.;.;.$...o X e                               ",
"                                    . . . . . . . . . . h #.>.:.;.#.O.o . . . 1 #.;.;.;.;.;.4 9 d                               ",
"                                    . . . . . . . . . . . O g.p.;.j o . . . . . o ..;.;.;.;.;.2.m.~                             ",
"                                      X . . . . . . . . 4 N / <.;.j . . . . . . . 4 m c c m c S | 6.                            ",
"                                      @ . . . . . X . . x =.4 4 &.j X . . . . . . . . . . . . . .                               ",
"                                                      . x ;.&. .& '                                                             ",
"                                                      X x ;.;.O.o                                                               ",
"                                                      . v ;.;.O..                                                               ",
"                                                      . ^ d.>.o.o                                                               ",
"                                                      1 ) z.-.X.q                                                               ",
"                                                    # =.=.=.2 e                                                                 ",
"                                                  e # =.;.;.1 $                                                                 ",
"                                                  J # &.;.=.2                                                                   ",
"                                                O B &.;.V #                                                                     ",
"                                              Q j m V  .Z J                                                                     ",
"                                            : 1 &.x . .                                                                         ",
"                                            X o 1 `                                                                             ",
"                                            . . .                                                                               ",
"                                                                                                                                ",
"                                                                                                                                ",
"                                                                                                                                ",
"                                                                                                                                ",
"                                                                                                                                ",
"                                                                                                                                "
};
