/* XPM */
static char *b01bf8d3190a474fb94155d32e9882cd4I2vkv49xE727mMA[] = {
/* columns rows colors chars-per-pixel */
"70 45 131 2 ",
"   c None",
".  c #33450D",
"X  c #3A4D0E",
"o  c #3A4D11",
"O  c #3E5213",
"+  c #465D13",
"@  c #425519",
"#  c #496117",
"$  c #4F6917",
"%  c #4D651A",
"&  c #4F6818",
"*  c #50661F",
"=  c #526D19",
"-  c #56721A",
";  c #5A761B",
":  c #5B781C",
">  c #465721",
",  c #485A21",
"<  c #4D5C2B",
"1  c #4E6323",
"2  c #506524",
"3  c #546A24",
"4  c #566D29",
"5  c #596F2C",
"6  c #5B7524",
"7  c #5F7B21",
"8  c #5B712E",
"9  c #576333",
"0  c #596B30",
"q  c #5C6B3D",
"w  c #5E7431",
"e  c #627E25",
"r  c #61772F",
"t  c #62792D",
"y  c #657D31",
"u  c #6A7E3F",
"i  c #647147",
"p  c #6C7F43",
"a  c #657249",
"s  c #787F54",
"d  c #66812B",
"f  c #69832F",
"g  c #678031",
"h  c #6C8633",
"j  c #6D8836",
"k  c #6B8338",
"l  c #6F8938",
"z  c #71873F",
"x  c #728B3D",
"c  c #6E8243",
"v  c #718544",
"b  c #758C45",
"n  c #788F45",
"m  c #779043",
"M  c #799146",
"N  c #7B9248",
"B  c #7C8756",
"V  c #7C8D54",
"C  c #899E5B",
"Z  c #868B62",
"A  c #838D6A",
"S  c #899660",
"D  c #909D62",
"F  c #969972",
"G  c #9A9E7E",
"H  c #8DA161",
"J  c #94A277",
"K  c #94A178",
"L  c #A3AE75",
"P  c #A7AD7E",
"I  c #A7B176",
"U  c #AFB884",
"Y  c #B3BD8D",
"T  c #A3AB92",
"R  c #ACB29C",
"E  c #BDBE94",
"W  c #B2BD9C",
"Q  c #B0B7A2",
"!  c #B5BBA7",
"~  c #B2C094",
"^  c #BEC49C",
"/  c #BAC6A0",
"(  c #C2C59A",
")  c #D2CAAA",
"_  c #D8D4AB",
"`  c #C1C9B0",
"'  c #D4CEB1",
"]  c #DFD6B4",
"[  c #E0D5B6",
"{  c #E0D8B6",
"}  c #E6DDBC",
"|  c #F9E5BF",
" . c #D8DDCD",
".. c #DADED2",
"X. c #EDE1C0",
"o. c #F2E5C4",
"O. c #FAE7C4",
"+. c #F9E6C2",
"@. c #FAE8C5",
"#. c #FAE8C6",
"$. c #E1E3DB",
"%. c #EBEDDD",
"&. c #F9EAD3",
"*. c #F9EDD5",
"=. c #FCEED5",
"-. c #FBEED6",
";. c #F9EEDA",
":. c #FAEFDB",
">. c #FCF0D9",
",. c #EAECE3",
"<. c #EDEEE9",
"1. c #EDF0E7",
"2. c #F3F1E5",
"3. c #F8F1E1",
"4. c #FDF3E1",
"5. c #F9F4E7",
"6. c #FBF4E6",
"7. c #F2F3EF",
"8. c #FBF4E8",
"9. c #FEF8EC",
"0. c #FEF8ED",
"q. c #F2F4F0",
"w. c #FEF9F0",
"e. c #FEFAF1",
"r. c #FEFAF2",
"t. c #FEFBF4",
"y. c #FFFBF5",
"u. c #FFFCF7",
"i. c #FFFCF8",
"p. c white",
"a. c #FFFFFE",
/* pixels */
"                                                              u l k y u z k                                                                 ",
"                                                    b z c c n N b p p p v N b v c c m                                                       ",
"                                                n b v p b N N n p p p p p b N N b p p b M m                                                 ",
"                                          b M M c p c b N N N c p p p p p c M N N N c p c b M m                                             ",
"                                      b N N b p c p n N N N b p p p p p p p b N N N N c p p v N M b                                         ",
"                                    M N N v p p p n N N N N v p p p p p p p c N N N N N c p p v M M b                                       ",
"                              8.H N N N c p p p b N N N N N p p p p p p p p p b N N N N n p p p c M M N m                                   ",
"                              ( 8./ N c p p p v M N N N N b p p p p p p p p p b N N N N N v p p c c M N N m                                 ",
"                            M M o.r.1.J , 5 p N N N N N N v p p p p p p p p p c M N N N N N c p p p c C ~ N N                               ",
"                          j m N U o.t.p.R O v N N N N N N p p p p p p p p p p p n N N N N N b p p v W 3.L N N x                             ",
"                        h h h x b | @.u.Q 2 N N N N N N n p p p p p p p p p p p b N N N N N y 5 G ,.0.} x m l h g                           ",
"                      g h h h g 8 B o.' > v N N N N N N b p p p p p p p p p p p v N N N N N . ! p.0.O.C w g h h j g                         ",
"                      h h h h f 8 2 . @ w x m N N M N N b p p p p p p p p p p p c N N N N N @ $.t.O.] w 8 r h h h h g                       ",
"                    g h h h g 8 8 8 8 8 r h h h j x x x u u p p p p p p p p p p p m x x x j t q X.O.p w 8 8 g h j h h                       ",
"                  h h h h h y 8 8 8 8 8 g h h h h h j h 8 8 8 8 0 8 w 8 8 8 8 8 8 g h h h h h e o . 2 w 8 8 r h h h h h                     ",
"                  h h j h g 8 8 8 8 8 8 h h h h h h h h 8 8 8 8 w 8 8 8 8 8 8 8 8 g h j h h h h g 8 8 0 8 8 8 g h h h h g                   ",
"                h h h h j t 8 8 8 8 8 t j h h h h h h g 8 8 8 8 8 8 8 8 8 8 8 8 8 t h h h h j h j g 8 8 8 8 8 8 h h h h h                   ",
"              f h h h h h 8 8 8 8 8 8 g h h h j h h h g 8 8 8 8 5 8 8 8 8 8 8 8 8 f h h h h h h h g 8 8 5 8 8 8 g h h h h h                 ",
"              g h h h h g 8 8 8 8 8 8 g h h h h h h j t 8 8 8 8 8 8 8 8 8 8 8 8 8 r h h j h h h h h 8 8 8 8 8 8 y h h h h h                 ",
"              h h h h h t 8 8 8 8 8 8 j h h h h h h h y 8 8 8 8 8 8 8 8 8 8 8 8 8 r h h h h h h j h t 8 8 8 8 8 w h h h h h f               ",
"            : d f h h h 8 8 8 8 8 8 t h h h h h h h h r 8 8 8 5 8 8 8 8 8 8 8 8 8 w h h h h h j h h g 8 8 8 8 8 8 g h h h f :               ",
"            # + : d h g 8 8 8 8 8 8 y h h j h j h h h r 8 8 8 w 8 8 5 8 8 8 8 8 8 8 h h j h h h h h g 8 8 8 8 8 8 t h f d : :               ",
"          ` T , = : : 6 5 8 w 5 8 8 y h h j h h h j j 8 8 5 8 5 8 8 8 8 8 8 8 8 8 8 h h h h h h h h h 8 8 8 8 8 8 w d : : : : :             ",
"  ;.*.4.r.p.p.T $ : : * # % 3 8 8 8 h h h h j e h h h 8 5 w 8 8 8 8 8 8 8 8 8 8 8 8 h h h h h h h h h 8 8 8 8 3 & $ : : : : : :             ",
"      &.+.@.=.G = : : % # # # # * 3 f h j h * . * h h 8 8 8 8 8 8 8 8 8 8 8 8 8 8 8 f j h h h h h h g 8 3 # # # # # : : : : : :             ",
"          ] [ @ ; ; : # # # # # # # : : N ~ ..7.< h h 8 5 8 8 8 8 5 8 8 8 8 5 8 8 8 g g h h f f d 7 : & # # # # # # - : : : : :             ",
"          = X = : : ; # # # # # # V ^ %.u.u.u.u.A ; e * 3 3 4 4 4 4 4 4 4 4 3 3 3 2 7 : : : : : : : : $ # # # # # # - : : : : :             ",
"          : : : : : - # # # # # # 6 I _ o.| | | s - ; # # # # + # # # # # # # # # # - : : : : : : : : $ # # # # # # - ; : : : : ;           ",
"          : : : : : - # # # + # # * : : : f L F X ; ; # # # # # # # # # # # # # # # - : : : : : : : : = # # # # # # = : : : : : ;           ",
"          : : : : : - # # # # # # $ : : : : ; - ; : ; + # # # # # # # # # # # # # # - ; : : : : : : : = # # # # # # = : : : : : ;           ",
"          : : : : : - # # # # # # $ : : : : : : ; : ; # # # # # # # # # # # # # # # - : : : : : : : : = # # # # # # = : : ; + # :           ",
"          : : : : : - # # # # # # $ : : : : : : : : ; # # # # # # # # # + # # # # # - : : : : : : : : = # # # # # # = : : # i A k           ",
"          : : : : ; - # # # # # # $ : : : : : : : : ; # # # # # # # # # # # # # # # - : : : : : : : : & # # # # # # = : : O q.p.p.p.        ",
"          : : : : ; ; # # # # # # % : : : : : : : ; ; # # # # # # # # + # # # # # # - : : : : : : : : & # # # # # # = : : O ;.>.>.>.-.>.8.  ",
"          : : : : : ; # # # # # # # : : : : : : : : ; # # # # # # # # # # # # # # # - : : : : : : : : = # # # # # # - : ; + ) +.o.*.        ",
"          ; : : : : ; # # # # # # # : : : : : : : : ; # # # # # # # # # # # # # # # ; : : : : : : : : & # # # # # # - : ; = X $             ",
"          : : : : : : # # # # # # # : : : : : : : : : # # # # # # # # # # # # # # # ; : : : : : = + ; # # # # # # # ; : : : : ;             ",
"          : : : : : : $ # # # # # # ; : : : : : : : : # # # # # # # # # # # # # # # - : : : : - < a % # # # # # # # : : : : : ;             ",
"            : : : : : - # # # # # # ; ; : : : : : : : % + # # # # # # # # # # + # # ; : : : : O <.p.W % # # # # # * : : : : : ;             ",
"            ; : : : : - # # # # # # = : : : : : : : : % # # # # # # # # # # # # # # : : : : - Z -.0.p. .w # # # # - : : : : :               ",
"            ; : : : : : # # # # # # $ : : : : : : : : $ # # # # 1 # # # # # # # # % : : : : - 9 +.+.O.;.2.B # # # ; : : : : ;               ",
"              : : : : : = # # # # # # : : : : : : : : = # # # # + # # # # # # # # # : : : : : + * n D U E ( k # # : : : : : ;               ",
"              : : : : : - # # # # # # ; : : : : : : ; = # # # # # # # # # # # # # & : : : : : : : : # # # # # # = : : : : :                 ",
"              ; : : : : ; # # # # # # - : : : : : : : - # # # # # # # # # # # # # = : : : : : : : ; # # # # # # ; : : : : ;                 ",
"                ; ; ; ; ; = # # # # # $ : ; ; ; : : : - # # # # # # # # # # # # # = : : ; : ; ; ; = # # # # # % : ; : ; ;                   "
};
