/* XPM */
static char *f82e0da3692346a6cc2332fdaf2b4860bMvaTj9SpI1H1D4G[] = {
/* columns rows colors chars-per-pixel */
"64 64 18 1 ",
"  c #724D07",
". c #734D07",
"X c #774F05",
"o c #744E06",
"O c #764E06",
"+ c #7B5104",
"@ c #7D5204",
"# c #805403",
"$ c #815403",
"% c #825502",
"& c #855702",
"* c #875801",
"= c #885801",
"- c #8A5900",
"; c #8B5B00",
": c #8C5B00",
"> c #8D5C00",
", c #8E5C00",
/* pixels */
"::::::::::::::::::::::::::::::::::::::::::::::::::::::::::::::::",
":::::::::::::::::::::::::::::::::::::::::::::::::::::::::::::,::",
":::::::::::::::::::::::::::::::::::::::::::::::::::::::::::::&::",
"::::::::::::::::::::::::::::::::::::::::::::::::::::::::::::&O$:",
"::::::::::::::::::::::::::::::::::::::::::::::::::::::::::::&o@:",
":::::::::::::::::::::::::::::::::::::::::::::::::::::::::::::=::",
"::::::::::::::::::::::::::::::::::::::::::::::::::::::::::::::::",
"::::::::::::::>>::::::::::::::::::::::::::::::::::::::::::::::::",
"::::::::::::::*&=:::::::::::::::::::::::::::::::::::::::::::::::",
"::::::::::::;@ooo%::::::::::::::::::::::::::::::::::::::::::::::",
":::::::::::>$ooo.o::::::::::::::::::::::::::::::::::::::::::::::",
"::::::::::::+oooOO&:::::::::::::::::::::::::::::::::::::::::::::",
"::::::::::::@oooo.&:::::::::::::::::::::::::::::::::::::::::::::",
"::::::::::::&oooo@=:::::::::::::::::::::::::::::::::::::::::::::",
":::::::::::::&@+$=::::::::::::::::::::::::::::::::::::::::::::::",
"::::::::::::::;;::::::::::::::::::::::::::::::::::::::::::::::::",
"::::::::::::::::::::::::::::::::::::::::::::::::::::::::::::::::",
":::::::::::::::::::::::::::::::::::::::::::::::::::::::=::::::::",
":::::::::::::::::::::::::::::::::::::::::::::::::::::$O+O&::::::",
"::::::::::::::::::::::::::::::::::::::::::::::::::::$.OooO&:::::",
"::::::::::::::::::::::::::::::::::::::::::::::::::::@.oooo@:::::",
"::::::::::::::::::::::::::::::::::::::::::::::::::::ooo.ooO:::::",
"::::::::::::::::::::::::::::::::::::::::::::::::::::ooOO@.@:::::",
"::::::::::::::::::::::::::::::::::::::::::::::::::::&..o.o=:::::",
":::::::::::::::::::::::::::::::::::::::::::::::::::::%+++&::::::",
"::::::::::::::::::::::::::::::::::::::::::::::::::::::::::::::::",
"::::::::::::::::::::::::::::::::::::::::::::::::::::::::::::::::",
"::::::::::::::::::::::::::::::::::::::::::::::::::::::::::::::::",
"::::::::::::::::::=@+&::::::::::::::::::::::::::::::::::::::::::",
"::::::::::::::::::@oo.&:::::::::::::::::::::::::::::::::::::::::",
":::::::::::::::::=ooo.+:::::::::::::::::::::::::::::::::::::::::",
"::::::::::::::::::ooO.$:::::::::::::::::::::::::::::::::::::::::",
"::::::::::::::::::&oOO;:::::::::::::::::::::::::::::::::::::::::",
"::::::::::::::::::::=:::::::::::::::::::::::::::::::::::::::::::",
"::::::::::::::::::::::::::::::::::::::::::::::::::::::::::::::::",
"::::::::::::::::::::::::::::::::::::::::::::::::::::::::::::::::",
"::::::::::::::::::::::::::::::::::::::::::::::::::::::::::::::::",
"::::::::::::::::::::::::::::::::::::::::::::::::::::::::::::::::",
"::::::::::::::::::::::::::::::::::::::::::::::::::::::::::::::::",
"::::::::::::::::::::::::::::::::::::::::::::::::::::::::::::::::",
"::::::::::::::::::::::::::::::::::::::::::::::::::::::::::::::::",
"::::::::::::::::::::::::::::::::::::::::::::::::::::::::::::::::",
"::::::::::::::::::::::::::::::::::::::::::::::&$$&::::::::::::::",
":::::::::::::::::::::::::::::::::::::::::::::@oo.oO&::::::::::::",
"::::::::::::::::::::::::::::::::::::::::::::%oOOooo+::::::::::::",
":::::::::::::::::::::::::::::::::::::::::::;ooOoooo.$:::::::::::",
":::::::::::::::::::::::::::::::::::::::::::&oooOo.oo+:::::::::::",
":::::::::::::::::::::::::::::::::::::::::::=ooOOOOOo@:::::::::::",
"::::::::::::::::::::::::::::::::::::::::::::.@ooOooO%:::::::::::",
"::::::::::::::::::::::::::::::::::::::::::::$ooo.oOO::::::::::::",
":::::::::::::::::::::::::::::::::::::::::::::$oOOOO=::::::::::::",
":::::&$:::::::::::::::::::::::::::::::::::::::=$%$::::::::::::::",
"::::@ooO::::::::::::::::::::::::::::::::::::::::::::::::::::::::",
":::=OOOO=:::::::::::::::::::::::::::::::::::::::::::::::::::::::",
"::::o.oO::::::::::::::::::::::::::::::::::::::::::::::::::::::::",
"::::&@o&::::::::::::::::::::::::::::::::::::::::::::::::::::::::",
"::::::::::::::::::::::::::::::::::::::::::::::::::::::::::::::::",
"::::::::::::::::::::::::::::::::::::::::::::::::::::::::::::::::",
"::::::::::::::::::::::::::::::::::::::::::::::::::::::::::::::::",
"::::::::::::::::::::::::::::::::::::::::::::::::::::::::::::::::",
"::::::::::::::::::::::::::::::::::::::::::::::::::::::::::::::::",
"::::::::::::::::::::::::::::::::::::::::::::::::::::::::::::::::",
"::::::::::::::::::::::::::::::::::::::::::::::::::::::::::::::::",
"::::::::::::::::::::::::::::::::::::::::::::::::::::::::::::::::"
};
