/* XPM */
static char *result[] = {
/* columns rows colors chars-per-pixel */
"64 64 90 1 ",
"  c #000000",
". c #090603",
"X c #0F0905",
"o c #130C06",
"O c #170F08",
"+ c #1B1109",
"@ c #23160C",
"# c #2B1A0A",
"$ c #321E0D",
"% c #36210F",
"& c #352112",
"* c #3E2614",
"= c #402714",
"- c #452A17",
"; c #482D17",
": c #462C18",
"> c #4A2D19",
", c #4D321B",
"< c #5E3112",
"1 c #54351D",
"2 c #59371F",
"3 c #5A381F",
"4 c #563620",
"5 c #593720",
"6 c #5D3A22",
"7 c #623D24",
"8 c #664025",
"9 c #6A4227",
"0 c #6D4528",
"q c #704727",
"w c #704927",
"e c #7C4B27",
"r c #714629",
"t c #754A2B",
"y c #7A4D2E",
"u c #7F502E",
"i c #7E4F30",
"p c #7F5030",
"a c #834F28",
"s c #82522F",
"d c #965B2E",
"f c #9A5D2E",
"g c #845331",
"h c #895632",
"j c #8D5933",
"k c #945E35",
"l c #9B5F30",
"z c #976036",
"x c #9A6237",
"c c #9C643A",
"v c #9F683E",
"b c #A4632E",
"n c #A56634",
"m c #AB6933",
"M c #A16739",
"N c #A56A3B",
"B c #AC6E3C",
"V c #B06B34",
"C c #AE703E",
"Z c #B1723E",
"A c #B8723C",
"S c #8A6447",
"D c #856249",
"F c #A76E40",
"G c #AB7141",
"H c #B67542",
"J c #BA7743",
"K c #B77846",
"L c #B97845",
"P c #B67948",
"I c #BD7C49",
"U c #967761",
"Y c #9D7B63",
"T c #C07B45",
"R c #C27F4C",
"E c #B79070",
"W c #C5814D",
"Q c #C9834E",
"! c #C79C78",
"~ c #CA9E7B",
"^ c #C6A287",
"/ c #C6A58A",
"( c #C9A78B",
") c #CCA88C",
"_ c #D2AD8E",
"` c #D5B091",
"' c #D7C5B6",
"] c #D1C3BA",
"[ c #DAC8B9",
"{ c #E4D0BF",
/* pixels */
"][{{{{{{{{{{{{{{{{{{{{{{{{{{{{{{{{{{{{{{{{{{{{{{{{{{{{{{{{{{{{'[",
"S<bVAAAAAAAAAAAAAAAAAAAAAAAAAAAAAAAAAAAAAAAAAAAAAAAAAAAAAAAAmf<Y",
"~e7NZZZZHLACCCCCZCCCBZCZCZCCCCCCCCCCCCCCCCBHCHBCCCCCZAIZCZCZN6a`",
"~Ay9NCCZuOuZCCCCBCBCBCBBBBCBCBCBCBCCCBCCBBBBBBBBCCCCZ8+kZCZN8sn(",
"~JZe7CZLo XACCCCCCCCCCCCCCCCCCBZCCCCCCCCBZBBHBHBCCCZN  &JZB6sJd/",
"~JCZu8NAwX8JCCCCCCCCCCCCCCCGCCCCCCCCCCCCZBHBBBBZCCCGA1XhAv6hZCd/",
"~JBZZt8CJCZZCCCCGZCCCCCCZGHBZGHGCCHGGHCCGZZBBGGGCHGGZHBJC6uACZd/",
"~JZNNJs7NcxxxxxzxzxxzxzxxlkxlzkxckkxlkklzxxxxxzllklxxxNM6hJxCZd/",
"~AcO xAe8w000w999ysysasuysugpiiiasiisissiyapese00wwww908uJs @Zf/",
"~Wu  uCc8jkzzjzxg6>*****=**=*********=*******>6hzjjkjzh9CW1  vf/",
"~LZ86ZMz9NZACJCLWj177778610r7777777764t0777772kRPCAZAHN9KLC,uZf/",
"~ABZWZMj9NJuO3JCLRj7iiypt9jjiiyiiiig09khiiii7kRKCHu+3HM9LJCJZCd/",
"~ACCCZNz8BZ#  LZBKQj6yit08hjtiyyyyyy09kgyyt7kWKBBJ& .NN9PLBCCCf(",
"~WBCCCMz9BAhO8ZCCBKRj6tir7hjytyyyyyy08jgyt6kRHBBCCh+8Av9LHBCCCd/",
"!WBCCCck9BCZLHZZZBBKWj6it8hjyitiyyiy09jgt6kWHBBCCCZLZZN9LLCCCCd/",
"!ABCCCMz8NCCZCCCGBBGPWj707hjttiiyyti09kg6kWHGBCCCCCZCNz9PJCCCCd/",
"!LBCCCMk9NlBGZCCCCCBBLRj67jjyiittitir0h7kRJBBCCCCCCCNlx9KKCCCZd/",
"!LBCCCMx9tNkBBGBCCCCCBLRh7hjtytiiyit077kRHBBCCCCCCZNkM09IKBBCZd/",
"~LCCCZMx9>yBkBCCCCCCGBBLRj7htiittiyir4kRJGCCCCCCCZNzNt19IJBZBZd/",
"~LBCCZMx9$-rNxBCCCCCCCCBLRh7ittiiyit7kRJBBCBCCCCCNkN9-$9IJBBGCd/",
"~LBCCCMx06#;yNkBCCBCCCCCBJRh7tyytyt6kRJBCCCCCCCCNzMt-$7tILBCZZd/",
"~ABCCCNx0s6#>tNkBCCCCCCCCBJRh7yyit6kRJBGCCCCCCCBkNq;#9yqILBCBZd/",
"~JBCCZMx0yi6#:yNkBCCCCCCCBGJRh7ty7kRHBCCCCBGCCNkMt;#9yy9IHCCBZd/",
"~JCCCZMx9yyg2#>yNkBCCCCCCCBCLRh76kRHBCCCCCCCGBkNw-#8yyy9IKBBZZd/",
"~JCCCCMx0yyyi,#>tNkGCCCCCCCCBJRgjRKBCCCCCCCCNknr=#yhyyt0IKBCCCd/",
"~JCCCZMxwyyyt87#>aNkCGCCCCCCBCCBRKBBCCBCCBCBkNt>#6csyyt0LJBCCCd/",
"~JCCCCNx0yyyt6j0#>rBkNCCCBCCCCNRHBBCCCCCCCBkN7>$3rksyyy9IJCCCCd/",
"~ABCCZMx0yyyt6jk5#>yNlBGCCCCFFTHGBCCCCCCHBkNt>#770ksyyt0IKBCCCd/",
"~JCCCCMx0yyyt7hji6#>tNkBCCGCNTJBBCCCCBGCFkN7:$7s0rksyyy0PLBCCCf(",
"~JNCCCNx0tyyt6jjty7#>ynkBCBFTKBBCCCBCCCBkMt>$7ii7rksyyt9LHCCCCd/",
"~JCCCCMx0yyyt7hjyys5#>tNkCNTKBCCCCCCCCBkFt:$7iiy7rkgyyt0WHCCCCd/",
"~JCCCCMx0yyyt6hjtyis7#>rBNRJGBGCCCCCCBkM7=#7iysg77kstuy0PLCCCCd/",
"~JBBFBFl7yyy77hkyyyys5$4kTHBBCCCCCHCBkMj1$7sityy70ks7gssRRFGGGd^",
"~JBAAHcMryyyi7hjtyyyts7lRLBBGCCCCCGNkMBTj7yyyiyy90ksyy77IKVHVHd^",
"~JBZFZckryyyt7hjtytit7kRIGBHZBCCCGCkMNBJRj7tyyiy7tksyyyyIHFGHFd^",
"~JBGBCFl7yyyt7hjyyit7kRLAFBZBZCCCNknNCBGKRh7titi77ksyyy7IKFGVHd)",
"~JBFCCMMtyyyt7hjtyt7kRJBBBHBBCCBFkMBZCCCBJRj7yyyrrkgyyy7TJBBFAd^",
"~JBZCZMkryyyi7hjyy5jRLFBFZBBCCZBknNCCCCCBCKRh6yir7ksyysyIJFBHFd^",
"~JBAFZFk7yyy77gkt7kRJBBHCZGAZZGkMGHBCCCCCBGHRj7y77vsyy77LLFHFHd^",
"~JBBHGkFryyyt7hh5kRIBBBBCBCFZGkMNMNCBCCCCCBBHRj77tzgyyg7IKFVHGd/",
"~JBBFCMktyiyt7s7kRLBFABFCCCHNkM77FkBCCCCCCCBBKRj77ksyyyrLLBCCCd^",
"~JBAZZMM7yyyt77kRIBBHBFACCBBlMt>>aMkBZCCCCCCBBJRh7ksyyy7TKBCCCd/",
"~JBZHFMltyyst4kRKAFBHBBGBCGkMy>##>yNkNCCGBCCCBBJRh7ayytrIJGCCCd/",
"~JBFBHMc7tyt7kRLFFAFBZBZHFkn7>#77#>tnkBCCCCCCCBBKRh7yyyrIKBGBHd/",
"~JBBBZMltst5kRJBBCCCBBBGBkNy>@6is6#>yNkNCCCCCCCBGJRh6yt7LKBCCCd^",
"~TBFFZMM7s7kRLBBCCCCBHABkF7>#7iyys7#>rBkBCCCCCCCGCJRj7trTJBCCCl/",
"~JBAHFMk77kRTFBGCCCCCCNkFt:&7iyyyii7#>tNkNCCCCCCCBCJRj7rIKBCCZd/",
"~JBBBHNk7kRTBBCCCCCCZCkN7:@7gyyyittg2#>tBkNZCCCCCCCBKRh7LKCCCGd/",
"~JBBCCMz8ZLCCCCCHVGHnkc7>#7ltityyyyir4#>yMzNCCCCCCCBCHN9KKBCCZd/",
"~JBACZMz9CCZAZCCFGFH4-s>$1jktiiyyyyyrr8#;tBzNCCCCCGHZCN9KKBCCZd/",
"!JBFCCxk9BZc1kZCHVFlM7>#77hjtiyyyyyy09kr#;wNzNCCCCn6jZM9LKBCCZd/",
"~TBBCCNk9NA&  WCHFlF71$7y7hjtyyiyyyi09jh3#;uNzBCCK= oNM9LLCCCCd/",
"~JBAHBNk9NK6 %LCGkF7-@7g77hjyiyyyyyy08jgs7#;wBzMCH7 &ZN9LJBZCHd^",
"!TCckHMk9BZZzCCClNt-#7iyi7hktyyiyyyy09khyu7#-yvzNCZxBZN9LJZknHk/",
"!Tk  jNz9CAALAZCN7-#7ssst7kcygiiyyyi09khyus6#-wBNHAJHZB9LR0 .Nd/",
"~Tj  hCx68888989777777777777777779888799888976777q799887NI8 .Nd/",
"!TZhuHB6uxxxczxxkFFFFMFMMFNFFFFMFFFFMFMFcMNcvBcxccxzccxy7CZtkAf/",
"!HBZHM6jAQWWWWWWTTRTTTITTITTITTTIITTIIITWWWWWWWWWLWWWWQLs7CACCk/",
"~TBZN7uHx*kZBBNBBBBBFABAFFBBNFBBFBBBBBFBBBBBMBBBBBBBZu*BZe8NCCd/",
"~ZZM3hZTO XHCBCBCBCCGFFFBHZBZFCCGGGCCCBGCBCCBBCBBBCCB  *IZu7BZf/",
"!Zn8uZZH1 ,HCCCCGCCCCBGBBFFHGCCCCCHGCHBBCCCCBBBZCCCCZ& wACCu8Nm)",
"!n6uZCZZHNHCCCCCGHZCZZCHHVHBHGCCCCBGZBHBCCCCCZZZCCCCZABZCCCZu7m_",
"E3hCMMMnNNMMMnvckMMMMMccMMlMkMMMMMkMMMMcnMnccMMMMccvMMMvvMcNCu3^",
"DuWBvvvvvvvvvvvMcFFkFcFkFvvvcFFkFMFFkFMcvvvvvNvvvvvvvvMvvvvvCLuU"
};
